<svg xmlns="http://www.w3.org/2000/svg" viewBox="0 0 300 300"><defs><style>.a{fill:#4e2c13;}.b{fill:#6e4221;}.c{fill:#5a3214;}.d{fill:#3b2110;}.e{fill:#fff;}.f{fill:#010101;}</style></defs><title>Betty</title><path class="a" d="M110.94,265.94c.35,2.05.79,4.26,1.23,6.56s.89,4.68,1.34,7.07a17.41,17.41,0,0,0,5.61,9.81,3.93,3.93,0,0,0,4.26.8,3,3,0,0,0,2-1.81,7.35,7.35,0,0,1,.32-.75,11.63,11.63,0,0,0,1.51-5.77,12,12,0,0,0-1.54-5.78c-3.42-6.33-4.31-13.79-5.16-21.21-1-8.66-1-17.4-1-26.11,0-8.43-.29-16.86-.33-25.29q0-3.37-.08-6.77l-.12-6.78c-.09-6.63-.15-13.26-1.49-19.69A16.59,16.59,0,0,0,116.4,167c-.67-1.57-2.42-1.93-3.28-.6a12.86,12.86,0,0,0-1.82,3.65,41.07,41.07,0,0,0-1.13,7.13c-.46,6.7-.56,13.43-1.11,20.14-.13,1.8.12,3.67.1,5.51,0,2.44-.1,4.87-.17,7.31s-.14,4.59-.22,6.88-.09,4.59,0,6.88c.24,7.66-.15,15.32.4,23,.23,3.06.48,6.12.79,9.26.15,1.57.31,3.16.46,4.79S110.76,264.24,110.94,265.94Z"/><path class="a" d="M73.45,121.46c0,2.53.16,5.27.4,8.11s.6,5.75,1.06,8.66a18.67,18.67,0,0,0,6.18,11.47,3.49,3.49,0,0,0,4.33.49,3.17,3.17,0,0,0,1.8-2.23c.08-.29.16-.59.26-.85a15.79,15.79,0,0,0-.33-12.71c-3.21-7.07-3.05-15.66-1.86-23.93,1.36-9.7,5-19,9.59-27.63a117.17,117.17,0,0,1,16.22-23.4c1.73-1.89,3.5-3.76,5.33-5.57s-1.18-12-7.51-6.66a66.38,66.38,0,0,0-4.68,4.94q-3.1,3.27-6,6.71Q95.51,62.1,93,65.51a69.93,69.93,0,0,0-4.61,7.09c-4.65,8.16-9,16.61-11.41,25.73a101.22,101.22,0,0,0-2.33,11.16c-.29,1.91-.54,3.85-.75,5.85S73.55,119.36,73.45,121.46Z"/><path class="a" d="M244.18,119.76c.25,2.52.39,5.26.45,8.1s0,5.79-.14,8.73a18.73,18.73,0,0,1-4.94,12.06,3.49,3.49,0,0,1-4.25.94,3.2,3.2,0,0,1-2-2,8.79,8.79,0,0,0-.35-.82,15.7,15.7,0,0,1-1-12.67c2.45-7.37,1.38-15.89-.68-24-2.37-9.51-7-18.38-12.45-26.47A116.24,116.24,0,0,0,200.2,62.05c-1.92-1.7-3.88-3.37-5.89-5s-.09-12.09,6.77-7.41a65.39,65.39,0,0,1,5.18,4.42q3.42,2.93,6.67,6c2,2,4,4,5.91,6.06a71,71,0,0,1,5.33,6.56c5.48,7.63,10.66,15.58,14.06,24.39A104,104,0,0,1,241.72,108q.74,2.8,1.37,5.74C243.49,115.68,243.85,117.68,244.18,119.76Z"/><path class="a" d="M203.32,266.62c-.42,3.81-.95,8.26-1.4,12.72a16.6,16.6,0,0,1-4.58,9.72,4.21,4.21,0,0,1-4.14,1.33A2.77,2.77,0,0,1,191,289a6.89,6.89,0,0,0-.4-.64,10.22,10.22,0,0,1-1.12-10.78c2.84-6.32,3.1-13.32,3.51-20.32.46-8.15,0-16.28-.18-24.43-.2-7.87-.06-40.91,0-48.8,0-4.22.19-8.44.35-12.66.25-6.2.51-12.4,2.17-18.3a14.22,14.22,0,0,1,1.21-2.89,1.87,1.87,0,0,1,3.3-.33,11.59,11.59,0,0,1,1.64,3.48,38.31,38.31,0,0,1,.84,6.61c.2,6.18.16,12.37.61,18.54.13,1.66-.14,3.37-.13,5.06,0,2.24.1,29.63.18,31.87.14,4.2.46,8.41.41,12.62-.07,7,.62,14,.46,21.06C203.75,254.71,203.52,260.33,203.32,266.62Z"/><path class="a" d="M92.42,122.86c-1.32,28.64-1.2,57.35.33,86,.51,9.52,1.54,19.88,8.17,26.73,7.56,7.83,19.7,8.4,30.58,8.47l41.65.23c13.41.07,28.29-.4,38-9.69,8.77-8.42,10.59-21.62,11.41-33.75A455,455,0,0,0,213,72.75c-1.71-7.76-3.89-16-9.74-21.31-5.65-5.2-13.67-6.76-21.27-7.86A362.16,362.16,0,0,0,139.49,40C130.44,39.77,121,40,113,44.3c-7.55,4.1-12.89,11.54-15.92,19.58C94.19,71.57,93.07,108.66,92.42,122.86Z"/><path class="b" d="M122,101.54c-9.19,16-9,35.58-8.6,54.07.24,10.07.5,20.32,3.59,29.91s9.49,18.62,18.8,22.46c5.55,2.29,11.7,2.61,17.7,2.58a170.34,170.34,0,0,0,26.2-2.17c5.41-.86,11.14-2.19,14.89-6.18,3.46-3.69,4.57-9,5.32-14a175.64,175.64,0,0,0-6.17-78.43c-2.13-6.78-4.78-13.6-9.52-18.9-5-5.64-12.14-9.15-19.48-11-7.13-1.79-17.84-4.27-24.42.28C133.14,85.17,126.3,94.06,122,101.54Z"/><path class="c" d="M177.77,14.85A10.89,10.89,0,0,1,183,11.5a7.71,7.71,0,0,1,6.08.88,6,6,0,0,1,2.73,5.37c-.25,2.7-2.6,4.84-5.19,5.68s-5.36.65-8.07.45c-.26,0-1.46-2.09-1.74-2.39-.43-.48-1.18-.92-1.38-1.56C175,18.34,176.8,15.93,177.77,14.85Z"/><path class="d" d="M185.66,14.27a3.37,3.37,0,0,1,2.69.89,2.51,2.51,0,0,1,0,2.94,4.49,4.49,0,0,1-2.59,1.7,23.18,23.18,0,0,1-3.11.51,17.23,17.23,0,0,0-3.65,1c-1,.37-2.09,1.28-3,1.43-.05-1.95,1.72-4.36,3.07-5.63A10.06,10.06,0,0,1,185.66,14.27Z"/><path class="c" d="M132.62,11.92a10.89,10.89,0,0,0-5.26-3.35,7.73,7.73,0,0,0-6.09.87,6,6,0,0,0-2.72,5.38c.25,2.7,2.6,4.83,5.18,5.67s5.37.65,8.08.45c.26,0,1.46-2.09,1.74-2.39.43-.48,1.18-.92,1.38-1.55C135.42,15.4,133.59,13,132.62,11.92Z"/><path class="d" d="M124.73,11.33a3.37,3.37,0,0,0-2.69.89,2.52,2.52,0,0,0,0,2.95,4.49,4.49,0,0,0,2.58,1.69,25.38,25.38,0,0,0,3.12.52,17.21,17.21,0,0,1,3.65.95c1,.37,2.09,1.29,3,1.44.05-2-1.72-4.37-3.07-5.64A10.11,10.11,0,0,0,124.73,11.33Z"/><path class="c" d="M188.31,45.29c-.95-7.75-2.16-15.94-5.41-21.31-3.14-5.2-7.58-6.75-11.8-7.85a113.69,113.69,0,0,0-23.58-3.6c-5-.22-10.27,0-14.69,4.31-4.19,4.1-7.15,11.54-8.84,19.58-.21,1-.4,2.51-.58,4.39C112.51,83.45,193.42,87.24,188.31,45.29Z"/><path class="e" d="M173.8,24.67a3.54,3.54,0,1,1-4.74-1.6A3.54,3.54,0,0,1,173.8,24.67Z"/><path class="f" d="M171.53,25.28a2.2,2.2,0,1,1-2.95-1A2.19,2.19,0,0,1,171.53,25.28Z"/><path class="e" d="M170.15,25.19a.38.38,0,0,1-.17.5.37.37,0,0,1-.49-.17.36.36,0,0,1,.16-.49A.37.37,0,0,1,170.15,25.19Z"/><path class="e" d="M146.41,23.32a3.54,3.54,0,1,1-4.73-1.61A3.54,3.54,0,0,1,146.41,23.32Z"/><path class="f" d="M145.71,24.44a2.2,2.2,0,1,1-2.94-1A2.2,2.2,0,0,1,145.71,24.44Z"/><path class="e" d="M144.33,24.36a.37.37,0,1,1-.49-.17A.37.37,0,0,1,144.33,24.36Z"/><path class="f" d="M145.56,42.47a6.54,6.54,0,0,0,3.15,4,8.38,8.38,0,0,0,3.31.54,19,19,0,0,0,6.77-.61,8.87,8.87,0,0,0,5.84-6.79,7.7,7.7,0,0,0-3.93-7.88,10.35,10.35,0,0,0-5-.9c-2.93.07-7.3.67-9.54,2.85S144.7,40,145.56,42.47Z"/><rect class="f" x="149.21" y="49.57" width="10.41" height="1.36" transform="matrix(0.04, -1, 1, 0.04, 98.52, 202.71)"/><path class="f" d="M153.77,56.1a11.22,11.22,0,0,1-3.62-.55,7,7,0,0,1-4.79-5.09.67.67,0,0,1,.54-.79.68.68,0,0,1,.79.55,5.68,5.68,0,0,0,3.89,4.05,12.69,12.69,0,0,0,6.21.19A13.84,13.84,0,0,0,161.44,53a6.56,6.56,0,0,0,3.05-3.38.68.68,0,1,1,1.28.45,7.89,7.89,0,0,1-3.66,4.12A15.65,15.65,0,0,1,157,55.8,19.78,19.78,0,0,1,153.77,56.1Z"/><path class="f" d="M138.45,17.32a.51.51,0,0,1-.36-.15.5.5,0,0,1,0-.72,5.51,5.51,0,0,1,3.68-1.57,5.59,5.59,0,0,1,3.77,1.34.52.52,0,0,1,0,.72.5.5,0,0,1-.72,0,4.48,4.48,0,0,0-6.07.19A.54.54,0,0,1,138.45,17.32Z"/><path class="f" d="M166.81,21.62a.51.51,0,0,1-.37-.15.51.51,0,0,1,0-.72,5.5,5.5,0,0,1,7.45-.23.51.51,0,1,1-.67.77,4.47,4.47,0,0,0-3.07-1.09,4.56,4.56,0,0,0-3,1.27A.5.5,0,0,1,166.81,21.62Z"/><path class="a" d="M137.11,104.18c.11-.84.19-2.13.33-3.93s.28-3.08.29-3.93-.07-1.27-.27-1.31c-.38-.1-1.23,2.18-1.46,5.13s.24,5.33.63,5.3C136.84,105.43,137,105,137.11,104.18Z"/><path class="a" d="M146,110.41c.2,0,.41-.35.56-1.15a17,17,0,0,0,.17-3.78,16.84,16.84,0,0,0-.54-3.75c-.23-.78-.47-1.12-.67-1.09-.4.07-.37,2.25-.24,4.91S145.56,110.38,146,110.41Z"/><path class="a" d="M155.29,103.45c.39-.07.51-1.39,0-4.33s-1-4.17-1.41-4.1-.41,2,0,4.33S154.89,103.51,155.29,103.45Z"/><path class="a" d="M155.23,118.84c.4,0,.73-1.37.73-4.55s-.33-4.55-.73-4.55-.72,2-.72,4.55S154.83,118.84,155.23,118.84Z"/><path class="a" d="M140.91,113.18c-.12-2.31-.49-3.29-.89-3.27s-.66,1.52-.56,3.34.49,3.3.89,3.28S141,115.5,140.91,113.18Z"/><path class="a" d="M147.79,116.69c-.4,0-.73,2.93-.73,6.54s.33,6.53.73,6.53.72-2,.72-6.53S148.19,116.69,147.79,116.69Z"/><path class="a" d="M132.42,118c.2,0,.35-.27.45-.78s.17-1.27.29-2.32.25-1.81.27-2.33-.06-.8-.25-.87-.49.21-.78.75a6.42,6.42,0,0,0-.68,2.27,6.53,6.53,0,0,0,.12,2.37C132,117.7,132.22,118,132.42,118Z"/><path class="a" d="M138.89,130.43c.4,0,.75-1.08.8-3.63s-.24-3.65-.64-3.65-.76,1.61-.81,3.62S138.49,130.42,138.89,130.43Z"/><path class="a" d="M126.4,111.05c.28-.71.6-1.82,1.1-3.34s.92-2.59,1.13-3.32.22-1.13,0-1.22-.59.28-1.08,1a13.17,13.17,0,0,0-1.46,3.07,12.65,12.65,0,0,0-.68,3.34c0,.87,0,1.43.25,1.46S126.12,111.76,126.4,111.05Z"/><path class="a" d="M127.61,120.17c-.39-.06-1.07,2.26-1.5,5.18s-.46,5.34-.06,5.4,1-1.49,1.5-5.19S128,120.23,127.61,120.17Z"/><path class="a" d="M162,109.74c.2,0,.32-.38.36-1.11s0-1.84-.09-3.38-.16-2.65-.28-3.37-.29-1.06-.49-1.07c-.4,0-.82,2-.68,4.52S161.63,109.81,162,109.74Z"/><path class="a" d="M169,99.16c.39-.12.4-1.23-.3-3.6s-1.32-3.3-1.7-3.18-.25,1.72.31,3.59S168.58,99.27,169,99.16Z"/><path class="a" d="M169.57,105.09c-.35-.73-.64-1-.83-1-.38.13,0,2.24.5,4.79s1,4.65,1.39,4.62c.2,0,.36-.4.4-1.2a18.88,18.88,0,0,0-1.46-7.26Z"/><path class="a" d="M163,125c.19,0,.41-.28.57-.95a10.28,10.28,0,0,0,.12-3.23,10.12,10.12,0,0,0-.75-3.14c-.29-.63-.56-.88-.75-.82-.39.12-.15,1.92.06,4.1S162.55,124.92,163,125Z"/><path class="a" d="M176.41,105.44c-.54-2.34-1.09-3.27-1.48-3.18s-.36,1.66.07,3.5,1.09,3.27,1.48,3.18S177,107.77,176.41,105.44Z"/><path class="a" d="M174.21,124.31c.4,0,.62-1,.39-3.22s-.65-3.11-1-3.07-.58,1.48-.39,3.22S173.81,124.35,174.21,124.31Z"/><path class="a" d="M184.82,119.84c.39-.09.43-1.38-.21-4.21s-1.24-4-1.63-3.89-.3,2,.21,4.21S184.43,119.93,184.82,119.84Z"/><path class="a" d="M180.9,101.83c.2,0,.33-.32.32-.88a6.54,6.54,0,0,0-.66-2.48,6.7,6.7,0,0,0-1.42-2.14c-.41-.38-.71-.47-.87-.35-.32.25.28,1.54,1,3.08S180.5,101.9,180.9,101.83Z"/><path class="a" d="M159.38,91.65c.22.49.47.76.67.72s.32-.29.36-.76a14.38,14.38,0,0,0,0-2.09,14.61,14.61,0,0,0-.24-2.08c-.11-.45-.27-.68-.47-.7s-.41.29-.56.81a6.65,6.65,0,0,0,.29,4.1Z"/><path class="a" d="M144.41,94.36c.4,0,.68-.79.57-2.53s-.48-2.46-.88-2.43-.65,1.15-.57,2.52S144,94.39,144.41,94.36Z"/><path class="a" d="M158.71,129c-.28-2.66-.73-3.77-1.13-3.73s-.54,1.78-.31,3.89.73,3.77,1.13,3.72S159,131.68,158.71,129Z"/><path class="a" d="M168.59,127.62c-.39.08-.33,2,.14,4.36s1.16,4.15,1.55,4.07.46-1.41-.13-4.36S169,127.54,168.59,127.62Z"/><path class="a" d="M151.76,93c.2,0,.33-.36.39-1s0-1.69,0-3.11,0-2.44-.14-3.11-.23-1-.43-1c-.39-.05-.93,1.81-.88,4.16S151.37,93.1,151.76,93Z"/><path class="a" d="M172.78,93c.36-.17.19-1.26-.87-3.44s-1.82-3-2.18-2.81,0,1.71.87,3.44S172.42,93.21,172.78,93Z"/><path class="a" d="M134.86,92.86c.19.06.43-.1.72-.5a20.25,20.25,0,0,0,1.16-1.93,20.13,20.13,0,0,0,1.07-2c.19-.46.21-.75.06-.88s-.52,0-1,.38a6.53,6.53,0,0,0-1.42,1.76,6.38,6.38,0,0,0-.79,2.11C134.6,92.41,134.67,92.8,134.86,92.86Z"/><path class="a" d="M181.36,128.67c.56,2.6,1.33,4.64,1.72,4.56s.41-1.57-.3-4.87-1.32-4.64-1.72-4.56S180.81,126.06,181.36,128.67Z"/><path class="a" d="M176.72,133.9c-.4.08-.49,1.29-.22,2.71s.82,2.5,1.21,2.42.57-.91.22-2.7S177.11,133.83,176.72,133.9Z"/><path class="a" d="M163.15,136.38c-.39.07-.41,2,0,4.26s1,4.08,1.39,4,.51-1.36,0-4.25S163.55,136.32,163.15,136.38Z"/><path class="a" d="M152.58,131.25c-.39,0-.81,1.85-.72,4.17s.66,4.16,1.06,4.1.52-1.3.39-4.15S153,131.27,152.58,131.25Z"/><path class="a" d="M143.88,140.19c.4,0,.63-1.27.42-4.11s-.63-4-1-4-.59,1.87-.42,4.11S143.48,140.22,143.88,140.19Z"/><path class="a" d="M131.76,136c.2,0,.32-.33.37-.89s0-1.41,0-2.58,0-2,0-2.58-.17-.85-.37-.89-.45.31-.67.94a7.75,7.75,0,0,0-.37,2.54,8.17,8.17,0,0,0,.4,2.53C131.31,135.74,131.57,136.09,131.76,136Z"/><path class="a" d="M120.7,142.34c.24.58.51.89.7.84s.31-.32.34-.85a23.79,23.79,0,0,0-.09-2.41,21.73,21.73,0,0,0-.2-2.4c-.09-.52-.24-.78-.44-.81s-.42.33-.59.92a7.61,7.61,0,0,0-.22,2.38A7.5,7.5,0,0,0,120.7,142.34Z"/><path class="a" d="M129.42,149.29c.2,0,.36-.31.46-.91a20.85,20.85,0,0,0,.18-2.8,22.8,22.8,0,0,0-.05-2.81c-.08-.61-.22-.91-.42-.93-.39-.05-.94,1.6-1,3.7S129,149.32,129.42,149.29Z"/><path class="a" d="M138.25,144.92a18.23,18.23,0,0,0-.38-2.2c-.13-.48-.3-.71-.51-.71s-.39.33-.51.89a7.15,7.15,0,0,0,.6,4.34c.27.51.55.78.74.72s.29-.33.29-.82A16.51,16.51,0,0,0,138.25,144.92Z"/><path class="a" d="M151.57,151.11c.39-.07.54-1.12.13-3.43s-.91-3.26-1.3-3.19-.45,1.61-.13,3.44S151.17,151.18,151.57,151.11Z"/><path class="a" d="M160.26,147.35c-.18-.71-.36-1-.56-1-.4,0-.69,2.08-.31,4.61s1.26,4.43,1.64,4.32c.2-.05.28-.43.23-1.16s-.2-1.84-.44-3.37S160.44,148.07,160.26,147.35Z"/><path class="a" d="M172.94,142.5c-.41.05-.52,1.85-.58,4s0,4,.4,4.07c.2,0,.43-.25.63-.9a11.74,11.74,0,0,0,.42-3.13,12,12,0,0,0-.28-3.15C173.35,142.77,173.13,142.48,172.94,142.5Z"/><path class="a" d="M190.18,128.83c-.26-.87-.51-1.25-.71-1.22-.4.07-.29,2.53,0,5.51s.62,5.41,1,5.41c.2,0,.38-.42.48-1.32a26.49,26.49,0,0,0-.77-8.38Z"/><ellipse class="a" cx="184.68" cy="144.24" rx="0.73" ry="3.72"/><path class="a" d="M166.33,157c-.11-3.13-.49-4.46-.89-4.44s-.65,2-.56,4.49.5,4.46.9,4.44S166.45,160.16,166.33,157Z"/><path class="a" d="M143.78,150.28c-.4,0-.7,1.9-.66,4.23s.38,4.21.78,4.21.71-1.28.67-4.23S144.18,150.27,143.78,150.28Z"/><path class="a" d="M132.35,150.62c-.39,0-.5,1.72-.24,3.73s.8,3.6,1.2,3.55.58-1.19.24-3.74S132.75,150.56,132.35,150.62Z"/><path class="a" d="M121.51,156.56c.19-.06.27-.4.22-1.06s-.22-1.63-.46-3-.4-2.33-.58-3-.37-.93-.57-.92c-.4,0-.68,1.87-.28,4.13S121.13,156.69,121.51,156.56Z"/><path class="a" d="M128.12,160.52c-.14-.43-.32-.64-.52-.65s-.39.32-.5.84a5.77,5.77,0,0,0,0,2.07,5.45,5.45,0,0,0,.7,1.94c.28.46.57.69.75.62s.28-.33.27-.78a16.05,16.05,0,0,0-.29-2A15.1,15.1,0,0,0,128.12,160.52Z"/><path class="a" d="M139.05,158.22c-.4,0-.62,2-.49,4.42s.56,4.37,1,4.35.65-1.36.49-4.43S139.45,158.2,139.05,158.22Z"/><path class="a" d="M151.79,161.94a8.88,8.88,0,0,0-.69-1.49c-.44-.74-.79-1-1-.92-.38.19.38,2.3.84,5s.51,4.91.92,5c.2,0,.43-.35.59-1.2a8.16,8.16,0,0,0,.13-1.64,13.7,13.7,0,0,0-.21-2.38A14.54,14.54,0,0,0,151.79,161.94Z"/><path class="a" d="M159,162.35c-.4,0-.6,2-.44,4.43s.61,4.37,1,4.34.64-1.36.44-4.43S159.39,162.32,159,162.35Z"/><path class="a" d="M180.37,157.28a11.68,11.68,0,0,0,0-3,11.91,11.91,0,0,0-.64-2.9c-.24-.6-.48-.84-.68-.8-.39.08-.36,1.8-.13,3.86s.6,3.75,1,3.74C180.09,158.21,180.27,157.92,180.37,157.28Z"/><path class="a" d="M172.75,158.88c-.4,0-.76,2.1-.81,4.7s.24,4.72.64,4.73.75-1.4.81-4.7S173.15,158.89,172.75,158.88Z"/><path class="a" d="M193.33,154.08c.4,0,.63-1.49.41-4.85s-.63-4.77-1-4.75-.59,2.2-.41,4.85S192.93,154.11,193.33,154.08Z"/><path class="a" d="M187.65,158.46c-.06-3.3-.41-4.71-.81-4.71s-.69,2.13-.64,4.73.4,4.71.8,4.7S187.7,161.75,187.65,158.46Z"/><path class="a" d="M183.16,164.18c-.4,0-.76,1.87-.81,4.2s.25,4.23.65,4.23.75-1.25.81-4.2S183.56,164.18,183.16,164.18Z"/><path class="a" d="M166.17,170.63c-.4,0-.57,1.8-.39,4s.65,3.86,1.05,3.82.62-1.23.39-4S166.57,170.59,166.17,170.63Z"/><path class="a" d="M156.25,177.9c.2-.06.3-.32.32-.8a18.06,18.06,0,0,0-.16-2.14,17.75,17.75,0,0,0-.27-2.13c-.11-.47-.27-.7-.47-.72s-.41.3-.56.84a6,6,0,0,0-.14,2.16,6.11,6.11,0,0,0,.56,2.08C155.79,177.69,156.06,178,156.25,177.9Z"/><path class="a" d="M145.25,166.5c-.4.05-.45,2.1-.11,4.56s.92,4.42,1.32,4.37.54-1.44.11-4.56S145.65,166.45,145.25,166.5Z"/><path class="a" d="M132.55,165c-.4.05-.49,1.87-.2,4.07s.83,3.93,1.23,3.88.56-1.29.2-4.07S133,165,132.55,165Z"/><path class="a" d="M123.09,170.48c.38-.12.34-1.4-.49-4.17s-1.5-3.87-1.88-3.76-.17,2,.49,4.17S122.71,170.59,123.09,170.48Z"/><path class="a" d="M129.27,183.2c.19-.08.21-.49.07-1.27s-.44-1.94-.76-3.57-.47-2.83-.63-3.6-.32-1.15-.53-1.15-.39.55-.48,1.46a13.08,13.08,0,0,0,.21,3.56,13.25,13.25,0,0,0,1.13,3.39C128.7,182.83,129.09,183.27,129.27,183.2Z"/><path class="a" d="M139.93,178.4a22.8,22.8,0,0,0-.52-2.52c-.17-.54-.35-.79-.56-.78-.39,0-.69,1.61-.35,3.55s1.14,3.36,1.51,3.23c.19-.06.29-.36.27-.93A22.1,22.1,0,0,0,139.93,178.4Z"/><path class="a" d="M150.37,185.21c-.26-3-.7-4.19-1.09-4.16s-.56,2-.35,4.29.69,4.19,1.09,4.16S150.63,188.16,150.37,185.21Z"/><ellipse class="a" cx="161.19" cy="183.86" rx="0.73" ry="3.97"/><ellipse class="a" cx="174.75" cy="177.99" rx="0.73" ry="3.89"/><path class="a" d="M193,163.18c-.4.07-.28,2.36-.21,5.14s.08,5.06.49,5.12c.19,0,.43-.34.63-1.18a18.34,18.34,0,0,0-.21-7.94C193.44,163.49,193.19,163.14,193,163.18Z"/><path class="a" d="M188.67,173.11c-.41,0-.59,2.2-1,4.83s-.8,4.78-.41,4.92c.18.06.48-.23.84-1a13.75,13.75,0,0,0,1-3.72,13.3,13.3,0,0,0,.07-3.86C189.07,173.47,188.87,173.1,188.67,173.11Z"/><path class="a" d="M181.23,180.72c-.4,0-.75,1.79-1,4s-.31,4,.09,4.1c.19,0,.43-.22.68-.86a12.83,12.83,0,0,0,.67-3.08,13.44,13.44,0,0,0,0-3.16C181.61,181,181.43,180.73,181.23,180.72Z"/><path class="a" d="M168.63,186c-.4,0-.72,1.3-.72,2.9s.32,2.9.72,2.9.73-.88.73-2.9S169,186,168.63,186Z"/><path class="a" d="M157.12,189.32a24.3,24.3,0,0,0-.52-2.64c-.17-.57-.35-.84-.55-.83-.4,0-.71,1.68-.36,3.71s1.18,3.52,1.55,3.4c.19-.06.28-.38.25-1A25.19,25.19,0,0,0,157.12,189.32Z"/><path class="a" d="M142.82,190.57c.34.45.66.66.84.57s.23-.37.16-.84a21.13,21.13,0,0,0-.52-2.08c-.25-.94-.41-1.61-.59-2.06s-.36-.65-.56-.64-.37.35-.44.91a6.26,6.26,0,0,0,1.11,4.14Z"/><path class="a" d="M133.29,181.52c-.36.18.06,1.73.93,3.46s1.86,3,2.22,2.82.18-1.27-.93-3.47S133.65,181.34,133.29,181.52Z"/><path class="a" d="M131.41,189.49c-.34.21.08,1.53,1,2.94s1.85,2.4,2.19,2.19.15-1.15-1-3S131.75,189.28,131.41,189.49Z"/><path class="a" d="M123.94,185.43c-.24-1.06-.4-1.82-.57-2.32s-.36-.74-.56-.74-.37.38-.45,1a7.11,7.11,0,0,0,.17,2.39,7.21,7.21,0,0,0,.91,2.21c.35.52.67.78.85.69s.24-.38.17-.9A23.1,23.1,0,0,0,123.94,185.43Z"/><path class="a" d="M143,198.33a28.5,28.5,0,0,0-1.6-2.4c-.39-.5-.67-.69-.85-.61-.37.16,0,1.93,1.23,3.79s2.62,3,2.91,2.73.1-.47-.19-1S143.74,199.44,143,198.33Z"/><path class="a" d="M150.62,193.62c-.39.08-.38,1.71,0,3.63s1.06,3.4,1.45,3.32.49-1.2,0-3.63S151,193.54,150.62,193.62Z"/><path class="a" d="M162.89,194c-.41,0-.71,1.71-.7,3.81s.36,3.8.76,3.8.72-1.16.69-3.82S163.29,194,162.89,194Z"/><path class="a" d="M174.59,191.31c-.41,0-.72,1.5-1,3.33s-.27,3.35.12,3.45c.19,0,.44-.16.68-.69a9,9,0,0,0,.64-2.59,8.89,8.89,0,0,0,0-2.67C175,191.57,174.79,191.31,174.59,191.31Z"/><path class="a" d="M194.22,182.35c-.12-.67-.31-1-.51-1-.41,0-.68,1.78-.93,3.92s-.36,3.93,0,4c.2,0,.45-.2.71-.83a11.21,11.21,0,0,0,.71-3A11.56,11.56,0,0,0,194.22,182.35Z"/><path class="a" d="M185.49,191.47c-.39-.08-1,1.21-1.5,2.81s-.8,3-.43,3.17c.18.08.45-.07.77-.5a9.7,9.7,0,0,0,1.49-4.63C185.82,191.78,185.69,191.51,185.49,191.47Z"/><path class="a" d="M131.07,196.94c-.58-.85-1-1.46-1.33-1.84s-.59-.51-.78-.42-.21.47-.06,1a6.92,6.92,0,0,0,1,2,6.7,6.7,0,0,0,1.56,1.64c.48.34.85.45,1,.31s.11-.43-.12-.87A18.86,18.86,0,0,0,131.07,196.94Z"/></svg>