<svg xmlns="http://www.w3.org/2000/svg" viewBox="0 0 300 300"><defs><style>.a{fill:#eabd9b;}.b{fill:#89532b;}.c{fill:#8d5630;}.d{fill:#9b683f;}.e{fill:#fff;}.f{fill:#010101;}.g{fill:#ce966f;}.h{fill:#af7c5b;}</style></defs><title>Diego</title><path class="a" d="M35.63,13.77c-.22,0-.37.51-.45,1.4a27.25,27.25,0,0,0,0,3.9c.07.84.13,1.78.25,2.8s.25,2.13.45,3.31a78.23,78.23,0,0,0,1.71,8,82.46,82.46,0,0,0,8.17,19.76A76.17,76.17,0,0,0,62.67,73.16a66.84,66.84,0,0,0,5.58,4.21c.94.67,1.92,1.25,2.88,1.86.48.3,1,.57,1.46.86s1,.57,1.47.82a105.3,105.3,0,0,0,11.51,5.15c3.64,1.44,7,2.78,10,4.29l.56.28.54.29c.35.19.72.37,1.06.57l1,.59,1,.61c.32.19.61.42.92.62s.61.41.89.64l.86.65.8.67c.27.21.52.44.77.67l.73.68.68.69.33.34L106,98l.62.69.55.69c.38.45.69.92,1,1.37a20.92,20.92,0,0,1,2.56,5c.07.18.15.36.2.53l.15.52c.1.33.21.64.28.94s.13.57.2.82.14.49.17.7c.18.84.37,1.31.59,1.33s.44-.43.67-1.33a5.13,5.13,0,0,0,.13-.77c0-.28.06-.59.09-.94a10,10,0,0,0,0-1.09c0-.2,0-.41,0-.62s0-.42-.08-.64A18.89,18.89,0,0,0,111.18,99c-.29-.56-.58-1.16-.94-1.72l-.54-.88-.61-.87-.31-.45-.34-.43-.69-.88-.76-.86c-.25-.29-.52-.58-.8-.86l-.85-.85-.91-.83c-.3-.29-.63-.55-1-.82s-.65-.55-1-.8L101.41,88l-1.09-.74c-.37-.26-.75-.48-1.13-.72l-.58-.36L98,85.8a104.52,104.52,0,0,0-10.22-5A119.7,119.7,0,0,1,77,75.55c-.45-.23-.88-.51-1.32-.77s-.89-.52-1.32-.8c-.87-.57-1.76-1.11-2.61-1.73-1.74-1.18-3.42-2.51-5.09-3.88A79.75,79.75,0,0,1,50.67,50a98.77,98.77,0,0,1-8.88-18.14c-1-2.71-1.84-5.21-2.52-7.43-.35-1.11-.64-2.15-.93-3.1s-.53-1.84-.77-2.63c-.44-1.59-.84-2.82-1.14-3.65S35.84,13.74,35.63,13.77Z"/><path class="a" d="M45.58,44.13c-.4.37-.8.72-1.18,1l-.44.37,0-.3c0-.5.11-1,.16-1.51a4.82,4.82,0,0,0-1.42-4.06c.58-.87,1.12-1.86,1.73-2.85C45.63,34.76,46.84,32.47,48,30s2-4.93,2.77-7.18c.34-1.13.72-2.2,1-3.23.14-.51.31-1,.44-1.48s.24-1,.37-1.39c.27-.88.45-1.69.67-2.41.1-.36.22-.69.32-1s.18-.6.28-.86c.38-1,.8-1.62,1.23-1.63s.84.57,1.2,1.67c.09.27.18.58.27.92s.13.7.19,1.1a19.32,19.32,0,0,1,.23,2.71c0,.5,0,1,0,1.58s-.07,1.12-.11,1.71a34.13,34.13,0,0,1-.52,3.76,41.16,41.16,0,0,1-2.64,8.28A40.57,40.57,0,0,1,49.24,40a33.36,33.36,0,0,1-2.45,2.89C46.37,43.34,46,43.76,45.58,44.13Z"/><path class="a" d="M22.22,20.23c.85-.3,2.28,1.8,4.67,4.78a48.37,48.37,0,0,0,10.5,10,42.89,42.89,0,0,0,6.8,3.76,16.49,16.49,0,0,0,1,6.17,27.07,27.07,0,0,1-2.82-.71A31.32,31.32,0,0,1,27,33.75a30.72,30.72,0,0,1-2.32-3.35,26.72,26.72,0,0,1-1.59-3.16,17,17,0,0,1-1.35-4.92C21.63,21.1,21.82,20.37,22.22,20.23Z"/><path class="a" d="M51.73,56.35a18.09,18.09,0,0,0,5.5-3.48,23,23,0,0,0,5.24-7.74,45.18,45.18,0,0,0,1.75-4.83c.12-.41.22-.81.34-1.21s.21-.81.32-1.2c.19-.81.38-1.6.56-2.39.71-3.14,1.29-6.08,1.94-8.56a30.92,30.92,0,0,1,2-5.8,6.81,6.81,0,0,1,.94-1.48c.29-.31.54-.45.75-.39s.36.29.47.69a8.72,8.72,0,0,1,.22,1.69c.07,1.42,0,3.43,0,5.93s-.22,5.5-.65,8.92a39.81,39.81,0,0,1-2.92,11.13A26.51,26.51,0,0,1,65.08,53a21.3,21.3,0,0,1-4.17,4.25A18.77,18.77,0,0,1,56.18,60a20.66,20.66,0,0,1-2.21.69A21.92,21.92,0,0,0,51.73,56.35Z"/><path class="a" d="M17.3,63.08c.16-.39,1.07-.46,2.57-.19a38.44,38.44,0,0,1,6,1.84c2.46.92,5.3,2.15,8.39,3.42a76.57,76.57,0,0,0,10,3.43,39.13,39.13,0,0,0,5.2.94,28,28,0,0,0,4.8.13,24.84,24.84,0,0,0,7.88-1.82,24,24,0,0,0,2.48-1.2,4.35,4.35,0,0,0,1.25,1.72,4.2,4.2,0,0,0,1.36.75,17.59,17.59,0,0,1-2.91,2.57,22.46,22.46,0,0,1-9.4,3.7,30.92,30.92,0,0,1-12.17-.73,50.41,50.41,0,0,1-10.94-4.27c-3.14-1.64-5.78-3.28-8-4.7S20,66,18.85,65.1,17.13,63.48,17.3,63.08Z"/><path class="a" d="M31.8,52.56c.74-.44,2.35.71,4.25,3.07A33.69,33.69,0,0,1,39,60a46.94,46.94,0,0,1,2.77,5.81,47.47,47.47,0,0,1,2,6.15c.25,1.07.45,2.1.6,3.06-1.64-.55-3.31-1-5-1.47L38,73.22c-.66-1.59-1.35-3.29-2.05-5.09-.79-2-1.53-3.91-2.18-5.67s-1.2-3.37-1.62-4.76C31.31,54.93,31.05,53,31.8,52.56Z"/><path class="a" d="M76.27,36.71a37.79,37.79,0,0,1,2.61-7.57A10.35,10.35,0,0,1,80,27.24c.33-.41.61-.59.81-.52s.34.37.4.88a14.26,14.26,0,0,1,0,2.17c-.11,1.84-.39,4.44-.6,7.63a101.16,101.16,0,0,0-.19,11.13c.09,2.08.24,4.26.51,6.5s.64,4.55,1.09,7,.94,4.79,1.37,7.13.8,4.66,1,6.9a49.62,49.62,0,0,1,.29,7,10.58,10.58,0,0,0-5.44-2.72q-.23-1.68-.54-3.45c-.38-2.06-.84-4.23-1.34-6.51s-1-4.68-1.51-7.2a73.06,73.06,0,0,1-1.05-7.5,60.85,60.85,0,0,1-.16-7.09A57.48,57.48,0,0,1,76.27,36.71Z"/><path class="a" d="M80,64.28a4.59,4.59,0,0,0-.39-2.69l.08,0a32.78,32.78,0,0,0,7.56-4,18.7,18.7,0,0,0,3-2.77,15.85,15.85,0,0,0,2.07-3.15,28.9,28.9,0,0,0,2.16-6.63C95,43,95.29,41.22,95.67,40s.76-1.92,1.2-1.92.85.67,1.23,1.92a23,23,0,0,1,.81,5.43,24.54,24.54,0,0,1-.17,3.92,20,20,0,0,1-1.08,4.58,18.37,18.37,0,0,1-2.61,4.74,20.26,20.26,0,0,1-4.13,4A28.67,28.67,0,0,1,81.44,67c-.7.18-1.37.34-2,.48A26.42,26.42,0,0,0,80,64.28Z"/><path class="a" d="M104.81,71.07a29.15,29.15,0,0,0-2.29,1.81,16.63,16.63,0,0,0-2.15,2.27,11.76,11.76,0,0,0-1.64,2.77,8.68,8.68,0,0,0-.66,3.1,18.31,18.31,0,0,0,1.57,6.9c.36.88.74,1.76,1.11,2.62-2.56-1.47-5.38-2.36-7.94-3.81-.07-.19-.13-.39-.2-.59A17.21,17.21,0,0,1,92,83.62a14,14,0,0,1-.19-2.78A13,13,0,0,1,92.21,78a13.58,13.58,0,0,1,1-2.62,15.09,15.09,0,0,1,2.92-4.07,16.69,16.69,0,0,1,3.44-2.66,20.09,20.09,0,0,1,3.29-1.52,16.71,16.71,0,0,1,5-1c1.19,0,1.91.2,2,.6s-.34,1-1.24,1.7S106.32,70,104.81,71.07Z"/><path class="a" d="M49.19,88.93c.18-.39,1.21-.37,2.9,0S56.16,90,59,90.8c1.43.4,3,.83,4.66,1.24s3.44.76,5.29,1a37.52,37.52,0,0,0,5.76.36c1,0,2-.11,3-.21s2-.31,3.06-.54a56.3,56.3,0,0,0,6.11-1.8c2-.69,4-1.42,5.79-2.12l2-.75a3.83,3.83,0,0,0,2.82,1.71,6.14,6.14,0,0,1,1,.12c.23,0,.68.2.68.2.68.25,1.36.51,2,.74-1.9,1.09-4,2.19-6.31,3.28-1.87.88-3.83,1.74-5.94,2.56a47.44,47.44,0,0,1-6.85,2.16,36.53,36.53,0,0,1-3.72.62,32.86,32.86,0,0,1-10.49-.67A45.06,45.06,0,0,1,62.15,97c-.87-.33-1.71-.66-2.49-1s-1.53-.7-2.24-1a43.29,43.29,0,0,1-6.33-3.77C49.69,90.09,49,89.32,49.19,88.93Z"/><path class="a" d="M195.16,13.77c.22,0,.36.51.45,1.4a27.55,27.55,0,0,1,0,3.9c-.06.84-.13,1.78-.24,2.8s-.25,2.13-.45,3.31a75.86,75.86,0,0,1-1.72,8A82.81,82.81,0,0,1,185,52.93a76.17,76.17,0,0,1-16.92,20.23c-1.83,1.5-3.67,2.94-5.58,4.21-.94.67-1.93,1.25-2.88,1.86-.48.3-1,.57-1.47.86s-1,.57-1.46.82a106.16,106.16,0,0,1-11.51,5.15c-3.64,1.44-7,2.78-10,4.29l-.56.28-.54.29c-.36.19-.72.37-1.06.57l-1,.59-1,.61c-.32.19-.62.42-.92.62s-.61.41-.89.64l-.86.65-.8.67c-.27.21-.52.44-.77.67s-.5.45-.73.68l-.68.69c-.11.12-.23.23-.34.34s-.2.24-.31.35l-.61.69-.55.69c-.38.45-.69.92-1,1.37a21.37,21.37,0,0,0-2.57,5c-.06.18-.14.36-.19.53s-.11.35-.15.52c-.1.33-.22.64-.28.94l-.2.82c-.07.26-.14.49-.18.7-.17.84-.36,1.31-.58,1.33s-.44-.43-.67-1.33a4.11,4.11,0,0,1-.13-.77c0-.28-.06-.59-.09-.94s0-.7,0-1.09l0-.62c0-.21,0-.42.07-.64A19.18,19.18,0,0,1,119.61,99c.29-.56.58-1.16.94-1.72.18-.29.35-.59.54-.88l.6-.87.32-.45.33-.43.7-.88.76-.86c.25-.29.51-.58.8-.86l.85-.85.91-.83c.3-.29.63-.55,1-.82s.66-.55,1-.8l1.06-.78,1.09-.74c.37-.26.75-.48,1.13-.72l.58-.36.58-.35a104.52,104.52,0,0,1,10.22-5,119.7,119.7,0,0,0,10.79-5.2c.45-.23.88-.51,1.32-.77s.89-.52,1.32-.8c.87-.57,1.76-1.11,2.61-1.73,1.74-1.18,3.42-2.51,5.09-3.88a79.46,79.46,0,0,0,16-18.41A98.13,98.13,0,0,0,189,31.82c1-2.71,1.85-5.21,2.52-7.43.36-1.11.65-2.15.94-3.1s.52-1.84.77-2.63c.44-1.59.83-2.82,1.14-3.65S195,13.74,195.16,13.77Z"/><path class="a" d="M185.2,44.13l1.19,1,.44.37,0-.3c-.05-.5-.11-1-.16-1.51a4.79,4.79,0,0,1,1.42-4.06c-.58-.87-1.12-1.86-1.73-2.85-1.17-2.07-2.38-4.36-3.51-6.84s-2-4.93-2.77-7.18c-.34-1.13-.72-2.2-1-3.23-.15-.51-.32-1-.44-1.48s-.25-1-.37-1.39c-.28-.88-.45-1.69-.67-2.41-.11-.36-.22-.69-.32-1s-.19-.6-.28-.86c-.38-1-.8-1.62-1.23-1.63s-.84.57-1.2,1.67c-.09.27-.18.58-.27.92s-.13.7-.19,1.1a17.93,17.93,0,0,0-.23,2.71c0,.5,0,1,0,1.58s.07,1.12.11,1.71a34.13,34.13,0,0,0,.52,3.76,40.53,40.53,0,0,0,2.64,8.28A41.12,41.12,0,0,0,181.54,40,33.4,33.4,0,0,0,184,42.91C184.41,43.34,184.8,43.76,185.2,44.13Z"/><path class="a" d="M208.57,20.23c-.85-.3-2.28,1.8-4.67,4.78a48.37,48.37,0,0,1-10.5,10,43,43,0,0,1-6.81,3.76,16.1,16.1,0,0,1-1,6.17,27.23,27.23,0,0,0,2.83-.71,31.43,31.43,0,0,0,8.47-4,31.72,31.72,0,0,0,6.89-6.38,30.72,30.72,0,0,0,2.32-3.35,28.34,28.34,0,0,0,1.59-3.16,16.64,16.64,0,0,0,1.34-4.92C209.15,21.1,209,20.37,208.57,20.23Z"/><path class="a" d="M179.06,56.35a17.85,17.85,0,0,1-5.5-3.48,23,23,0,0,1-5.24-7.74,41.21,41.21,0,0,1-1.75-4.83c-.12-.41-.23-.81-.34-1.21s-.21-.81-.32-1.2c-.2-.81-.39-1.6-.56-2.39-.71-3.14-1.29-6.08-1.95-8.56a31,31,0,0,0-2-5.8,7.21,7.21,0,0,0-.94-1.48c-.29-.31-.54-.45-.75-.39s-.37.29-.48.69a9.73,9.73,0,0,0-.21,1.69c-.08,1.42,0,3.43,0,5.93s.22,5.5.65,8.92a39.81,39.81,0,0,0,2.92,11.13A26.47,26.47,0,0,0,165.7,53a21.62,21.62,0,0,0,4.18,4.25A18.6,18.6,0,0,0,174.61,60a20.66,20.66,0,0,0,2.21.69A21.39,21.39,0,0,1,179.06,56.35Z"/><path class="a" d="M213.49,63.08c-.17-.39-1.08-.46-2.57-.19a38.13,38.13,0,0,0-6,1.84c-2.46.92-5.3,2.15-8.4,3.42a75.92,75.92,0,0,1-10,3.43,39.13,39.13,0,0,1-5.2.94,28,28,0,0,1-4.8.13,24.13,24.13,0,0,1-10.36-3,4.35,4.35,0,0,1-1.25,1.72,4.2,4.2,0,0,1-1.36.75,17.9,17.9,0,0,0,2.9,2.57,22.56,22.56,0,0,0,9.41,3.7A30.92,30.92,0,0,0,188,77.64a50.41,50.41,0,0,0,10.94-4.27c3.13-1.64,5.78-3.28,8-4.7a61.8,61.8,0,0,0,5.05-3.57C213.08,64.17,213.66,63.48,213.49,63.08Z"/><path class="a" d="M199,52.56c-.73-.44-2.35.71-4.24,3.07A33.69,33.69,0,0,0,191.81,60,46.94,46.94,0,0,0,189,65.83,47.47,47.47,0,0,0,187.09,72c-.25,1.07-.45,2.1-.6,3.06,1.64-.55,3.31-1,5-1.47l1.33-.35c.67-1.59,1.35-3.29,2.06-5.09.79-2,1.53-3.91,2.17-5.67s1.2-3.37,1.62-4.76C199.48,54.93,199.73,53,199,52.56Z"/><path class="a" d="M154.52,36.71a37.09,37.09,0,0,0-2.62-7.57,9.87,9.87,0,0,0-1.14-1.9c-.34-.41-.61-.59-.82-.52s-.33.37-.39.88a14.26,14.26,0,0,0,0,2.17c.1,1.84.38,4.44.6,7.63a101.37,101.37,0,0,1,.18,11.13c-.08,2.08-.24,4.26-.5,6.5s-.65,4.55-1.09,7-.94,4.79-1.37,7.13-.8,4.66-1,6.9a51.1,51.1,0,0,0-.28,7,10.54,10.54,0,0,1,5.44-2.72c.15-1.12.32-2.27.54-3.45.37-2.06.84-4.23,1.34-6.51s1-4.68,1.51-7.2a73,73,0,0,0,1-7.5,60.91,60.91,0,0,0,.17-7.09A57.48,57.48,0,0,0,154.52,36.71Z"/><path class="a" d="M150.8,64.28a4.59,4.59,0,0,1,.4-2.69l-.08,0a33,33,0,0,1-7.57-4,19.12,19.12,0,0,1-3.05-2.77,15.79,15.79,0,0,1-2.06-3.15,28.43,28.43,0,0,1-2.16-6.63c-.45-2.06-.78-3.83-1.16-5.06s-.77-1.92-1.2-1.92-.85.67-1.23,1.92a22.49,22.49,0,0,0-.81,5.43,25.68,25.68,0,0,0,.16,3.92,20,20,0,0,0,1.09,4.58,18.07,18.07,0,0,0,2.61,4.74,20.47,20.47,0,0,0,4.12,4,28.81,28.81,0,0,0,9.49,4.4c.69.18,1.37.34,2,.48A26.43,26.43,0,0,1,150.8,64.28Z"/><path class="a" d="M126,71.07a27.5,27.5,0,0,1,2.3,1.81,16.63,16.63,0,0,1,2.15,2.27,11.72,11.72,0,0,1,1.63,2.77,8.27,8.27,0,0,1,.66,3.1,18.1,18.1,0,0,1-1.56,6.9c-.36.88-.74,1.76-1.11,2.62,2.55-1.47,5.38-2.36,7.94-3.81.07-.19.13-.39.19-.59a16,16,0,0,0,.6-2.52,14.75,14.75,0,0,0,.19-2.78,13.67,13.67,0,0,0-.38-2.85,14.28,14.28,0,0,0-1-2.62,15.09,15.09,0,0,0-2.92-4.07,16.74,16.74,0,0,0-3.45-2.66A19.64,19.64,0,0,0,128,67.12a16.71,16.71,0,0,0-5-1c-1.2,0-1.91.2-2,.6s.34,1,1.24,1.7S124.47,70,126,71.07Z"/><path class="a" d="M181.6,88.93c-.18-.39-1.21-.37-2.91,0s-4.06,1.06-6.93,1.88c-1.43.4-3,.83-4.66,1.24s-3.44.76-5.3,1a37.31,37.31,0,0,1-5.75.36c-1,0-2-.11-3-.21s-2-.31-3.06-.54a56.3,56.3,0,0,1-6.11-1.8c-2-.69-4-1.42-5.8-2.12l-2-.75a3.85,3.85,0,0,1-2.82,1.71,6.26,6.26,0,0,0-1.06.12c-.22,0-.67.2-.67.2-.68.25-1.37.51-2.06.74,1.9,1.09,4,2.19,6.32,3.28,1.87.88,3.83,1.74,5.94,2.56a47.44,47.44,0,0,0,6.85,2.16,36.07,36.07,0,0,0,3.72.62,32.86,32.86,0,0,0,10.49-.67A44.41,44.41,0,0,0,168.63,97c.87-.33,1.71-.66,2.5-1s1.53-.7,2.23-1a43,43,0,0,0,6.34-3.77C181.1,90.09,181.78,89.32,181.6,88.93Z"/><path class="b" d="M98.76,97.82a9.16,9.16,0,0,0-4.36-2.93c-1.71-.49-10.79-.29-12.3.65s3.51,7.64,9,9.32a19.61,19.61,0,0,0,6.79.55c.23,0,1.28-1.73,1.52-2s1-.75,1.19-1.28C101.05,100.82,99.56,98.75,98.76,97.82Z"/><path class="c" d="M237.36,272.35c-.25,2.34-.55,5.08-.8,7.84a10.58,10.58,0,0,1-2.62,6,2.31,2.31,0,0,1-2.36.82,1.54,1.54,0,0,1-1.24-.86c-.08-.14-.15-.28-.23-.4a6.68,6.68,0,0,1-.64-6.63c1.61-3.9,1.77-8.21,2-12.52.26-5,0-10-.11-15-.11-4.85,0-25.2,0-30.06,0-2.6.11-5.2.2-7.8a52.64,52.64,0,0,1,1.24-11.26,9.36,9.36,0,0,1,.69-1.79,1,1,0,0,1,1.88-.2,7.49,7.49,0,0,1,.94,2.14,25.11,25.11,0,0,1,.47,4.08c.12,3.8.1,7.62.35,11.41.07,1-.08,2.08-.07,3.12,0,1.38.06,18.25.1,19.63.08,2.59.26,5.18.24,7.77,0,4.34.35,8.64.26,13C237.6,265,237.47,268.47,237.36,272.35Z"/><path class="d" d="M161.24,272.35c-.24,2.34-.55,5.08-.8,7.84a10.64,10.64,0,0,1-2.61,6,2.31,2.31,0,0,1-2.36.82,1.55,1.55,0,0,1-1.25-.86c-.08-.14-.15-.28-.23-.4a6.68,6.68,0,0,1-.64-6.63c1.62-3.9,1.77-8.21,2-12.52.27-5,0-10-.1-15-.11-4.85,0-25.2,0-30.06,0-2.6.11-5.2.21-7.8a52.64,52.64,0,0,1,1.23-11.26,9.36,9.36,0,0,1,.69-1.79,1,1,0,0,1,1.88-.2,7.49,7.49,0,0,1,.94,2.14,25.11,25.11,0,0,1,.47,4.08c.12,3.8.1,7.62.36,11.41.07,1-.08,2.08-.08,3.12,0,1.38.06,18.25.1,19.63.08,2.59.26,5.18.24,7.77,0,4.34.35,8.64.26,13C161.48,265,161.35,268.47,161.24,272.35Z"/><path class="d" d="M258.65,272.35c-.24,2.34-.54,5.08-.8,7.84a10.64,10.64,0,0,1-2.61,6,2.31,2.31,0,0,1-2.36.82,1.57,1.57,0,0,1-1.25-.86,2.6,2.6,0,0,0-.23-.4,6.7,6.7,0,0,1-.63-6.63c1.61-3.9,1.76-8.21,2-12.52.27-5,0-10-.1-15-.11-4.85,0-25.2,0-30.06,0-2.6.11-5.2.2-7.8a52.64,52.64,0,0,1,1.23-11.26,10.07,10.07,0,0,1,.69-1.79,1,1,0,0,1,1.88-.2,7.22,7.22,0,0,1,.94,2.14,25.12,25.12,0,0,1,.48,4.08c.11,3.8.09,7.62.35,11.41.07,1-.08,2.08-.08,3.12,0,1.38.06,18.25.1,19.63.09,2.59.27,5.18.24,7.77,0,4.34.35,8.64.26,13C258.89,265,258.77,268.47,258.65,272.35Z"/><path class="d" d="M96.2,105.08c3.19-3.07,6.43-8.38,13.08-8.38,15.13,0,15.59,5.29,19.58,12.31s4.58,33.07,19,38.86c36.67,14.77,105.8,8.55,110.31,12.87.9.85-2.24,2.63-4.95,2.26,7,8.79,5.07,40.92,4.86,51.55-.37,17.81-124.66,12.59-128.55,2.6-5.58-14.38-14.95-54.89-18.39-70.13,0,0-36.73-1-38.31-13.29s7.39-3.43,16.53-16.49C93.19,111.76,95.22,106,96.2,105.08Z"/><path class="e" d="M116.22,113.09a3,3,0,1,1-2.67-3.35A3,3,0,0,1,116.22,113.09Z"/><path class="f" d="M115.2,113.58a1.89,1.89,0,1,1-1.66-2.09A1.9,1.9,0,0,1,115.2,113.58Z"/><path class="e" d="M114.24,112.88a.32.32,0,1,1-.63-.07.31.31,0,0,1,.35-.28A.32.32,0,0,1,114.24,112.88Z"/><path class="e" d="M100.9,111.13a3,3,0,1,1-2.67-3.35A3,3,0,0,1,100.9,111.13Z"/><path class="f" d="M100.33,111.35a1.88,1.88,0,1,1-1.66-2.08A1.87,1.87,0,0,1,100.33,111.35Z"/><path class="e" d="M99.38,110.65a.32.32,0,1,1-.28-.35A.32.32,0,0,1,99.38,110.65Z"/><path class="f" d="M257.68,281.34l1.3,7.85H245.25c.51-4.43,2.17-7.94,5.52-10.09Z"/><path class="f" d="M236.39,281.34l1.29,7.85H224c.52-4.43,2.17-7.94,5.52-10.09Z"/><path class="f" d="M160.27,281.34l1.29,7.85H147.84c.51-4.43,2.17-7.94,5.51-10.09Z"/><path class="d" d="M135.13,272.35c-.24,2.34-.55,5.08-.8,7.84a10.58,10.58,0,0,1-2.62,6,2.3,2.3,0,0,1-2.36.82,1.55,1.55,0,0,1-1.24-.86c-.08-.14-.15-.28-.23-.4a6.68,6.68,0,0,1-.64-6.63c1.62-3.9,1.77-8.21,2-12.52.26-5,0-10-.1-15-.12-4.85,0-25.2,0-30.06,0-2.6.11-5.2.21-7.8a52,52,0,0,1,1.23-11.26,9.36,9.36,0,0,1,.69-1.79,1,1,0,0,1,1.88-.2,7.49,7.49,0,0,1,.94,2.14,25.11,25.11,0,0,1,.47,4.08c.12,3.8.1,7.62.36,11.41.07,1-.09,2.08-.08,3.12,0,1.38.06,18.25.1,19.63.08,2.59.26,5.18.24,7.77-.05,4.34.35,8.64.26,13C135.37,265,135.24,268.47,135.13,272.35Z"/><path class="f" d="M134.16,281.34l1.29,7.85H121.73c.51-4.43,2.17-7.94,5.51-10.09Z"/><path class="d" d="M126.69,101.15a9.13,9.13,0,0,1,4.34-3c1.7-.51,10.78-.4,12.3.52s-3.44,7.68-8.9,9.42a19.9,19.9,0,0,1-6.8.61c-.22,0-1.29-1.72-1.53-2s-1-.74-1.2-1.27C124.43,104.17,125.91,102.09,126.69,101.15Z"/><path class="b" d="M127.85,103a8.52,8.52,0,0,1,5.48-2.55,2.85,2.85,0,0,1,2.29.67,2.11,2.11,0,0,1,.11,2.48,3.76,3.76,0,0,1-2.12,1.51,21.14,21.14,0,0,1-2.61.52,10.73,10.73,0,0,0-4.48,1.72,3.86,3.86,0,0,0-.42-.56,4.34,4.34,0,0,0-.44-.39A9.83,9.83,0,0,1,127.85,103Z"/><path class="g" d="M146.38,178.1c-1.5-3.18-4.44-5.63-6.14-8.69l.34,0a1.92,1.92,0,0,0,1.86-2.39c-1.55-4.39-5.4-6.68-8.49-9.88-1.71-1.79-6.86-9.29-12-10.39-6.15-1.31-11.36,4.58-12.5,10.68-.58,3.12-.39,6.3-.85,9.43a16.28,16.28,0,0,1-3.86,8.37,1.92,1.92,0,0,0,.8,3.19,11.77,11.77,0,0,0,2.62.3,56.55,56.55,0,0,0-.7,12.8,1.94,1.94,0,0,0,2.85,1.69l.86-.5A20.14,20.14,0,0,0,119.44,205a1.92,1.92,0,0,0,2.89-1.61l0-.46c1.72,1.52,3.52,3,5.38,4.31,1.45,1.06,3.12-.62,2.83-2.11l-.51-2.57c-.05-.26-.13-.54-.2-.82.27,0,.54,0,.8,0a17.54,17.54,0,0,1,2.17.12c1.31.16,2.68.73,3.88-.08a3.35,3.35,0,0,0,1.23-3.08c0-1-.09-2-.14-3a5.46,5.46,0,0,1,3.37.66,1.93,1.93,0,0,0,2.89-1.61,72.25,72.25,0,0,0-1.61-13.9,9.35,9.35,0,0,1,1.75.1A1.93,1.93,0,0,0,146.38,178.1Z"/><path class="d" d="M119.24,156.48c-.27-1.67-.6-2.4-1.07-2.39s-.8,1.21-.54,2.67,1,2.47,1.4,2.32S119.55,158.14,119.24,156.48Z"/><path class="d" d="M125.71,161.11c.4-.22.31-1.16-.66-2.93s-1.71-2.36-2.11-2.14-.1,1.52.67,2.93S125.31,161.33,125.71,161.11Z"/><path class="d" d="M121.19,164.42c-.07-1.79-.47-2.54-.92-2.53s-.77,1.18-.72,2.6.48,2.54.93,2.53S121.27,166.21,121.19,164.42Z"/><path class="d" d="M114.91,157.34c-.45,0-.68,1.49-.5,3.24s.67,3.13,1.13,3.09.72-1,.5-3.25S115.36,157.29,114.91,157.34Z"/><path class="d" d="M115.32,167.58c-.45,0-.74,1.31-.64,2.86s.54,2.79,1,2.77.76-.9.64-2.87S115.77,167.55,115.32,167.58Z"/><path class="d" d="M111.16,168.09c.22,0,.39-.29.49-.77a19.38,19.38,0,0,0,.22-2.2,18,18,0,0,0,.1-2.2c0-.5-.15-.77-.37-.84s-.52.21-.8.73a6.06,6.06,0,0,0-.57,2.19,5.77,5.77,0,0,0,.25,2.25C110.67,167.81,110.93,168.12,111.16,168.09Z"/><path class="d" d="M126.91,164.53a.63.63,0,0,0-.75,0c-.36.28-.14,1.14.33,2s1.1,1.51,1.53,1.36a.66.66,0,0,0,.37-.65,3.79,3.79,0,0,0-1.48-2.69Z"/><path class="d" d="M122.79,169.58c-.45.07-.62,1.29-.39,2.72s.79,2.53,1.23,2.46.69-.91.39-2.72S123.24,169.5,122.79,169.58Z"/><path class="d" d="M131.49,161.86c.17-.16.18-.44,0-.86a9.39,9.39,0,0,0-1-1.73,9.63,9.63,0,0,0-1.22-1.58c-.32-.31-.59-.4-.8-.3-.41.18-.22,1.49.66,2.79S131.16,162.17,131.49,161.86Z"/><path class="d" d="M134.32,171.15c.38-.25.37-.89-.21-2s-1.09-1.47-1.51-1.3-.44,1.11.06,2.07S133.94,171.4,134.32,171.15Z"/><path class="d" d="M132,176a11.62,11.62,0,0,0-.57-1.86,12.62,12.62,0,0,0-.72-1.81c-.22-.38-.44-.55-.67-.52s-.4.35-.45.88a4.89,4.89,0,0,0,.29,2,5,5,0,0,0,1,1.74c.37.38.71.53.9.41S132.1,176.42,132,176Z"/><path class="d" d="M119.11,174.58c-.46,0-.75,1.87-.65,4.13s.55,4.08,1,4.06.77-1.27.64-4.13S119.56,174.56,119.11,174.58Z"/><path class="d" d="M112.15,174c-.45,0-.9,1-1,2.41s.18,2.5.63,2.54.87-.68,1-2.41S112.6,174,112.15,174Z"/><path class="d" d="M127.87,183.68c.44-.11.59-1,.09-2.84s-1.06-2.54-1.49-2.42-.48,1.39-.09,2.84S127.44,183.8,127.87,183.68Z"/><path class="d" d="M114.49,181.48c-.45-.07-1,.86-1.17,2.09s0,2.28.46,2.36.92-.55,1.16-2.1S114.93,181.55,114.49,181.48Z"/><path class="d" d="M121.83,185.22c-.44.08-.49,2.08-.09,4.47s1.08,4.26,1.52,4.19.6-1.44.1-4.46S122.28,185.15,121.83,185.22Z"/><path class="d" d="M134.83,184.32a28.27,28.27,0,0,0-1.56-2.94c-.4-.6-.71-.84-.92-.76-.42.15-.08,2.17,1,4.42s2.44,3.77,2.82,3.54c.2-.12.2-.51,0-1.2A26.63,26.63,0,0,0,134.83,184.32Z"/><path class="d" d="M136.46,176.94c-1.06-1.61-1.83-2.1-2.21-1.85s0,1.48.84,2.75,1.82,2.11,2.2,1.86S137.52,178.55,136.46,176.94Z"/><path class="d" d="M127.54,186.71c-.32-.44-.61-.58-.81-.5-.43.18-.23,1.59.23,3.22s1,2.93,1.49,2.86c.22,0,.38-.31.43-.85a9,9,0,0,0-1.34-4.73Z"/><path class="d" d="M116.31,185.89c-.22-.06-.5.18-.75.64a5.18,5.18,0,0,0-.54,1.9,4.92,4.92,0,0,0,.16,2c.16.5.39.79.61.77s.42-.22.55-.64a9.51,9.51,0,0,0,.31-1.93,9.3,9.3,0,0,0,.07-2C116.67,186.19,116.53,186,116.31,185.89Z"/><path class="h" d="M159,160.78a3.14,3.14,0,0,1,2.49-1.34,12.52,12.52,0,0,1,1.89-.12,17.59,17.59,0,0,1,2.11.15,17.84,17.84,0,0,1,2.09.35,12,12,0,0,1,1.81.56c1.07.44,1.91,1,2.1,1.88s-.36,1.79-1.59,2.5a7.14,7.14,0,0,1-2.26.82,9.75,9.75,0,0,1-5.67-.67,7.47,7.47,0,0,1-2-1.32C158.94,162.6,158.62,161.55,159,160.78Z"/><path class="h" d="M180.32,163.85c-1-.52-1.78-1.2-1.88-2.06s.5-1.73,1.68-2.35a8.37,8.37,0,0,1,4.79-.74,8.29,8.29,0,0,1,4.48,1.85c1,.88,1.38,1.87,1.08,2.67a3,3,0,0,1-2.32,1.57,12.07,12.07,0,0,1-4,.11A11.75,11.75,0,0,1,180.32,163.85Z"/><path class="h" d="M173.89,167.52c2.75.15,4.91,1.67,4.81,3.39s-2.4,3-5.16,2.85-4.91-1.68-4.81-3.4S171.13,167.37,173.89,167.52Z"/><path class="h" d="M196.24,166.06c3.24.07,5.85,1.52,5.81,3.24s-2.69,3.07-5.94,3-5.85-1.52-5.82-3.25S193,166,196.24,166.06Z"/><path class="h" d="M210.72,167.06a8.46,8.46,0,0,1-4.09-1.35,2.65,2.65,0,0,1-1.39-2.42,2.77,2.77,0,0,1,2-2,10,10,0,0,1,7.94.65,2.8,2.8,0,0,1,1.61,2.26A2.67,2.67,0,0,1,215,166.4,8.44,8.44,0,0,1,210.72,167.06Z"/><path class="h" d="M182.89,174.21a7.76,7.76,0,0,1,6.73.89,2.85,2.85,0,0,1,1.35,2.27,2.58,2.58,0,0,1-1.6,2.14,7.07,7.07,0,0,1-7.38-1,2.59,2.59,0,0,1-1-2.49A2.84,2.84,0,0,1,182.89,174.21Z"/><path class="h" d="M207.15,172.55a12.87,12.87,0,0,1,8-.36,2.91,2.91,0,0,1,2.15,1.79,2.59,2.59,0,0,1-1.34,2.55,9.27,9.27,0,0,1-9.24.41c-1.13-.67-1.7-1.57-1.57-2.41S206.08,173,207.15,172.55Z"/><path class="h" d="M228.61,164.17c2.76-.18,5.09,1.06,5.21,2.78s-2,3.27-4.79,3.46-5.09-1.06-5.2-2.78S225.85,164.36,228.61,164.17Z"/><path class="f" d="M81.85,131.9a6,6,0,0,1-1.22,1.71,4.55,4.55,0,0,1-5.49,0,5,5,0,0,1-2-5.27,2.73,2.73,0,0,1,1.22-1.65,4.2,4.2,0,0,1,2.19-.34c1.25.07,3.82.11,5,.87C83.3,128.34,82.51,130.65,81.85,131.9Z"/><path class="f" d="M76,138.48a36.72,36.72,0,0,1-.08-8l1.5.15a35.8,35.8,0,0,0,.09,7.88c3.08-.14,6.43-.88,8.48-2.72a.75.75,0,0,1,1,1.13c-2.29,2-6,2.92-9.41,3.08a15.83,15.83,0,0,1-2-1.48Z"/></svg>