<svg xmlns="http://www.w3.org/2000/svg" viewBox="0 0 300 300"><defs><style>.a{fill:#cb4527;}.b{fill:#ef5623;}.c{fill:#edebea;}.d{fill:#fff;}.e{fill:#010101;}.f{fill:#f47b35;}.g{fill:#e6d7cd;}</style></defs><title>Felix</title><path class="a" d="M221.53,120h0a3.38,3.38,0,0,0-4.63,1c-7,10.74-16.67,22.31-25.65,22.48-9.25.17-18.37-9.81-22.78-19.73a3.82,3.82,0,0,0-4.49-2.14h0a3.82,3.82,0,0,0-2.7,4.8c5.65,18.38,22.34,24,30.1,23.86,9.88-.18,20.11-8.55,31.19-25.53A3.41,3.41,0,0,0,221.53,120Z"/><path class="a" d="M165.82,269.44c1,1.53,2.14,3.15,3.38,4.78s2.59,3.28,4,4.87a13.54,13.54,0,0,0,8.2,4.6,2.5,2.5,0,0,0,2.82-1.38,2.29,2.29,0,0,0,.24-2.06c-.06-.21-.13-.42-.17-.62a11.35,11.35,0,0,0-5.12-7.61c-4.69-3.06-7.91-8.36-10.38-13.85a60.54,60.54,0,0,1-4.85-20.55,84.15,84.15,0,0,1,.83-20.53q.48-2.73,1.09-5.45c.42-1.81-5.37-6.88-7.14-1.15a45.62,45.62,0,0,0-.95,4.82c-.41,2.13-.77,4.26-1.06,6.41s-.48,4-.62,6.07a51.78,51.78,0,0,0-.07,6.1c.33,6.77,1,13.59,3,20.09a73.31,73.31,0,0,0,2.89,7.7c.56,1.28,1.16,2.56,1.81,3.85S165.07,268.12,165.82,269.44Z"/><path class="a" d="M141.11,193.31a53.38,53.38,0,0,1-17.69-5.63,30.74,30.74,0,0,1-13-13c-2.38-4.88-3.12-10.41-3.28-15.84a80.35,80.35,0,0,1,3.15-24.71c1.76-6.09,4.28-12.1,4.35-18.44a24.91,24.91,0,0,0-10.2-20.2c-6.38-4.57-15.2-6.3-22.41-3.2-13.76,5.91-15.46,16.53-15.46,16.53s5.12-2.22,7.4-1.34A7.65,7.65,0,0,1,78.39,113a16.22,16.22,0,0,1-.34,7.26c-2,8.47-6.83,15.94-10.39,23.87-8.65,19.25-9.34,42.9,2,60.7C76.93,216.3,89.4,224.87,103,225.72c7.93.49,15.85-1.57,23.11-4.78s14-7.57,20.62-11.9C145.29,203.46,142.56,198.88,141.11,193.31Z"/><polygon class="a" points="168.8 54.14 166.36 23.45 154.31 54.14 168.8 54.14"/><polygon class="b" points="136.46 59.46 152.03 52.44 128.56 29.35 136.46 59.46"/><path class="c" d="M175.44,16.55c-.12,0-.32,0-.56-.05a7.35,7.35,0,0,0-2.07.2A9.21,9.21,0,0,0,170,18a9,9,0,0,0-1.27,1c-.05-.35-.11-.71-.18-1a13.17,13.17,0,0,0-.87-2.64,11,11,0,0,0-.92-1.69c-.25-.39-.41-.59-.41-.59s-.09.25-.23.68-.31,1.05-.5,1.79-.39,1.6-.55,2.54c0,.14-.05.28-.08.42l-.36-.43a10.66,10.66,0,0,0-1.06-1,8.8,8.8,0,0,0-1-.72,7,7,0,0,0-.92-.49,6.09,6.09,0,0,0-.73-.29c-.42-.14-.65-.2-.65-.2s.06.25.19.65c.07.2.14.44.23.72s.19.58.28.92.22.68.34,1.06.23.76.37,1.16c.26.8.55,1.64.91,2.5s1.87,4.14,2.06,4.74a1.49,1.49,0,0,0,2.56.53s2.33-2.91,3.52-4.64,2.22-3.3,3.2-4.46c.48-.58.93-1.06,1.26-1.39l.53-.52Z"/><polygon class="a" points="146.46 54.95 130.2 32.12 138.54 58.52 146.46 54.95"/><path class="c" d="M130,18.23a4.81,4.81,0,0,0-.45.34,7.66,7.66,0,0,0-1.38,1.57A9,9,0,0,0,126.94,23a9.18,9.18,0,0,0-.24,1.61c-.28-.23-.56-.45-.85-.65a13.94,13.94,0,0,0-2.44-1.33,11.09,11.09,0,0,0-1.82-.6c-.45-.11-.7-.15-.7-.15s.1.24.3.65.48,1,.85,1.65.81,1.44,1.33,2.23l.24.36-.57-.07a9.84,9.84,0,0,0-1.44,0,7.43,7.43,0,0,0-1.24.17,6.9,6.9,0,0,0-1,.28,6.52,6.52,0,0,0-.74.28,6.16,6.16,0,0,0-.6.31l.58.34.66.37c.25.15.53.29.83.47l1,.55,1.07.59c.74.41,1.52.82,2.37,1.2s4.2,1.74,4.75,2A1.49,1.49,0,0,0,131.47,32s-.3-3.72-.61-5.79-.64-3.93-.71-5.45a17.61,17.61,0,0,1,0-1.87c0-.46,0-.74,0-.74Z"/><path class="b" d="M184.3,62.94a52.45,52.45,0,0,0-19.19-11.67c-13.43-4.8-30,3.11-34.77,16.57-3.48,9.87-1,20.76-2,31.19-.84,9.48-4.45,18.44-7.47,27.46-6.71,20.08-10.57,41-13.74,61.93-1.84,12.14-3,26,5.17,35.2,7.15,8,19,9.57,29.76,10s25.11-.73,33.26-7.85c21.91-19.14,13-53.17-4.05-101.45-1.1-3.11-2.56-6.55-.74-9.28,1.29-1.94,14.15-10.1,16.07-11.4C207.92,89.18,197.46,75.91,184.3,62.94Z"/><path class="d" d="M154.78,61.83a3.57,3.57,0,1,0,3.57-3.57A3.57,3.57,0,0,0,154.78,61.83Z"/><circle class="e" cx="157.86" cy="61.9" r="2.22"/><path class="d" d="M156.85,61.21a.38.38,0,0,0,.75,0,.38.38,0,0,0-.75,0Z"/><path class="d" d="M171.39,61.13A3.57,3.57,0,1,0,175,57.56,3.56,3.56,0,0,0,171.39,61.13Z"/><path class="e" d="M172,61.46a2.22,2.22,0,1,0,2.21-2.22A2.21,2.21,0,0,0,172,61.46Z"/><path class="d" d="M173.23,60.77a.38.38,0,0,0,.37.37.37.37,0,0,0,.37-.37.36.36,0,0,0-.37-.37A.37.37,0,0,0,173.23,60.77Z"/><path class="f" d="M176,137.88a29.13,29.13,0,0,0-24.22,8c-6.12,6-9.33,14.39-10.91,23.1s-1.31,17.93-2.07,26.88c-1.38,16.28,11.89,24.55,18.1,24.81,5.69.24,11.26.31,16.23.28a22.85,22.85,0,0,0,8-1.41C193.86,201.75,188.26,174.42,176,137.88Z"/><path class="b" d="M153.59,157.83c.18-.66.35-1.68.62-3.1s.5-2.43.58-3.11,0-1-.17-1.06c-.37-.09-1.39,1.66-1.83,4s-.15,4.25.24,4.25C153.23,158.8,153.42,158.49,153.59,157.83Z"/><path class="b" d="M161.92,163.29c.2,0,.43-.25.64-.88a11,11,0,0,0,.45-3,10.76,10.76,0,0,0-.27-3c-.17-.63-.38-.91-.58-.9-.4,0-.53,1.77-.6,3.88S161.52,163.25,161.92,163.29Z"/><path class="b" d="M171.68,158.31c.4,0,.61-1.07.35-3.43s-.7-3.37-1.1-3.34-.55,1.57-.34,3.44S171.29,158.34,171.68,158.31Z"/><path class="b" d="M170.5,170.54c.4,0,.82-1,1.05-3.58s0-3.63-.38-3.65-.87,1.57-1.06,3.57S170.1,170.51,170.5,170.54Z"/><path class="b" d="M156.7,165.2c.06-1.84-.24-2.64-.64-2.65s-.76,1.17-.8,2.62.25,2.65.64,2.65S156.65,167,156.7,165.2Z"/><path class="b" d="M163.27,168.39c-.39,0-.93,2.28-1.2,5.15s-.15,5.21.24,5.23.87-1.52,1.2-5.15S163.67,168.41,163.27,168.39Z"/><path class="b" d="M147.93,168.54c.2,0,.37-.2.51-.6s.25-1,.45-1.83a18.49,18.49,0,0,0,.44-1.83c.06-.4,0-.64-.18-.7s-.5.14-.83.55a4.66,4.66,0,0,0-.84,1.76,4.24,4.24,0,0,0-.06,1.89C147.53,168.26,147.73,168.54,147.93,168.54Z"/><path class="b" d="M153.44,178.77c.4,0,.82-.81,1.06-2.83s0-2.91-.37-2.94-.87,1.24-1.06,2.83S153.05,178.74,153.44,178.77Z"/><path class="b" d="M144,168.28c-.4,0-.82,2-1,4.33s.08,4.3.47,4.28.79-1.32,1-4.33S144.36,168.27,144,168.28Z"/><path class="b" d="M177.9,163.71c.2,0,.35-.29.44-.87a36.26,36.26,0,0,0,.12-5.38c-.06-.58-.2-.86-.4-.88-.39,0-1,1.55-1,3.55S177.5,163.74,177.9,163.71Z"/><path class="b" d="M176.31,149.43c.39-.06.48-1,0-2.87s-1.06-2.69-1.45-2.62-.37,1.35,0,2.87S175.92,149.5,176.31,149.43Z"/><path class="b" d="M177.71,175.85c.2,0,.43-.2.64-.73a6.58,6.58,0,0,0,.36-2.55,6.87,6.87,0,0,0-.51-2.54c-.25-.52-.5-.73-.69-.7-.4.08-.29,1.52-.24,3.27S177.31,175.79,177.71,175.85Z"/><path class="b" d="M183.32,183.49c.19,0,.43-.2.64-.73a6.59,6.59,0,0,0,.35-2.55,6.71,6.71,0,0,0-.51-2.54c-.24-.52-.5-.73-.69-.69-.39.07-.28,1.52-.24,3.26S182.92,183.43,183.32,183.49Z"/><path class="b" d="M161.56,150.46c.4,0,.73-.59.75-2s-.29-2-.69-2-.73.88-.75,2S161.16,150.46,161.56,150.46Z"/><path class="b" d="M173.21,178.82c-.09-2.13-.45-3-.85-3s-.67,1.39-.6,3.07.45,3,.85,3S173.29,181,173.21,178.82Z"/><path class="b" d="M169,149.84c.2,0,.35-.27.46-.8a41,41,0,0,0,.33-4.95c0-.54-.16-.8-.35-.83-.39-.06-1.06,1.38-1.18,3.25S168.56,149.86,169,149.84Z"/><path class="b" d="M152.19,148.71c.19.06.44-.05.76-.35s.72-.79,1.29-1.47a16.21,16.21,0,0,0,1.2-1.5c.23-.36.27-.58.12-.7s-.51,0-1,.25a5.88,5.88,0,0,0-1.53,1.31,4.84,4.84,0,0,0-.94,1.63C152,148.33,152,148.65,152.19,148.71Z"/><path class="b" d="M177.07,184.93c-.39,0-.55,1.54-.35,3.37s.7,3.3,1.09,3.27.61-1,.35-3.37S177.47,184.9,177.07,184.93Z"/><path class="b" d="M167,180.23c-.4,0-.95,1.42-1,3.27s.34,3.34.74,3.32.62-1,.7-3.28S167.38,180.27,167,180.23Z"/><path class="b" d="M157.68,186.82c.39,0,.71-1,.71-3.24s-.33-3.23-.73-3.23-.72,1.45-.71,3.24S157.28,186.82,157.68,186.82Z"/><path class="b" d="M146,182.82q.3,0,.42-.69c.09-.45.12-1.12.2-2s.16-1.6.15-2.05-.11-.69-.31-.73-.47.22-.73.71a5.3,5.3,0,0,0-.55,2,5.15,5.15,0,0,0,.21,2C145.53,182.54,145.77,182.84,146,182.82Z"/><path class="b" d="M142.67,193.19c.2,0,.38-.22.52-.69a13.64,13.64,0,0,0,.38-2.21,13.37,13.37,0,0,0,.16-2.24c0-.48-.16-.73-.35-.76-.39-.06-1,1.22-1.24,2.88S142.27,193.2,142.67,193.19Z"/><path class="b" d="M151.74,190.24a11.37,11.37,0,0,0-.21-1.76c-.1-.39-.25-.58-.45-.6s-.42.24-.58.68a4.42,4.42,0,0,0-.2,1.76,4.51,4.51,0,0,0,.48,1.72c.23.42.49.65.68.62s.32-.25.35-.64A11,11,0,0,0,151.74,190.24Z"/><path class="b" d="M164.5,195.94c.4,0,.62-.86.38-2.72s-.66-2.63-1-2.6-.57,1.25-.38,2.72S164.11,196,164.5,195.94Z"/><path class="b" d="M173.4,193.47c-.12-.58-.28-.86-.48-.87-.4,0-.84,1.62-.65,3.65s.93,3.59,1.31,3.53c.2,0,.31-.33.32-.91s-.07-1.47-.19-2.71S173.52,194.05,173.4,193.47Z"/><path class="b" d="M178.72,201.51c.11-2.48-.16-3.56-.56-3.57s-.8,1.57-.89,3.53.16,3.57.56,3.58S178.6,204,178.72,201.51Z"/><path class="b" d="M156.84,194.82c-.4,0-.83,1.47-1,3.32s.07,3.37.47,3.39.79-1,1-3.32S157.24,194.84,156.84,194.82Z"/><path class="b" d="M145.48,194.42c-.4,0-.63,1.34-.51,3s.53,2.9.92,2.88.66-.91.52-2.95S145.87,194.4,145.48,194.42Z"/><path class="b" d="M151.56,200.85c-.4,0-.76,1.56-.81,3.49s.24,3.5.64,3.5.75-1,.81-3.48S152,200.86,151.56,200.85Z"/><path class="b" d="M163.93,204.56a6.2,6.2,0,0,0-.58-1.23c-.38-.62-.71-.84-.89-.79-.38.13.21,1.86.48,4s.14,3.93.55,4c.19,0,.45-.25.67-.92a5.35,5.35,0,0,0,.25-1.29,8.84,8.84,0,0,0,0-1.9A8.74,8.74,0,0,0,163.93,204.56Z"/><path class="b" d="M171,205.3c-.4,0-.74,1.56-.76,3.5s.29,3.5.68,3.5.74-1.05.76-3.49S171.44,205.3,171,205.3Z"/><path class="b" d="M176.35,210.63c-.39-.1-1,1.17-1.46,2.84s-.45,3.09-.06,3.19.93-.73,1.46-2.84S176.73,210.73,176.35,210.63Z"/><path class="b" d="M167.18,217.49c.2,0,.33-.24.38-.61a12,12,0,0,0,0-1.72,10.68,10.68,0,0,0-.12-1.7c-.07-.38-.21-.57-.41-.6s-.43.21-.62.63a4,4,0,0,0-.29,1.71,4.07,4.07,0,0,0,.4,1.68C166.74,217.3,167,217.52,167.18,217.49Z"/><path class="b" d="M157.11,207.79c-.4,0-.6,1.64-.45,3.62s.6,3.56,1,3.54.64-1.11.45-3.61S157.5,207.77,157.11,207.79Z"/><path class="b" d="M145.22,204.67c-.39.07-.4,1.53,0,3.26s1,3.06,1.39,3,.5-1.07,0-3.25S145.61,204.59,145.22,204.67Z"/><path class="b" d="M153.22,214.91a13.91,13.91,0,0,0-.33-2c-.12-.44-.29-.65-.49-.66-.39,0-.8,1.24-.61,2.8s.88,2.74,1.26,2.66c.2,0,.31-.27.33-.72A12.18,12.18,0,0,0,153.22,214.91Z"/><path class="b" d="M184,202.05c-.4,0-.81,1-.93,2.25s.11,2.32.51,2.35.78-.65.93-2.26S184.44,202.07,184,202.05Z"/><path class="b" d="M184.56,193.43a16.86,16.86,0,0,0,.34-2.13c0-.48-.07-.74-.26-.8-.36-.14-1.17,1-1.49,2.6s0,3,.4,3c.19,0,.37-.17.53-.62A17,17,0,0,0,184.56,193.43Z"/><path class="b" d="M181.21,166.89a21.3,21.3,0,0,0,.16,2.4c.09.53.23.8.42.83.37.09.89-1.3.81-3.13s-.73-3.3-1.1-3.27c-.19,0-.3.26-.34.77A23.82,23.82,0,0,0,181.21,166.89Z"/><path class="b" d="M182.49,210c-.37-.11-1.28,1.06-2,2.62s-1.07,2.91-.7,3,1.09-.64,2-2.62S182.86,210.15,182.49,210Z"/><path class="a" d="M172.6,174.49h0a3.39,3.39,0,0,0-3.65-3c-12.8,1.06-27.84.56-33.5-6.42-5.82-7.19-3.54-20.52,1.58-30.09a3.82,3.82,0,0,0-1.08-4.86h0a3.81,3.81,0,0,0-5.44.82c-11,15.75-5.22,32.37-.34,38.4,6.22,7.69,19.1,10.62,39.32,8.93A3.41,3.41,0,0,0,172.6,174.49Z"/><path class="g" d="M165.51,87.25c0,8.15,5.46,15.54,14.31,20.9,3.11-2.07,6-3.93,6.83-4.49,19.51-13.28,12.33-25.54.85-37.49C172.67,63,165.51,77.62,165.51,87.25Z"/><path class="e" d="M184.11,79.76a9.76,9.76,0,0,0,2,2.79c2.26,2,6.23,2,9,0a8.22,8.22,0,0,0,3.22-8.63,4.44,4.44,0,0,0-2-2.69,6.69,6.69,0,0,0-3.58-.56c-2.05.1-6.27.17-8.18,1.41C181.74,73.91,183,77.7,184.11,79.76Z"/><polygon class="d" points="185.01 91.14 184.62 97.24 187.97 97.24 190.21 91.69 189.29 97.24 192.23 97.24 195.63 91.14 185.01 91.14"/><path class="e" d="M198.07,90.73a13.54,13.54,0,0,0,.59-2.42c-1,.7-3.87,1.29-7.27,1.36a50.37,50.37,0,0,0,.11-10.77l-2,.2a47.62,47.62,0,0,1-.13,10.54c-4.12-.18-8.59-1.18-11.34-3.63a1,1,0,0,0-1.34,1.5c3.41,3,9.13,4.16,14.13,4.16A25.4,25.4,0,0,0,198.07,90.73Z"/><path class="b" d="M125.26,271.62c.63,1.72,1.4,3.54,2.25,5.41s1.81,3.76,2.82,5.63a13.59,13.59,0,0,0,7,6.29,2.53,2.53,0,0,0,3.06-.73,2.34,2.34,0,0,0,.68-2,4.57,4.57,0,0,1,0-.64,11.41,11.41,0,0,0-3.32-8.54c-3.91-4-5.89-9.9-7.09-15.81a60.3,60.3,0,0,1-.21-21.1,84.12,84.12,0,0,1,5.32-19.85c.71-1.7,1.46-3.4,2.26-5.08s-3.73-7.89-6.72-2.69a46.46,46.46,0,0,0-2,4.5c-.87,2-1.69,4-2.44,6s-1.36,3.84-1.94,5.79a50.58,50.58,0,0,0-1.41,5.93c-1.17,6.68-2,13.47-1.48,20.26a74.54,74.54,0,0,0,1.13,8.15c.27,1.37.57,2.75.91,4.15S124.82,270.17,125.26,271.62Z"/></svg>