<svg xmlns="http://www.w3.org/2000/svg" viewBox="0 0 300 300"><defs><style>.a{fill:#504b1e;}.b{fill:#7e7b31;}.c{fill:#9f9333;}.d{fill:#fff;}.e{fill:#010101;}.f{fill:#ef392a;}</style></defs><title>Lucinda</title><path class="a" d="M132.56,269.92a8.56,8.56,0,0,1,4.6-2.91l-6.87-2.27-2.17,2.32Z"/><path class="b" d="M117.72,241.09l4.1,1.87a6.77,6.77,0,0,1,3.84,7.5l-3.12,15.67,8.91,6.58,1-1.07a2.28,2.28,0,0,0-.47-3.51L130.14,267h7v-2.48a2.29,2.29,0,0,0-2.29-2.28h-.06a2.28,2.28,0,0,0-2.46-2l-2.94.24,5.35-12.72a6.77,6.77,0,0,0-2.27-8.13l-9.12-6.6Z"/><path class="a" d="M257.1,244.08a8.53,8.53,0,0,1,3-4.55l-7.19.77-1,3Z"/><path class="b" d="M219.57,227l12.77-.74a8.61,8.61,0,0,1,8.42,5.22l5.64,13.27,10.84,2.33.47-1.39a2.28,2.28,0,0,0-1.88-3l-2.14-.27,6.4-2.89-1-2.25a2.29,2.29,0,0,0-3-1.14l-.05,0h0a2.3,2.3,0,0,0-3.06-.81l-2.59,1.43-5.57-13.39a8.61,8.61,0,0,0-7.64-5.29l-19.2-.68Z"/><circle class="c" cx="243.36" cy="137.89" r="4.66"/><path class="c" d="M191.13,181.23c-3.08,3.38-7.43,5.28-11.64,7.08L106.35,219.6c-9.87,4.23-19.82,8.48-30.33,10.7-11.21,2.37-22.78,2.38-34.24,2.37l-28.5,0a2.79,2.79,0,0,0-.61,5.51A428.93,428.93,0,0,0,181,241c10.05-1.81,20.15-4,29.37-8.39s17.62-11.15,22.25-20.25c3.83-7.51,4.89-16.08,6.86-24.28s25.14-27.89,26.73-34.35c1.22-4.95-39.58-27.12-55.43-23.8C193.57,133.55,194.21,177.84,191.13,181.23Z"/><path class="a" d="M183.44,269.87a8.59,8.59,0,0,1,5.09,1.93L186.22,265l-3.15-.34Z"/><path class="c" d="M192,229.52l2.93,10.31a11.55,11.55,0,0,1-4.39,12.56l-10,7.19.09,11.08,1.45.16a2.29,2.29,0,0,0,2.53-2.49l-.21-2.14,4.21,5.61,2-1.49a2.28,2.28,0,0,0,.46-3.2l0-.05h0a2.29,2.29,0,0,0,.13-3.16l-2-2.21,10.3-7.26a11.55,11.55,0,0,0,4.71-11.57l-3.17-17Z"/><path class="a" d="M92,269.07a8.55,8.55,0,0,1,5,2.27l-1.85-7L92,263.79Z"/><path class="c" d="M103.17,229.38l2.66,12.43a8.73,8.73,0,0,1-3.94,9.24L89.71,258.6l-.65,11.07,1.44.25a2.28,2.28,0,0,0,2.68-2.32l-.06-2.15L97,271.34,99,270a2.29,2.29,0,0,0,.67-3.17l0-.05h0a2.29,2.29,0,0,0,.34-3.15l-1.8-2.34,12.31-7.5a8.72,8.72,0,0,0,4.13-8.48l-2.24-19Z"/><path class="d" d="M246.84,137.89a3.48,3.48,0,1,1-3.48-3.47A3.48,3.48,0,0,1,246.84,137.89Z"/><path class="e" d="M244.58,138.21a2.16,2.16,0,1,1-2.16-2.16A2.17,2.17,0,0,1,244.58,138.21Z"/><path class="d" d="M221.52,140.59a3.48,3.48,0,1,1-3.47-3.48A3.47,3.47,0,0,1,221.52,140.59Z"/><path class="e" d="M220.91,140.91a2.16,2.16,0,1,1-2.16-2.16A2.16,2.16,0,0,1,220.91,140.91Z"/><path class="d" d="M219.73,140.24a.37.37,0,0,1-.37.36.36.36,0,0,1-.36-.36.37.37,0,0,1,.36-.37A.38.38,0,0,1,219.73,140.24Z"/><path class="d" d="M243.14,137.18a.36.36,0,1,1-.36-.36A.36.36,0,0,1,243.14,137.18Z"/><path class="a" d="M266.05,152.9a146.67,146.67,0,0,1-48,4l-.12,1.63c11.62.86,23,1.93,33.72.41a92.72,92.72,0,0,0,13.62-3.08,8.25,8.25,0,0,0,.94-2.08A1.39,1.39,0,0,0,266.05,152.9Z"/><path class="f" d="M258.44,149.24c2.13-.16,4.3-.16,6.39-.15,1.92,0,3.9,0,5.83-.12a26.32,26.32,0,0,0,7.43-1.45,17.65,17.65,0,0,0,2.18-12.1.79.79,0,0,1,.6-.92h0a.82.82,0,0,1,1,.64,19.42,19.42,0,0,1-1.37,11.26,14.73,14.73,0,0,0,1.25-.8,10.47,10.47,0,0,0,4.58-9,.8.8,0,0,1,.65-.88h0a.82.82,0,0,1,1,.73,12.13,12.13,0,0,1-5.26,10.46c-3,2.15-6.88,3.35-11.95,3.68-2,.13-4,.13-5.93.12s-4.2,0-6.27.15a40.89,40.89,0,0,0-21.29,8,.82.82,0,0,1-1.14-.14h0a.82.82,0,0,1,.14-1.16A42.52,42.52,0,0,1,258.44,149.24Z"/><path class="a" d="M160.35,215.79a2.71,2.71,0,1,0,2.71-2.7A2.7,2.7,0,0,0,160.35,215.79Z"/><path class="a" d="M169.09,206.26a4.38,4.38,0,1,0-4.38,4.38A4.39,4.39,0,0,0,169.09,206.26Z"/><path class="a" d="M175.8,189.89l-7.1,3a4.38,4.38,0,0,0,7.1-3Z"/><path class="a" d="M158,210.64A4.38,4.38,0,1,0,153.6,215,4.38,4.38,0,0,0,158,210.64Z"/><path class="a" d="M191.84,187.6a4.37,4.37,0,0,0-3.11-4.19,31,31,0,0,1-5.55,3.26,4.73,4.73,0,0,0-.1.93,4.38,4.38,0,0,0,8.76,0Z"/><path class="a" d="M176.52,199.18a2.71,2.71,0,1,0,2.71-2.7A2.7,2.7,0,0,0,176.52,199.18Z"/><path class="a" d="M147.9,223.8a2.71,2.71,0,1,0,2.7-2.7A2.7,2.7,0,0,0,147.9,223.8Z"/><path class="a" d="M185.79,205.23a1.68,1.68,0,1,0,1.67,1.67A1.67,1.67,0,0,0,185.79,205.23Z"/><path class="a" d="M110,228.18a1.87,1.87,0,1,0,1.87-1.87A1.87,1.87,0,0,0,110,228.18Z"/><path class="a" d="M102,221.45a6.11,6.11,0,0,0,9.83-4.2l-5.5,2.35Z"/><path class="a" d="M175.82,206.26a6.12,6.12,0,1,0,6.11,6.12A6.12,6.12,0,0,0,175.82,206.26Z"/><path class="a" d="M115,220.37a2.71,2.71,0,1,0,2.71-2.71A2.7,2.7,0,0,0,115,220.37Z"/><path class="a" d="M125.9,216.62a1.88,1.88,0,1,0,1.88,1.87A1.87,1.87,0,0,0,125.9,216.62Z"/><path class="a" d="M153.6,201.88a2.7,2.7,0,0,0,2.71-2.7,2.65,2.65,0,0,0-.16-.89l-5,2.13A2.69,2.69,0,0,0,153.6,201.88Z"/><path class="a" d="M130.06,209.67a6.12,6.12,0,1,0,10.17-4.56l-10.16,4.35A1.48,1.48,0,0,0,130.06,209.67Z"/><path class="a" d="M131.79,228.18a4.38,4.38,0,1,0-4.37-4.38A4.38,4.38,0,0,0,131.79,228.18Z"/></svg>