<svg xmlns="http://www.w3.org/2000/svg" viewBox="0 0 300 300"><defs><style>.a{fill:#010101;}.b{fill:#daaf28;}.c{fill:#027f7b;}.d{fill:#dce6d0;}.e{fill:#e4ce87;}.f{fill:#f0e5d5;}.g{fill:#fff;}</style></defs><title>Olivia</title><path class="a" d="M147.63,268.09c-1.68,3.13-8.95,4.7-12.12,6.46a15.58,15.58,0,0,0-5.67,4.74c3.27-1.56,6.71-2.92,10.11-4.25,4.24-1.66,7.85-1.69,12.85-2.24a63,63,0,0,1,7.16-.48c-2.21-2.32-6.08-2.48-7.33-5.37-.73-1.7-1.75-10.81-1.88-12.9-4.24-1.3-2.47,4.17-2.19,6.29C148.92,263.17,149,265.46,147.63,268.09Z"/><path class="a" d="M186.61,273.8c-1.67,3.13-9.74,3.73-12.91,5.49-2.23,1.24-3.42,3.57-4.87,5.71,3.26-1.56,6.71-2.92,10.1-4.25,4.24-1.66,7.85-1.69,12.86-2.24a60.6,60.6,0,0,1,7.15-.47c-2.2-2.33-6.07-2.48-7.32-5.38-.74-1.7-1.76-10.81-1.89-12.9-4.23-1.3-2.46,4.17-2.19,6.29C187.91,268.88,188,271.17,186.61,273.8Z"/><path class="b" d="M98.18,61.39c-25,5.27-28.79,29.56-18.07,49.93,5.2,9.89,13.16,17,22.13,23.43C93.87,148.68,92,163.34,92.18,180.38c.17,15.86,5.79,32.34,17,47,9.58,12.55,23,31.34,38.46,30.26,6.3-.44,11.94-4.18,18.38-2.66s11.51,7.06,18.41,7.72c17.37,1.68,39-14,47.09-20.84-9.74-14.81-45.69-66.88-33.69-97,18.87-6.62,30.13-24.16,26.63-40.14-3.76-17.12-12.35-26-30.36-35C178,61.68,135.79,53.47,98.18,61.39Z"/><path class="c" d="M98.71,46.35C90.93,44,84.25,37,87,29.22c3.48-9.69,5.75,9.1,16.39,9.81-2.6-1.16-7.14-7.92-8.39-14.7-1.3-7,3.14-12.15,5.66-13.24,9-3.91,3.19,9.06,6.66,19.49,2.28,6.83,6.43,8.27,14,7.18,24.32-3.49,54.11-3.49,87.76,20,9.74,3.86,14.81-3.13,19-9.85,4.87-7.83,17.36-7.14,11.61,3.23-3.39,6.11-12.65,11.8-19,14.24,5.71,4.16,19.67-8.36,21.18-.91,1.81,8.92-15.92,9.5-20.48,9.06,9.27,15.74,10,35.35,2.13,46-.77-23-13-38.2-27.93-42.92-11.91-3.75-36.92-7-51.2,18.38-2.23-13.53-9.67-26.21-21.66-31.21-13.65-5.7-25.19-4.07-35.71,4-7.57,5.79-12.06,15.65-12.61,19.95C72.56,72.67,85.3,51.15,98.71,46.35Z"/><path class="c" d="M174.84,148c-9.94,7.69-14.71,17.93-14.71,35.81,0,15.55,13.9,47.68,51.65,55.95,12.84,2.82,36.08,5.3,45,1.68-16.18-16.57-33.35-66.08-40.45-80.63C206,139.77,184.88,140.26,174.84,148Z"/><path class="d" d="M176,207.61c5.76,3,11.66,0,10.24-6.72A51.54,51.54,0,0,0,183,192.4c.78,3.7,3.07,11.32-1.69,13.37-4.61,2-8.5-4-10.7-7-1.42-2-2.7-4.11-4.14-6.07C167.84,197.74,171.12,205.06,176,207.61Z"/><path class="d" d="M199.45,206.1c5.09,2.7,9.67.69,9.12-5.4a32,32,0,0,0-2.51-8.6c.29,3.41,2.6,10.6-2.78,11.76-4.08.88-7.45-2.66-9.4-5.35-1.18-1.62-3.09-4.85-4.38-6.39a24.88,24.88,0,0,0,4.11,8.46A16.43,16.43,0,0,0,199.45,206.1Z"/><path class="d" d="M201.49,227.21c5.51,1.44,9.33-2,7.28-7.49-.88-2.35-2.82-3.95-4.23-6,2.1,4.3,4.15,8.78-.09,10.52-3.73,1.53-7.48-1.14-9.78-3.42-1.38-1.36-2.7-3.7-3.91-5.21C192.88,221.61,196.28,225.84,201.49,227.21Z"/><path class="d" d="M222.06,202c5,1.26,7.3.41,6.57-4.73-.36-2.56-2.44-5.42-3.72-7.23,1.9,3.79,3.76,7.75-.13,9.31-3.42,1.38-6.84-1-8.94-3a56.67,56.67,0,0,1-3.55-4.59C214.2,197.07,217.29,200.8,222.06,202Z"/><path class="d" d="M227.73,218.57c5.32-1.48,3.2-7.32-.58-11.86,2.46,5.48,2.46,9.93-3.31,9.23-3.54-.43-6.22-4.57-8.87-6.7a22.11,22.11,0,0,0,5.12,6.39C222.12,217.39,224.89,219.36,227.73,218.57Z"/><path class="d" d="M227.78,232.36c4.43-1.84,1.21-7-.62-9.75,2.28,2.6,7.41,7.79,3.94,11.25s-9.26.42-12-2.21a24.16,24.16,0,0,1-4-5.51C219.19,228.6,222,234.74,227.78,232.36Z"/><path class="e" d="M136.32,90.92A27.89,27.89,0,1,1,108.44,63,27.88,27.88,0,0,1,136.32,90.92Z"/><circle class="f" cx="108.44" cy="90.92" r="24.39"/><circle class="a" cx="115.93" cy="95.52" r="7.62"/><path class="g" d="M121.22,94.52A2.48,2.48,0,1,1,118.74,92,2.49,2.49,0,0,1,121.22,94.52Z"/><path class="e" d="M212.32,104.16a28.71,28.71,0,1,1-28.71-28.71A28.71,28.71,0,0,1,212.32,104.16Z"/><path class="f" d="M208.73,104.16A25.12,25.12,0,1,1,183.61,79,25.11,25.11,0,0,1,208.73,104.16Z"/><path class="a" d="M181.61,105.4a7.84,7.84,0,1,1-7.84-7.84A7.84,7.84,0,0,1,181.61,105.4Z"/><path class="g" d="M173.77,103.78a2.56,2.56,0,1,1-2.56-2.56A2.56,2.56,0,0,1,173.77,103.78Z"/><path class="a" d="M148,114.93c-2.34,3.18-10.43,10.88-13.23,10.51-1.46-.2-2.52-11.72-1.17-14a15.24,15.24,0,0,0,5.55,2.9C142.22,115.18,144.89,115,148,114.93Z"/><path class="f" d="M103.48,147.15c-2,1.11-4.17,4-3.74,6.36.26,1.49,2.21,1.73,3.17.84a7.66,7.66,0,0,0,1.36-2.74c.38-.84.66-1.77,1.1-2.58a1.39,1.39,0,0,0-1.89-1.88Z"/><path class="f" d="M114.66,154.08a16.08,16.08,0,0,0-1.55,3.4c-.41,1.18-1,2.6,0,3.6a1.21,1.21,0,0,0,1.41.18c1.15-.5,1.11-1.94,1.39-3s.7-2.14,1-3.23a1.23,1.23,0,0,0-2.23-.94Z"/><path class="f" d="M127.69,157.13a11.22,11.22,0,0,0-2.2,5.47c-.34,1.87,2.42,2.7,2.89.8s.87-4.16.26-6a.58.58,0,0,0-.95-.25Z"/><path class="f" d="M139.61,158.69a10.38,10.38,0,0,0-.19,3.38,7.51,7.51,0,0,0,1,3.83c.66.87,2.33,1,2.6-.34a8.17,8.17,0,0,0-.38-3.46c-.29-1.14-.5-2.27-.81-3.41a1.15,1.15,0,0,0-2.2,0Z"/><path class="f" d="M154.32,157.67c.14,1.74.49,3.42.75,5.14.21,1.43.15,3,1.59,3.75a.79.79,0,0,0,.93-.12c1.11-1.09.73-2.46.45-3.84a18.16,18.16,0,0,0-1.81-5.44,1,1,0,0,0-1.91.51Z"/><path class="f" d="M105.47,160.14c-.75,1.79-1.75,4.66-.85,6.52a1.43,1.43,0,0,0,2.46,0,7.53,7.53,0,0,0,.48-2.87,12.38,12.38,0,0,1,.71-2.88,1.46,1.46,0,0,0-1-1.79,1.48,1.48,0,0,0-1.78,1Z"/><path class="f" d="M118,166.33a9.36,9.36,0,0,0-.33,2.74c0,1.12-.19,2.1.54,3a1.21,1.21,0,0,0,1.71,0,3.8,3.8,0,0,0,.54-2.82,10.13,10.13,0,0,0-.34-3,1.11,1.11,0,0,0-2.12,0Z"/><path class="f" d="M132.26,168.37a10.63,10.63,0,0,0-.61,2.79c-.14,1-.37,1.93-.49,2.9-.21,1.67,2.33,1.83,2.81.38a10.32,10.32,0,0,0,.22-2.94c0-1,0-1.91-.05-2.88a1,1,0,0,0-1.88-.25Z"/><path class="f" d="M149,169.42c-.69,1.7-.16,3.65.39,5.33s3.35.92,2.71-.75-.77-3.26-1.45-4.8c-.35-.81-1.4-.41-1.65.22Z"/><path class="f" d="M96.43,170.17a12.86,12.86,0,0,0-.36,5.79,1.24,1.24,0,1,0,2.45-.33,26.79,26.79,0,0,0-.85-5.46.65.65,0,0,0-1.24,0Z"/><path class="f" d="M111.06,175.06a7.73,7.73,0,0,0-.52,5.56,1.35,1.35,0,0,0,1.33,1,1.3,1.3,0,0,0,.69-.18,1.38,1.38,0,0,0,.63-1.56c-.53-1.52-.49-3.16-1-4.69a.63.63,0,0,0-1.13-.14Z"/><path class="f" d="M125.73,177a9,9,0,0,0-.16,7.17,1.36,1.36,0,0,0,2.62-.72c-.41-2.09-.77-4.21-1.24-6.29a.67.67,0,0,0-1.22-.16Z"/><path class="f" d="M141,177.06c-1.38,1.79-1.35,5.38.28,7a1.4,1.4,0,0,0,2.33-.61,6.75,6.75,0,0,0-.32-2.85,19.28,19.28,0,0,0-.58-3.12c-.24-.62-1.18-1.13-1.71-.45Z"/><path class="f" d="M102.22,189.24a21.93,21.93,0,0,0-.31,5.13c0,2,3.2,2,3.14,0a20.9,20.9,0,0,0-.31-5.13,1.32,1.32,0,0,0-2.52,0Z"/><path class="f" d="M117.46,190.73c-.76,2-.48,5.54,1.39,6.83a1.36,1.36,0,0,0,2-1.17,8.13,8.13,0,0,0-.72-2.61c-.33-1-.48-2.06-.88-3.05a1,1,0,0,0-1.83,0Z"/><path class="f" d="M133.84,190.53a6.23,6.23,0,0,0,1.56,7.09,1.43,1.43,0,0,0,2.14-1.23,11.27,11.27,0,0,0-1-3,15.2,15.2,0,0,0-1.12-2.85.91.91,0,0,0-1.56,0Z"/><path class="f" d="M153.47,188.53c-1.34.78-.56,3.43-.34,4.6A9,9,0,0,0,154,196a1.86,1.86,0,0,0,1,.88c.86.24-.35-.09.45.15a.69.69,0,0,0,.75-.31c1.14-1.52.2-3.49-.24-5.15-.25-.91-.91-4-2.47-3.05Z"/><path class="f" d="M112,205.2a8.84,8.84,0,0,0,.69,3.74c.49,1.37,1,2.91,2.35,3.69,1.16.68,3-.47,2.43-1.87-.48-1.21-1.3-2.26-1.85-3.45a6.59,6.59,0,0,0-2.19-2.94,1,1,0,0,0-1.43.83Z"/><path class="f" d="M145.46,202.55a7.86,7.86,0,0,0,.32,3.75c.32,1.38.58,3,1.73,4a1.21,1.21,0,0,0,2-.53,5.87,5.87,0,0,0-.44-3.79,9.06,9.06,0,0,0-1.85-3.86,1.05,1.05,0,0,0-1.75.46Z"/><path class="f" d="M138.77,212.44a5.48,5.48,0,0,0,.15,3.72c.4,1.32.67,3.44,2.28,3.76a1.62,1.62,0,0,0,1.74-.71c.89-1.17-.13-2.82-.56-4s-1.1-2.72-2.4-3.25a1.06,1.06,0,0,0-1.21.49Z"/><path class="f" d="M127.32,203.32c-.44,1.65.13,4,.72,5.52a1.31,1.31,0,0,0,2.53-.69,23.86,23.86,0,0,0-.88-2.63,25.19,25.19,0,0,0-.8-2.41.87.87,0,0,0-1.57.21Z"/><path class="d" d="M150.08,65.33a5.86,5.86,0,0,0-1.94,3,15,15,0,0,0-1.26,5,1.35,1.35,0,0,0,2.65.35c.43-1.34.61-2.77,1-4.14.33-1.09,1-2.33.87-3.49a.9.9,0,0,0-1.33-.76Z"/><path class="d" d="M139.92,57.4c-1,1.68-.9,3.92-.84,5.8,0,1.51,0,3.89,1.55,4.62a.76.76,0,0,0,.9-.11c1-1.12.46-2.47.28-3.83-.26-2,.06-4-.08-6a1,1,0,0,0-1.81-.49Z"/><path class="d" d="M164.18,59.94c-1.54.5-2.43,2-3.31,3.29a48,48,0,0,0-2.8,5c-1,1.94,2,3.66,2.91,1.7.74-1.57,1.51-3.13,2.27-4.69.67-1.36,1.75-2.59,2.2-4a1,1,0,0,0-1.27-1.27Z"/><path class="d" d="M147.54,49.19a15.26,15.26,0,0,0-1.06,3.4,38,38,0,0,0-1.07,4.33,1.32,1.32,0,1,0,2.61.36c.33-2.44,1.94-5.43,1.18-7.88a.92.92,0,0,0-1.66-.21Z"/><path class="d" d="M131.79,43.75a23.89,23.89,0,0,0,.58,5.38c.14.95.62,3.07,2.08,2.67s.9-2.48.74-3.44c-.28-1.7-.26-3.73-1.27-5.18a1.15,1.15,0,0,0-2.13.57Z"/><path class="d" d="M173.49,48.71c-1.25-.27-2.63.7-3.6,1.4-1.28.93-3,2-3.79,3.41A1.4,1.4,0,0,0,168,55.43a20.84,20.84,0,0,0,3-2.69c.89-.8,2.1-1.41,2.91-2.27a1.06,1.06,0,0,0-.46-1.76Z"/><path class="d" d="M163.13,45.38c.34-.11.8,0,1.18-.17a10.76,10.76,0,0,0,1.65-1.1c1-.8,2.58-1.6,3-2.92a.55.55,0,0,0-.52-.69c-1.31-.16-2.55,1.12-3.46,1.87-.54.44-1,.91-1.54,1.4-.26.26-.46,1-.62,1.14s0,.56.28.47Z"/><path class="d" d="M174.18,63c1.5-.86,3-1.78,4.53-2.53s3-.85,3.68-2.44a.72.72,0,0,0-.12-.89c-1.58-1.25-3.05-.48-4.7.31A14.78,14.78,0,0,0,172.66,61a1.26,1.26,0,0,0,1.52,2Z"/><path class="d" d="M129.49,55.15c-.49-1-1.59-1.84-2.26-2.78s-1-2.68-2.31-3a1.06,1.06,0,0,0-1,.27c-1.18,1.35.11,3.28,1,4.49s2.53,2.78,4.14,2.23a.86.86,0,0,0,.51-1.24Z"/><path class="d" d="M155.67,59.58c1-.69,1.56-2.15,2.18-3.18s1.94-2.1,2.09-3.52a1.27,1.27,0,0,0-1.29-1.29c-1.6.18-2.44,1.65-3.26,2.91s-1.79,3-1.39,4.4a1.15,1.15,0,0,0,1.67.68Z"/><path class="d" d="M143.25,46.57c1-.39,1-1.4,1-2.36a27.65,27.65,0,0,0-.33-4.05c-.22-1.91-3.06-2-3.06,0,0,1,.64,7.08,2.37,6.41Z"/><path class="d" d="M155.36,45.71A11.71,11.71,0,0,0,156.73,43,8.38,8.38,0,0,0,158,40.15a1.05,1.05,0,0,0-1.57-.9A5.49,5.49,0,0,0,154.53,42a4.81,4.81,0,0,0-.6,3.3.86.86,0,0,0,1.43.37Z"/><path class="d" d="M179.28,51.81c1.08.42,2.29-.1,3.36-.39s2.45-.11,3.33-1a1.13,1.13,0,0,0,0-1.6c-1.05-.94-2.38-.49-3.63-.16s-2.89.79-3.52,2a.79.79,0,0,0,.46,1.13Z"/><path class="d" d="M127.52,44.84a4.56,4.56,0,0,1,0-.89,4.64,4.64,0,0,0-.68-1.67,13,13,0,0,0-2.19-3.58,1.24,1.24,0,0,0-2.05,1.19c.17,1.2,1.17,2.32,1.84,3.3a12.31,12.31,0,0,0,1.28,1.51c.36.37.86.28,1.24.55s.6-.12.53-.41Z"/><path class="d" d="M187.75,54.55a2.37,2.37,0,0,0,1.4-.25c.61-.18,1.27-.24,1.89-.37,1-.23,2.54-.2,3.24-1.12a.5.5,0,0,0-.08-.61c-.9-.81-2.64-.46-3.72-.3s-3,.67-3.2,1.83a.69.69,0,0,0,.47.82Z"/></svg>