<svg xmlns="http://www.w3.org/2000/svg" viewBox="0 0 300 300"><defs><style>.a{fill:#ccc;}.b{fill:#a3a3a2;}.c{fill:#c0bebe;}.d{fill:#fff;}.e{fill:#010101;}.f{fill:#e2e2e2;}.g{fill:#dddcdb;}</style></defs><title>Roberto</title><path class="a" d="M106.78,13.75a83.45,83.45,0,0,1,35.61,37.31c7.37,15.43,6.6,51,6.6,51l-5.42,2.25S124.2,74.15,120.4,65.88a155.17,155.17,0,0,1-9.17-25.71q-1.76-6.73-2.89-13.6C108.09,25.06,107.7,14.24,106.78,13.75Z"/><path class="b" d="M117.23,43.65c-1.19-2.87-2-6.91.68-8.47,1.52-.89,3.49-.41,5,.43,5.19,2.83,7.58,8.87,9.44,14.48,5.06,15.31,11.3,32.94,12.19,49.09C134,81.5,125.13,62.64,117.23,43.65Z"/><path class="c" d="M104.23,210.13c-.08,1.68-.08,3.51,0,5.4s.19,3.84.39,5.79a12.47,12.47,0,0,0,3.7,7.84,2.32,2.32,0,0,0,2.85.47,2.12,2.12,0,0,0,1.28-1.42,5.14,5.14,0,0,1,.2-.55,10.43,10.43,0,0,0,1-4.21,10.8,10.8,0,0,0-.77-4.24c-1.88-4.81-1.46-10.5-.38-16a55.85,55.85,0,0,1,7.36-18,78.19,78.19,0,0,1,11.61-14.95c1.22-1.19,2.46-2.37,3.74-3.5s-.35-8-4.74-4.7a44,44,0,0,0-3.29,3.12q-2.18,2.06-4.23,4.24t-3.71,4.22a45.87,45.87,0,0,0-3.32,4.54,73.68,73.68,0,0,0-8.5,16.68,69.6,69.6,0,0,0-2,7.32c-.26,1.26-.5,2.54-.71,3.86S104.37,208.74,104.23,210.13Z"/><path class="c" d="M138.39,264.38a169.68,169.68,0,0,1-.76-19.13c0-1.76,0-3.52-.06-5.29-2.08,0-4.17,0-6.25,0h-1.58q0,.86,0,1.71c.17,5.61-.11,11.22.29,16.83.17,2.24.35,4.48.58,6.78.11,1.16.22,2.32.34,3.51s.25,2.41.38,3.66c.26,1.5.58,3.12.9,4.8s.66,3.43,1,5.18a12.73,12.73,0,0,0,4.11,7.19,2.86,2.86,0,0,0,3.12.59,2.19,2.19,0,0,0,1.48-1.33,3,3,0,0,1,.24-.54,8.65,8.65,0,0,0,1.1-4.23,8.83,8.83,0,0,0-1.13-4.24C139.66,275.28,139,269.82,138.39,264.38Z"/><path class="c" d="M185,241.25l-7.77-.16c0,3.14,0,5.71.06,7.15.15,6,.47,11.92.13,17.89-.29,5.13-.49,10.26-2.56,14.89a7.49,7.49,0,0,0,.81,7.9,5.4,5.4,0,0,1,.3.47,2,2,0,0,0,1.6,1,3.1,3.1,0,0,0,3-1,12.21,12.21,0,0,0,3.35-7.12c.33-3.27.72-6.53,1-9.32.15-4.61.31-8.73.4-12.86.12-5.15-.39-10.27-.34-15.42C185.08,243.56,185.05,242.41,185,241.25Z"/><path class="a" d="M117.18,109.09A47.66,47.66,0,0,1,134.3,98c12.08-4.69,27.34,2.07,32,14.16,3.4,8.88,47.16,103.38,20.4,130.88-6.82,7-17,9.16-26.75,9.84s-22.81,0-30.38-6.29c-20.38-16.82-13.3-37.86,1-82.11.92-2.85,2.16-6,.44-8.45-1.22-1.72-13.1-8.8-14.87-9.94C96.4,133.5,105.56,121.19,117.18,109.09Z"/><path class="d" d="M143.94,107.34a3.24,3.24,0,1,1-3.32-3.15A3.23,3.23,0,0,1,143.94,107.34Z"/><path class="e" d="M143.17,107.42a2,2,0,1,1-2.07-2A2,2,0,0,1,143.17,107.42Z"/><path class="d" d="M142.05,106.82a.34.34,0,0,1-.68,0,.34.34,0,0,1,.33-.34A.34.34,0,0,1,142.05,106.82Z"/><path class="d" d="M128.86,107.12a3.24,3.24,0,1,1-3.33-3.15A3.23,3.23,0,0,1,128.86,107.12Z"/><path class="e" d="M128.29,107.43a2,2,0,1,1-2.07-2A2,2,0,0,1,128.29,107.43Z"/><path class="d" d="M127.17,106.84a.34.34,0,0,1-.67,0,.34.34,0,1,1,.67,0Z"/><path class="f" d="M134.85,130.68c.21,7.4-4.57,14.24-12.46,19.33-2.88-1.81-5.54-3.42-6.31-3.91-18-11.56-11.84-22.86-1.72-34C127.74,108.87,134.61,121.93,134.85,130.68Z"/><path class="e" d="M117.78,124.35a9,9,0,0,1-1.75,2.58c-2,1.9-5.6,2-8.17.22a7.48,7.48,0,0,1-3.14-7.75,4.1,4.1,0,0,1,1.75-2.5,6.13,6.13,0,0,1,3.24-.59c1.86,0,5.69,0,7.46,1.07C119.78,119,118.71,122.46,117.78,124.35Z"/><polygon class="d" points="117.25 134.7 117.76 140.22 114.72 140.31 112.55 135.33 113.51 140.34 110.85 140.42 107.61 134.97 117.25 134.7"/><path class="e" d="M105.38,134.66a12.71,12.71,0,0,1-.59-2.19c.92.62,3.54,1.08,6.63,1.05a45.58,45.58,0,0,1-.37-9.77l1.83.13a43.14,43.14,0,0,0,.38,9.57c3.73-.27,7.77-1.29,10.2-3.58a.92.92,0,0,1,1.3,0,.91.91,0,0,1,0,1.29c-3,2.86-8.19,4-12.72,4.14A23.24,23.24,0,0,1,105.38,134.66Z"/><path class="g" d="M150.27,244.21c4.22,0,9,0,13.8-.23,5.28-.22,16.58-7.82,15.45-22.81-.63-8.25-.38-16.74-1.71-24.76s-4-15.72-9.22-21.29A23.59,23.59,0,0,0,147,167.87c-2.35.43-14.08,4.29-17.92,25.74S126.53,244.15,150.27,244.21Z"/><path class="d" d="M166.27,186.13c-.16-.61-.31-1.55-.56-2.86s-.45-2.23-.52-2.86,0-.93.16-1c.34-.09,1.27,1.53,1.67,3.67s.12,3.92-.23,3.91C166.6,187,166.43,186.74,166.27,186.13Z"/><path class="d" d="M158.64,191.14c-.18,0-.39-.23-.58-.81a9.75,9.75,0,0,1-.4-2.76,10,10,0,0,1,.24-2.76c.16-.59.36-.85.54-.83.37,0,.48,1.62.54,3.57S159,191.1,158.64,191.14Z"/><path class="d" d="M149.72,186.54c-.37,0-.56-1-.31-3.17s.64-3.1,1-3.07.5,1.44.3,3.17S150.08,186.56,149.72,186.54Z"/><path class="d" d="M150.77,197.79c-.36,0-.75-1-1-3.29s0-3.34.36-3.36.79,1.45.95,3.29S151.14,197.77,150.77,197.79Z"/><path class="d" d="M163.41,192.91c0-1.7.23-2.43.6-2.44s.69,1.08.72,2.42-.23,2.43-.59,2.44S163.46,194.61,163.41,192.91Z"/><path class="d" d="M157.39,195.84c.37,0,.85,2.1,1.09,4.74s.13,4.79-.23,4.82-.79-1.41-1.09-4.75S157,195.86,157.39,195.84Z"/><path class="d" d="M171.43,196c-.18,0-.33-.19-.46-.56s-.23-.91-.41-1.68-.35-1.31-.4-1.69,0-.58.17-.65.46.13.76.51a4.34,4.34,0,0,1,.76,1.63,3.85,3.85,0,0,1,.05,1.74C171.8,195.75,171.61,196,171.43,196Z"/><path class="d" d="M166.37,205.42c-.37,0-.75-.75-1-2.61s0-2.68.35-2.71.79,1.14,1,2.61S166.73,205.39,166.37,205.42Z"/><path class="d" d="M175.06,195.78c.36,0,.75,1.8.87,4s-.08,3.95-.45,3.94-.71-1.22-.86-4S174.7,195.77,175.06,195.78Z"/><path class="d" d="M144,191.49c-.18,0-.32-.27-.41-.8a21.59,21.59,0,0,1-.13-2.47,20.36,20.36,0,0,1,0-2.48c.07-.54.19-.8.38-.81.35,0,.87,1.42.91,3.27S144.38,191.52,144,191.49Z"/><path class="d" d="M139.34,176.46c-.36-.07-.44-.88,0-2.65s1-2.48,1.34-2.42.33,1.25-.05,2.65S139.7,176.52,139.34,176.46Z"/><path class="d" d="M144.16,202.67c-.18,0-.39-.18-.59-.67a6.34,6.34,0,0,1-.32-2.35,6.23,6.23,0,0,1,.48-2.34c.22-.48.45-.67.63-.64.36.07.26,1.4.21,3S144.52,202.61,144.16,202.67Z"/><path class="d" d="M139,209.7c-.17,0-.39-.18-.58-.67a6.19,6.19,0,0,1-.32-2.36,6.41,6.41,0,0,1,.47-2.33c.23-.48.46-.67.63-.64.37.07.26,1.4.22,3S139.38,209.64,139,209.7Z"/><path class="d" d="M134,203.44c-.18,0-.4-.18-.59-.67a6.13,6.13,0,0,1-.32-2.35,6.23,6.23,0,0,1,.48-2.34c.22-.48.45-.67.63-.64.36.07.26,1.4.21,3S134.4,203.38,134,203.44Z"/><path class="d" d="M130.1,209.51c-.17,0-.39-.18-.58-.67a7.05,7.05,0,0,1,.16-4.68c.22-.48.45-.68.62-.64.37.07.26,1.39.22,3S130.47,209.46,130.1,209.51Z"/><path class="d" d="M134.41,214c-.18,0-.39-.18-.58-.67a5.94,5.94,0,0,1-.32-2.35,6.26,6.26,0,0,1,.47-2.34c.23-.48.46-.67.63-.64.36.07.26,1.4.22,3S134.78,214,134.41,214Z"/><path class="d" d="M130.82,196.58c-.18,0-.39-.18-.59-.67a6.3,6.3,0,0,1-.32-2.35,6.23,6.23,0,0,1,.48-2.34c.22-.47.45-.67.63-.64.36.07.26,1.4.21,3S131.19,196.53,130.82,196.58Z"/><path class="d" d="M145.23,178.12c-.17.37-.38.58-.56.56s-.31-.2-.38-.53a15.75,15.75,0,0,1,0-3.07c.07-.34.2-.51.38-.54s.39.19.57.56a4,4,0,0,1,.3,1.51A3.78,3.78,0,0,1,145.23,178.12Z"/><path class="d" d="M159,179.33c-.37,0-.67-.55-.68-1.82s.27-1.83.63-1.83.67.81.69,1.82S159.36,179.32,159,179.33Z"/><path class="d" d="M148.28,205.42c.08-2,.41-2.8.78-2.79s.6,1.28.54,2.83-.42,2.79-.79,2.78S148.19,207.38,148.28,205.42Z"/><path class="d" d="M129.9,218.2c-.34-1.94-.2-2.82.16-2.89s.86,1.11,1.14,2.63.2,2.82-.15,2.89S130.25,220.13,129.9,218.2Z"/><path class="d" d="M133.11,227.35c-.34-1.93-.2-2.82.16-2.89s.87,1.11,1.14,2.64.21,2.82-.15,2.89S133.46,229.28,133.11,227.35Z"/><path class="d" d="M152.24,178.74c-.18,0-.33-.25-.42-.74a18.76,18.76,0,0,1-.21-2.28,18.48,18.48,0,0,1-.08-2.28c0-.49.14-.74.32-.76.35-.06,1,1.27,1.07,3S152.6,178.76,152.24,178.74Z"/><path class="d" d="M167.58,177.73c-.17.06-.4,0-.69-.32a15.89,15.89,0,0,1-1.18-1.35,15.64,15.64,0,0,1-1.1-1.39c-.21-.33-.24-.54-.11-.64s.47,0,.91.23a5.68,5.68,0,0,1,1.4,1.2,4.53,4.53,0,0,1,.85,1.51C167.78,177.39,167.74,177.68,167.58,177.73Z"/><path class="d" d="M144.72,211c.37,0,.51,1.42.32,3.11s-.64,3-1,3-.55-1-.31-3.11S144.36,211,144.72,211Z"/><path class="d" d="M154,206.73c.35,0,.86,1.31.92,3s-.32,3.07-.68,3.05-.57-.93-.64-3S153.61,206.77,154,206.73Z"/><path class="d" d="M162.47,212.82c-.36,0-.65-.9-.64-3s.31-3,.67-3,.65,1.34.65,3S162.84,212.82,162.47,212.82Z"/><path class="d" d="M173.2,209.16c-.18,0-.31-.23-.38-.64s-.11-1-.18-1.88-.14-1.48-.13-1.89.1-.64.28-.67.43.2.67.65a4.86,4.86,0,0,1,.5,1.84,4.79,4.79,0,0,1-.2,1.87C173.6,208.91,173.38,209.18,173.2,209.16Z"/><path class="d" d="M176.19,218.72c-.18,0-.34-.2-.47-.64a12,12,0,0,1-.35-2,12.48,12.48,0,0,1-.13-2c0-.45.14-.68.32-.7.35-.06.95,1.12,1.13,2.65S176.56,218.73,176.19,218.72Z"/><path class="d" d="M167.9,216a10,10,0,0,1,.2-1.63c.09-.36.22-.53.41-.55s.38.22.53.63a4.11,4.11,0,0,1,.18,1.62,4.23,4.23,0,0,1-.45,1.58c-.21.39-.45.6-.62.57s-.29-.23-.32-.59A9.2,9.2,0,0,1,167.9,216Z"/><path class="d" d="M156.21,221.21c-.37,0-.57-.8-.35-2.51s.61-2.42,1-2.39.51,1.15.34,2.5S156.57,221.24,156.21,221.21Z"/><path class="d" d="M148.07,218.91c.11-.54.26-.79.44-.8.36,0,.76,1.49.58,3.36s-.86,3.31-1.21,3.25c-.18,0-.27-.3-.28-.84a20.72,20.72,0,0,1,.18-2.49A24.89,24.89,0,0,1,148.07,218.91Z"/><path class="d" d="M143.18,226.31c-.09-2.29.16-3.29.52-3.3s.73,1.45.8,3.26-.15,3.28-.51,3.29S143.28,228.6,143.18,226.31Z"/><path class="d" d="M163.22,220.19c.36,0,.76,1.36.88,3.06s-.07,3.11-.44,3.12-.72-.9-.88-3.06S162.86,220.21,163.22,220.19Z"/><path class="d" d="M173.62,219.85c.36,0,.57,1.23.46,2.72s-.49,2.67-.85,2.66-.6-.84-.47-2.72S173.26,219.83,173.62,219.85Z"/><path class="d" d="M168,225.76c.36,0,.69,1.43.73,3.21s-.23,3.22-.59,3.23-.68-1-.73-3.21S167.67,225.76,168,225.76Z"/><path class="d" d="M156.71,229.14a6.74,6.74,0,0,1,.53-1.13c.35-.56.65-.77.82-.72.34.12-.2,1.71-.45,3.68s-.14,3.62-.51,3.68c-.17,0-.41-.23-.61-.84a5.32,5.32,0,0,1-.23-1.2,8.1,8.1,0,0,1,0-1.75A8.37,8.37,0,0,1,156.71,229.14Z"/><path class="d" d="M150.2,229.81c.37,0,.67,1.44.69,3.22s-.27,3.23-.63,3.23-.67-1-.69-3.22S149.84,229.81,150.2,229.81Z"/><path class="d" d="M144.36,233.38c.36,0,.64,1.29.61,2.87s-.34,2.85-.7,2.85-.65-.87-.62-2.87S144,233.37,144.36,233.38Z"/><path class="d" d="M153.7,241c-.18,0-.29-.21-.34-.56a13.45,13.45,0,0,1,0-1.58,12.34,12.34,0,0,1,.11-1.57c.07-.35.2-.53.38-.55s.4.2.57.58a3.61,3.61,0,0,1,.26,1.57,3.73,3.73,0,0,1-.37,1.56C154.11,240.87,153.88,241.08,153.7,241Z"/><path class="d" d="M163,232.14c.36,0,.54,1.5.4,3.33s-.56,3.28-.92,3.26-.58-1-.4-3.33S162.58,232.12,163,232.14Z"/><path class="d" d="M173.84,229.28c.35.07.36,1.42,0,3s-.93,2.82-1.29,2.75-.45-1,0-3S173.48,229.21,173.84,229.28Z"/><path class="d" d="M166.49,238.7a12.75,12.75,0,0,1,.3-1.87c.12-.41.27-.6.46-.6.35,0,.73,1.14.55,2.58s-.82,2.51-1.16,2.44c-.18,0-.29-.25-.3-.66A12.26,12.26,0,0,1,166.49,238.7Z"/><path class="d" d="M138.31,226.79c.36,0,.74.91.85,2.08s-.11,2.13-.47,2.15-.72-.6-.85-2.08S138,226.81,138.31,226.79Z"/><path class="d" d="M137.86,218.85a14.6,14.6,0,0,1-.31-2c0-.43.06-.67.24-.73.33-.13,1.07.91,1.35,2.4s0,2.77-.36,2.8c-.19,0-.35-.16-.49-.57A15.29,15.29,0,0,1,137.86,218.85Z"/><path class="d" d="M139.37,193.5a21.81,21.81,0,0,1,.25,2.2c0,.49-.07.76-.24.82s-1-1-1.24-2.7.1-3.11.44-3.15c.17,0,.32.18.44.65A20.77,20.77,0,0,1,139.37,193.5Z"/><path class="d" d="M135.57,187a19.37,19.37,0,0,1-.31,2.2c-.11.47-.25.71-.43.73-.35.05-.73-1.25-.53-2.93s.88-3,1.21-2.93c.17,0,.26.25.26.73A19.12,19.12,0,0,1,135.57,187Z"/><path class="d" d="M138.92,179.36c.35-.06.82,1,1,2.47s.1,2.64-.25,2.71-.77-.67-1.05-2.47S138.56,179.42,138.92,179.36Z"/><path class="d" d="M138.29,234.14c.34-.11,1.18,1,1.87,2.41s1,2.69.63,2.8-1-.6-1.87-2.42S138,234.24,138.29,234.14Z"/><path class="c" d="M208.45,215.76c-.1,1.69-.3,3.5-.56,5.37s-.6,3.8-1,5.72a12.48,12.48,0,0,1-4.52,7.39,2.32,2.32,0,0,1-2.89.17,2.14,2.14,0,0,1-1.12-1.55,5.27,5.27,0,0,0-.14-.57,10.43,10.43,0,0,1,.68-8.42c2.38-4.58,2.58-10.29,2.09-15.82a55.48,55.48,0,0,0-5.38-18.7,77,77,0,0,0-9.93-16.11c-1.08-1.32-2.18-2.63-3.33-3.89s1.21-8,5.22-4.16a44.07,44.07,0,0,1,2.93,3.45q1.95,2.28,3.75,4.67t3.24,4.61a46.14,46.14,0,0,1,2.8,4.87,72.77,72.77,0,0,1,6.65,17.49,65.62,65.62,0,0,1,1.15,7.49c.13,1.28.22,2.58.29,3.91S208.46,214.37,208.45,215.76Z"/><path class="a" d="M178.06,7.5A85.41,85.41,0,0,1,183.31,60c-3.77,17.08-26.74,45.27-26.74,45.27l-5.78-1.6s3.34-36.48,5.47-45.54A158.45,158.45,0,0,1,165,31.59q2.82-6.53,6.22-12.78C172,17.44,178.49,8.47,178.06,7.5Z"/><path class="b" d="M167.68,38.17c.84-3.06,2.72-6.83,5.87-6.41,1.79.24,3.08,1.87,3.79,3.52,2.41,5.54.54,11.92-1.49,17.61-5.54,15.53-11.6,33.66-21,47.24C157.44,79.25,162.11,58.45,167.68,38.17Z"/></svg>