<?xml version="1.0" encoding="utf-8"?>
<!-- Generator: Adobe Illustrator 22.0.1, SVG Export Plug-In . SVG Version: 6.00 Build 0)  -->
<svg version="1.1" id="Layer_1" xmlns="http://www.w3.org/2000/svg" xmlns:xlink="http://www.w3.org/1999/xlink" x="0px" y="0px"
	 viewBox="0 0 504.9 183.3" style="enable-background:new 0 0 504.9 183.3;" xml:space="preserve">
<style type="text/css">
	.st0{fill:#007E7A;}
	.st1{fill:#CC4527;}
	.st2{font-family:'SairaSemiCondensed-Regular';}
	.st3{font-size:12px;}
	.st4{font-size:26px;}
	.st5{font-size:15px;}
	.st6{fill:none;stroke:#000000;stroke-width:2;}
	.st7{clip-path:url(#SVGID_2_);enable-background:new    ;}
	.st8{enable-background:new    ;}
</style>
<rect x="1.2" y="52.3" class="st0" width="503.4" height="2.3"/>
<g>
	<path d="M301.6,73.3c-6.3,0-11.3-2.6-11.3-5.9c0-3.3,5-5.9,11.3-5.9c6.3,0,11.3,2.6,11.3,5.9C312.8,70.7,307.9,73.3,301.6,73.3z
		 M301.6,62.3c-5.7,0-10.5,2.3-10.5,5.1s4.8,5.1,10.5,5.1s10.5-2.3,10.5-5.1S307.3,62.3,301.6,62.3z"/>
	<path class="st1" d="M300.2,71.9c6,0,10.9-2.5,10.9-5.5c0-3-4.9-5.5-10.9-5.5c-6,0-10.9,2.5-10.9,5.5
		C289.2,69.5,294.1,71.9,300.2,71.9"/>
	<path d="M301.6,98.9c-6.3,0-11.3-2.6-11.3-5.9c0-3.3,5-5.9,11.3-5.9c6.3,0,11.3,2.6,11.3,5.9C312.8,96.3,307.9,98.9,301.6,98.9z
		 M301.6,87.9c-5.7,0-10.5,2.3-10.5,5.1c0,2.8,4.8,5.1,10.5,5.1s10.5-2.3,10.5-5.1C312.1,90.3,307.3,87.9,301.6,87.9z"/>
	<path d="M301.6,124.5c-6.3,0-11.3-2.6-11.3-5.9c0-3.3,5-5.9,11.3-5.9c6.3,0,11.3,2.6,11.3,5.9C312.8,121.9,307.9,124.5,301.6,124.5
		z M301.6,113.5c-5.7,0-10.5,2.3-10.5,5.1c0,2.8,4.8,5.1,10.5,5.1s10.5-2.3,10.5-5.1C312.1,115.9,307.3,113.5,301.6,113.5z"/>
	<path d="M301.6,150.1c-6.3,0-11.3-2.6-11.3-5.9c0-3.3,5-5.9,11.3-5.9c6.3,0,11.3,2.6,11.3,5.9C312.8,147.5,307.9,150.1,301.6,150.1
		z M301.6,139.1c-5.7,0-10.5,2.3-10.5,5.1c0,2.8,4.8,5.1,10.5,5.1s10.5-2.3,10.5-5.1C312.1,141.4,307.3,139.1,301.6,139.1z"/>
	<path d="M301.6,175.7c-6.3,0-11.3-2.6-11.3-5.9c0-3.3,5-5.9,11.3-5.9c6.3,0,11.3,2.6,11.3,5.9C312.8,173.1,307.9,175.7,301.6,175.7
		z M301.6,164.7c-5.7,0-10.5,2.3-10.5,5.1c0,2.8,4.8,5.1,10.5,5.1s10.5-2.3,10.5-5.1C312.1,167,307.3,164.7,301.6,164.7z"/>
</g>
<g>
	<path d="M380.9,73.3c-6.3,0-11.3-2.6-11.3-5.9c0-3.3,5-5.9,11.3-5.9s11.3,2.6,11.3,5.9C392.1,70.7,387.2,73.3,380.9,73.3z
		 M380.9,62.3c-5.7,0-10.5,2.3-10.5,5.1s4.8,5.1,10.5,5.1s10.5-2.3,10.5-5.1S386.6,62.3,380.9,62.3z"/>
	<path d="M380.9,98.9c-6.3,0-11.3-2.6-11.3-5.9c0-3.3,5-5.9,11.3-5.9s11.3,2.6,11.3,5.9C392.1,96.3,387.2,98.9,380.9,98.9z
		 M380.9,87.9c-5.7,0-10.5,2.3-10.5,5.1c0,2.8,4.8,5.1,10.5,5.1s10.5-2.3,10.5-5.1C391.4,90.3,386.6,87.9,380.9,87.9z"/>
	<path d="M380.9,124.5c-6.3,0-11.3-2.6-11.3-5.9c0-3.3,5-5.9,11.3-5.9s11.3,2.6,11.3,5.9C392.1,121.9,387.2,124.5,380.9,124.5z
		 M380.9,113.5c-5.7,0-10.5,2.3-10.5,5.1c0,2.8,4.8,5.1,10.5,5.1s10.5-2.3,10.5-5.1C391.4,115.9,386.6,113.5,380.9,113.5z"/>
	<path d="M380.9,150.1c-6.3,0-11.3-2.6-11.3-5.9c0-3.3,5-5.9,11.3-5.9s11.3,2.6,11.3,5.9C392.1,147.5,387.2,150.1,380.9,150.1z
		 M380.9,139.1c-5.7,0-10.5,2.3-10.5,5.1c0,2.8,4.8,5.1,10.5,5.1s10.5-2.3,10.5-5.1C391.4,141.4,386.6,139.1,380.9,139.1z"/>
	<path d="M380.9,175.7c-6.3,0-11.3-2.6-11.3-5.9c0-3.3,5-5.9,11.3-5.9s11.3,2.6,11.3,5.9C392.1,173.1,387.2,175.7,380.9,175.7z
		 M380.9,164.7c-5.7,0-10.5,2.3-10.5,5.1c0,2.8,4.8,5.1,10.5,5.1s10.5-2.3,10.5-5.1C391.4,167,386.6,164.7,380.9,164.7z"/>
	<path class="st1" d="M381.6,149.7c6,0,10.9-2.5,10.9-5.5c0-3-4.9-5.5-10.9-5.5c-6,0-10.9,2.5-10.9,5.5
		C370.7,147.2,375.6,149.7,381.6,149.7"/>
</g>
<g>
	<path d="M221.4,73.3c-6.3,0-11.3-2.6-11.3-5.9c0-3.3,5-5.9,11.3-5.9s11.3,2.6,11.3,5.9C232.7,70.7,227.8,73.3,221.4,73.3z
		 M221.4,62.3c-5.7,0-10.5,2.3-10.5,5.1s4.8,5.1,10.5,5.1s10.5-2.3,10.5-5.1S227.1,62.3,221.4,62.3z"/>
	<path d="M221.4,98.9c-6.3,0-11.3-2.6-11.3-5.9c0-3.3,5-5.9,11.3-5.9s11.3,2.6,11.3,5.9C232.7,96.3,227.8,98.9,221.4,98.9z
		 M221.4,87.9c-5.7,0-10.5,2.3-10.5,5.1c0,2.8,4.8,5.1,10.5,5.1S232,95.8,232,93C232,90.3,227.1,87.9,221.4,87.9z"/>
	<path d="M221.4,124.5c-6.3,0-11.3-2.6-11.3-5.9c0-3.3,5-5.9,11.3-5.9s11.3,2.6,11.3,5.9C232.7,121.9,227.8,124.5,221.4,124.5z
		 M221.4,113.5c-5.7,0-10.5,2.3-10.5,5.1c0,2.8,4.8,5.1,10.5,5.1s10.5-2.3,10.5-5.1C232,115.9,227.1,113.5,221.4,113.5z"/>
	<path d="M221.4,150.1c-6.3,0-11.3-2.6-11.3-5.9c0-3.3,5-5.9,11.3-5.9s11.3,2.6,11.3,5.9C232.7,147.5,227.8,150.1,221.4,150.1z
		 M221.4,139.1c-5.7,0-10.5,2.3-10.5,5.1c0,2.8,4.8,5.1,10.5,5.1s10.5-2.3,10.5-5.1C232,141.4,227.1,139.1,221.4,139.1z"/>
	<path d="M221.4,175.7c-6.3,0-11.3-2.6-11.3-5.9c0-3.3,5-5.9,11.3-5.9s11.3,2.6,11.3,5.9C232.7,173.1,227.8,175.7,221.4,175.7z
		 M221.4,164.7c-5.7,0-10.5,2.3-10.5,5.1c0,2.8,4.8,5.1,10.5,5.1s10.5-2.3,10.5-5.1C232,167,227.1,164.7,221.4,164.7z"/>
	<path class="st1" d="M220.3,174.5c6,0,10.9-2.5,10.9-5.5c0-3-4.9-5.5-10.9-5.5c-6,0-10.9,2.5-10.9,5.5
		C209.3,172,214.2,174.5,220.3,174.5"/>
</g>
<g>
	<path d="M141.1,73.3c-6.3,0-11.3-2.6-11.3-5.9c0-3.3,5-5.9,11.3-5.9s11.3,2.6,11.3,5.9C152.4,70.7,147.4,73.3,141.1,73.3z
		 M141.1,62.3c-5.7,0-10.5,2.3-10.5,5.1s4.8,5.1,10.5,5.1s10.5-2.3,10.5-5.1S146.8,62.3,141.1,62.3z"/>
	<path d="M141.1,98.9c-6.3,0-11.3-2.6-11.3-5.9c0-3.3,5-5.9,11.3-5.9s11.3,2.6,11.3,5.9C152.4,96.3,147.4,98.9,141.1,98.9z
		 M141.1,87.9c-5.7,0-10.5,2.3-10.5,5.1c0,2.8,4.8,5.1,10.5,5.1s10.5-2.3,10.5-5.1C151.6,90.3,146.8,87.9,141.1,87.9z"/>
	<path d="M141.1,124.5c-6.3,0-11.3-2.6-11.3-5.9c0-3.3,5-5.9,11.3-5.9s11.3,2.6,11.3,5.9C152.4,121.9,147.4,124.5,141.1,124.5z
		 M141.1,113.5c-5.7,0-10.5,2.3-10.5,5.1c0,2.8,4.8,5.1,10.5,5.1s10.5-2.3,10.5-5.1C151.6,115.9,146.8,113.5,141.1,113.5z"/>
	<path d="M141.1,150.1c-6.3,0-11.3-2.6-11.3-5.9c0-3.3,5-5.9,11.3-5.9s11.3,2.6,11.3,5.9C152.4,147.5,147.4,150.1,141.1,150.1z
		 M141.1,139.1c-5.7,0-10.5,2.3-10.5,5.1c0,2.8,4.8,5.1,10.5,5.1s10.5-2.3,10.5-5.1C151.6,141.4,146.8,139.1,141.1,139.1z"/>
	<path d="M141.1,175.7c-6.3,0-11.3-2.6-11.3-5.9c0-3.3,5-5.9,11.3-5.9s11.3,2.6,11.3,5.9C152.4,173.1,147.4,175.7,141.1,175.7z
		 M141.1,164.7c-5.7,0-10.5,2.3-10.5,5.1c0,2.8,4.8,5.1,10.5,5.1s10.5-2.3,10.5-5.1C151.6,167,146.8,164.7,141.1,164.7z"/>
	<path class="st1" d="M140.6,123.6c6,0,10.9-2.5,10.9-5.5c0-3-4.9-5.5-10.9-5.5c-6,0-10.9,2.5-10.9,5.5
		C129.7,121.1,134.5,123.6,140.6,123.6"/>
</g>
<g>
	<path d="M460.7,73.3c-6.3,0-11.3-2.6-11.3-5.9c0-3.3,5-5.9,11.3-5.9s11.3,2.6,11.3,5.9C472,70.7,467.1,73.3,460.7,73.3z
		 M460.7,62.3c-5.7,0-10.5,2.3-10.5,5.1s4.8,5.1,10.5,5.1s10.5-2.3,10.5-5.1S466.4,62.3,460.7,62.3z"/>
	<path d="M460.7,98.9c-6.3,0-11.3-2.6-11.3-5.9c0-3.3,5-5.9,11.3-5.9S472,89.8,472,93C472,96.3,467.1,98.9,460.7,98.9z M460.7,87.9
		c-5.7,0-10.5,2.3-10.5,5.1c0,2.8,4.8,5.1,10.5,5.1s10.5-2.3,10.5-5.1C471.3,90.3,466.4,87.9,460.7,87.9z"/>
	<path d="M460.7,124.5c-6.3,0-11.3-2.6-11.3-5.9c0-3.3,5-5.9,11.3-5.9s11.3,2.6,11.3,5.9C472,121.9,467.1,124.5,460.7,124.5z
		 M460.7,113.5c-5.7,0-10.5,2.3-10.5,5.1c0,2.8,4.8,5.1,10.5,5.1s10.5-2.3,10.5-5.1C471.3,115.9,466.4,113.5,460.7,113.5z"/>
	<path d="M460.7,150.1c-6.3,0-11.3-2.6-11.3-5.9c0-3.3,5-5.9,11.3-5.9s11.3,2.6,11.3,5.9C472,147.5,467.1,150.1,460.7,150.1z
		 M460.7,139.1c-5.7,0-10.5,2.3-10.5,5.1c0,2.8,4.8,5.1,10.5,5.1s10.5-2.3,10.5-5.1C471.3,141.4,466.4,139.1,460.7,139.1z"/>
	<path d="M460.7,175.7c-6.3,0-11.3-2.6-11.3-5.9c0-3.3,5-5.9,11.3-5.9s11.3,2.6,11.3,5.9C472,173.1,467.1,175.7,460.7,175.7z
		 M460.7,164.7c-5.7,0-10.5,2.3-10.5,5.1c0,2.8,4.8,5.1,10.5,5.1s10.5-2.3,10.5-5.1C471.3,167,466.4,164.7,460.7,164.7z"/>
	<path class="st1" d="M461.8,97.3c6,0,10.9-2.5,10.9-5.5c0-3-4.9-5.5-10.9-5.5c-6,0-10.9,2.5-10.9,5.5
		C450.9,94.8,455.8,97.3,461.8,97.3"/>
</g>
<text transform="matrix(1 0 0 1 5.0531 71.8932)"><tspan x="0" y="0" class="st2 st3">Betty Bear</tspan><tspan x="0" y="25" class="st2 st3">Felix Fox</tspan><tspan x="0" y="50" class="st2 st3">Lucinda Lizard</tspan><tspan x="0" y="75" class="st2 st3">Roberto Rabbit</tspan><tspan x="0" y="100" class="st2 st3">Diego Deer</tspan></text>
<text transform="matrix(1 0 0 1 131.0693 33.6014)" class="st0 st2 st4">1</text>
<text transform="matrix(0.583 0 0 0.583 139.6489 24.9432)" class="st0 st2 st4">st </text>
<text transform="matrix(1 0 0 1 118.5215 47.6014)" class="st0 st2 st5">Choice</text>
<text transform="matrix(1 0 0 1 206.59 33.6014)" class="st0 st2 st4">2</text>
<text transform="matrix(0.583 0 0 0.583 220.318 24.9432)" class="st0 st2 st4">nd </text>
<text transform="matrix(1 0 0 1 198.8522 47.6014)" class="st0 st2 st5">Choice</text>
<text transform="matrix(1 0 0 1 288.3935 33.6014)" class="st0 st2 st4">3</text>
<text transform="matrix(0.583 0 0 0.583 301.8354 24.9432)" class="st0 st2 st4">rd </text>
<text transform="matrix(1 0 0 1 278.9819 47.6014)" class="st0 st2 st5">Choice</text>
<text transform="matrix(1 0 0 1 368.0207 33.6014)" class="st0 st2 st4">4</text>
<text transform="matrix(0.583 0 0 0.583 382.5285 24.9432)" class="st0 st2 st4">th </text>
<text transform="matrix(1 0 0 1 359.1115 47.6014)" class="st0 st2 st5">Choice</text>
<text transform="matrix(1 0 0 1 448.4624 33.6014)" class="st0 st2 st4">5</text>
<text transform="matrix(0.583 0 0 0.583 462.3462 24.9432)" class="st0 st2 st4">th </text>
<text transform="matrix(1 0 0 1 439.2412 47.6014)" class="st0 st2 st5">Choice</text>
<rect class="st6" width="504.6" height="183.3"/>
<line class="st6" x1="181.8" y1="0" x2="181.8" y2="183.3"/>
<line class="st6" x1="101.3" y1="0" x2="101.3" y2="183.3"/>
<line class="st6" x1="262.4" y1="0" x2="262.4" y2="183.3"/>
<line class="st6" x1="342.9" y1="0" x2="342.9" y2="183.3"/>
<line class="st6" x1="423.5" y1="0" x2="423.5" y2="183.3"/>
<line class="st6" x1="504" y1="0" x2="504" y2="183.3"/>
<rect x="1.2" y="79.4" class="st0" width="503.4" height="1.2"/>
<rect x="1.2" y="105.3" class="st0" width="503.4" height="1.2"/>
<rect x="1.2" y="131.2" class="st0" width="503.4" height="1.2"/>
<rect x="0.6" y="156.5" class="st0" width="503.4" height="1.2"/>
<g id="city-of-sf-seal.psd">
	<defs>
		<rect id="SVGID_1_" x="30.1" y="4.1" width="45.7" height="45.7"/>
	</defs>
	<clipPath id="SVGID_2_">
		<use xlink:href="#SVGID_1_"  style="overflow:visible;"/>
	</clipPath>
	<g id="Ellipse_1__x2B__Layer_0_1_" class="st7">
		<defs>
			<circle id="SVGID_3_" class="st8" cx="53" cy="27" r="22.9"/>
		</defs>
		<clipPath id="SVGID_4_">
			<use xlink:href="#SVGID_3_"  style="overflow:visible;"/>
		</clipPath>
		<g transform="matrix(1 0 0 1 1.907349e-06 0)" style="clip-path:url(#SVGID_4_);">
			
				<image style="overflow:visible;" width="640" height="640" id="Ellipse_1__x2B__Layer_0_2_" xlink:href="AB841B18FFD02B50.png"  transform="matrix(7.144412e-02 0 0 7.144412e-02 30.1379 4.1437)">
			</image>
		</g>
	</g>
</g>
</svg>
