<?xml version="1.0" encoding="utf-8"?>
<!-- Generator: Adobe Illustrator 22.0.1, SVG Export Plug-In . SVG Version: 6.00 Build 0)  -->
<svg version="1.1" id="Layer_1" xmlns="http://www.w3.org/2000/svg" xmlns:xlink="http://www.w3.org/1999/xlink" x="0px" y="0px"
	 viewBox="0 0 1000 600" style="enable-background:new 0 0 1000 600;" xml:space="preserve">
<style type="text/css">
	.st0{fill:#5281C5;}
	.st1{fill:#FFCC1A;}
	.st2{fill:#E2E7D4;}
</style>
<rect class="st0" width="1000" height="600"/>
<polygon class="st1" points="305.4,552.9 299.9,552.9 299.9,552.9 299.9,552.9 294.4,552.9 288.9,552.9 288.9,556.1 288.9,559.3 
	288.9,562.4 288.9,565.6 288.9,568.7 288.9,571.9 288.9,575.1 294.4,575.1 299.9,575.1 305.4,575.1 310.8,575.1 310.8,571.9 
	310.8,568.7 310.8,565.6 310.8,562.4 310.8,559.3 310.8,556.1 310.8,552.9 "/>
<polygon class="st1" points="42.6,442.4 37.2,442.4 37.2,442.4 37.2,442.4 31.7,442.4 26.2,442.4 26.2,445.5 26.2,448.7 26.2,451.9 
	26.2,455 26.2,458.2 26.2,461.3 26.2,464.5 31.7,464.5 37.2,464.5 42.6,464.5 48.1,464.5 48.1,461.3 48.1,458.2 48.1,455 
	48.1,451.9 48.1,448.7 48.1,445.5 48.1,442.4 "/>
<polygon class="st1" points="630.9,552.9 625.4,552.9 625.4,552.9 625.4,552.9 619.9,552.9 614.5,552.9 614.5,556.1 614.5,559.3 
	614.5,562.4 614.5,565.6 614.5,568.7 614.5,571.9 614.5,575.1 619.9,575.1 625.4,575.1 630.9,575.1 636.4,575.1 636.4,571.9 
	636.4,568.7 636.4,565.6 636.4,562.4 636.4,559.3 636.4,556.1 636.4,552.9 "/>
<polygon class="st1" points="368.2,442.4 362.7,442.4 362.7,442.4 362.7,442.4 357.2,442.4 351.8,442.4 351.8,445.5 351.8,448.7 
	351.8,451.9 351.8,455 351.8,458.2 351.8,461.3 351.8,464.5 357.2,464.5 362.7,464.5 368.2,464.5 373.6,464.5 373.6,461.3 
	373.6,458.2 373.6,455 373.6,451.9 373.6,448.7 373.6,445.5 373.6,442.4 "/>
<polygon class="st1" points="368.2,265.4 362.7,265.4 362.7,265.4 362.7,265.4 357.2,265.4 351.8,265.4 351.8,268.6 351.8,271.8 
	351.8,274.9 351.8,278.1 351.8,281.2 351.8,284.4 351.8,287.6 357.2,287.6 362.7,287.6 368.2,287.6 373.6,287.6 373.6,284.4 
	373.6,281.2 373.6,278.1 373.6,274.9 373.6,271.8 373.6,268.6 373.6,265.4 "/>
<polygon class="st1" points="972.7,552.9 967.3,552.9 967.3,552.9 967.3,552.9 961.8,552.9 956.3,552.9 956.3,556.1 956.3,559.3 
	956.3,562.4 956.3,565.6 956.3,568.7 956.3,571.9 956.3,575.1 961.8,575.1 967.3,575.1 972.7,575.1 978.2,575.1 978.2,571.9 
	978.2,568.7 978.2,565.6 978.2,562.4 978.2,559.3 978.2,556.1 978.2,552.9 "/>
<polygon class="st1" points="710,442.4 704.6,442.4 704.6,442.4 704.6,442.4 699.1,442.4 693.6,442.4 693.6,445.5 693.6,448.7 
	693.6,451.9 693.6,455 693.6,458.2 693.6,461.3 693.6,464.5 699.1,464.5 704.6,464.5 710,464.5 715.5,464.5 715.5,461.3 
	715.5,458.2 715.5,455 715.5,451.9 715.5,448.7 715.5,445.5 715.5,442.4 "/>
<polygon class="st1" points="710,265.4 704.6,265.4 704.6,265.4 704.6,265.4 699.1,265.4 693.6,265.4 693.6,268.6 693.6,271.8 
	693.6,274.9 693.6,278.1 693.6,281.2 693.6,284.4 693.6,287.6 699.1,287.6 704.6,287.6 710,287.6 715.5,287.6 715.5,284.4 
	715.5,281.2 715.5,278.1 715.5,274.9 715.5,271.8 715.5,268.6 715.5,265.4 "/>
<polygon class="st1" points="710,265.4 704.6,265.4 704.6,265.4 704.6,265.4 699.1,265.4 693.6,265.4 693.6,268.6 693.6,271.8 
	693.6,274.9 693.6,278.1 693.6,281.2 693.6,284.4 693.6,287.6 699.1,287.6 704.6,287.6 710,287.6 715.5,287.6 715.5,284.4 
	715.5,281.2 715.5,278.1 715.5,274.9 715.5,271.8 715.5,268.6 715.5,265.4 "/>
<polygon class="st1" points="710,88.5 704.6,88.5 704.6,88.5 704.6,88.5 699.1,88.5 693.6,88.5 693.6,91.7 693.6,94.8 693.6,98 
	693.6,101.1 693.6,104.3 693.6,107.5 693.6,110.6 699.1,110.6 704.6,110.6 710,110.6 715.5,110.6 715.5,107.5 715.5,104.3 
	715.5,101.1 715.5,98 715.5,94.8 715.5,91.7 715.5,88.5 "/>
<g>
	<polygon class="st2" points="299.9,376 299.9,376 294.4,376 288.9,376 283.5,376 278,376 278,376 272.5,376 267,376 261.6,376 
		256.1,376 256.1,376 250.6,376 245.2,376 245.2,379.2 245.2,382.3 245.2,385.5 245.2,388.6 245.2,391.8 245.2,395 245.2,398.1 
		245.2,401.3 245.2,404.4 245.2,407.6 245.2,410.8 245.2,413.9 245.2,417.1 245.2,420.2 245.2,423.4 245.2,426.6 245.2,429.7 
		245.2,432.9 245.2,436 245.2,439.2 245.2,442.3 239.7,442.3 234.2,442.3 234.2,442.3 234.2,442.3 228.7,442.3 223.3,442.3 
		223.3,439.2 223.3,436 223.3,432.9 223.3,429.7 223.3,426.6 223.3,423.4 223.3,420.2 223.3,417.1 223.3,413.9 223.3,410.8 
		223.3,407.6 223.3,404.4 223.3,401.3 223.3,398.1 223.3,395 223.3,391.8 223.3,388.6 223.3,385.5 223.3,382.3 223.3,379.2 
		223.3,376 217.8,376 212.3,376 212.3,376 206.8,376 201.4,376 195.9,376 190.4,376 190.4,376 185,376 179.5,376 174,376 168.5,376 
		168.5,376 163.1,376 157.6,376 157.6,379.2 157.6,382.3 157.6,385.5 157.6,388.6 157.6,391.8 157.6,395 157.6,398.1 157.6,401.3 
		157.6,404.4 157.6,407.6 157.6,410.8 157.6,413.9 157.6,417.1 157.6,420.2 157.6,423.4 157.6,426.6 157.6,429.7 157.6,432.9 
		157.6,436 157.6,439.2 157.6,442.3 152.1,442.3 146.6,442.3 146.6,442.3 146.6,442.3 141.2,442.3 135.7,442.3 135.7,439.2 
		135.7,436 135.7,432.9 135.7,429.7 135.7,426.6 135.7,423.4 135.7,420.2 135.7,417.1 135.7,413.9 135.7,410.8 135.7,407.6 
		135.7,404.4 135.7,401.3 135.7,398.1 135.7,395 135.7,391.8 135.7,388.6 135.7,385.5 135.7,382.3 135.7,379.2 135.7,376 130.2,376 
		124.8,376 124.8,376 119.3,376 113.8,376 108.3,376 102.9,376 102.9,376 97.4,376 91.9,376 86.5,376 81,376 81,376 75.5,376 
		70,376 70,379.2 70,382.3 70,385.5 70,388.6 70,391.8 70,395 70,398.1 70,401.3 70,404.4 70,407.6 70,410.8 70,413.9 70,417.1 
		70,420.2 70,423.4 70,426.6 70,429.7 70,432.9 70,436 70,439.2 70,442.3 70,445.5 70,448.7 70,451.8 70,455 70,458.1 70,461.3 
		70,464.5 75.5,464.5 81,464.5 86.5,464.5 91.9,464.5 91.9,461.3 91.9,458.1 91.9,455 91.9,451.8 91.9,448.7 91.9,445.5 91.9,442.3 
		91.9,439.2 91.9,436 91.9,432.9 91.9,429.7 91.9,426.6 91.9,423.4 91.9,420.2 91.9,417.1 91.9,413.9 91.9,410.8 91.9,407.6 
		91.9,404.4 91.9,401.3 91.9,398.1 97.4,398.1 102.9,398.1 108.3,398.1 113.8,398.1 113.8,401.3 113.8,404.4 113.8,407.6 
		113.8,410.8 113.8,413.9 113.8,417.1 113.8,420.2 113.8,423.4 113.8,426.6 113.8,429.7 113.8,432.9 113.8,436 113.8,439.2 
		113.8,442.3 113.8,445.5 113.8,448.7 113.8,451.8 113.8,455 113.8,458.1 113.8,461.3 113.8,464.5 119.3,464.5 124.8,464.5 
		130.2,464.5 135.7,464.5 141.2,464.5 146.6,464.5 152.1,464.5 157.6,464.5 163.1,464.5 168.5,464.5 174,464.5 179.5,464.5 
		179.5,461.3 179.5,458.1 179.5,455 179.5,451.8 179.5,448.7 179.5,445.5 179.5,442.3 179.5,439.2 179.5,436 179.5,432.9 
		179.5,429.7 179.5,426.6 179.5,423.4 179.5,420.2 179.5,417.1 179.5,413.9 179.5,410.8 179.5,407.6 179.5,404.4 179.5,401.3 
		179.5,398.1 185,398.1 190.4,398.1 195.9,398.1 201.4,398.1 201.4,401.3 201.4,404.4 201.4,407.6 201.4,410.8 201.4,413.9 
		201.4,417.1 201.4,420.2 201.4,423.4 201.4,426.6 201.4,429.7 201.4,432.9 201.4,436 201.4,439.2 201.4,442.3 201.4,445.5 
		201.4,448.7 201.4,451.8 201.4,455 201.4,458.1 201.4,461.3 201.4,464.5 206.8,464.5 212.3,464.5 217.8,464.5 223.3,464.5 
		228.7,464.5 234.2,464.5 239.7,464.5 245.2,464.5 250.6,464.5 256.1,464.5 261.6,464.5 267,464.5 267,461.3 267,458.1 267,455 
		267,451.8 267,448.7 267,445.5 267,442.3 267,439.2 267,436 267,432.9 267,429.7 267,426.6 267,423.4 267,420.2 267,417.1 
		267,413.9 267,410.8 267,407.6 267,404.4 267,401.3 267,398.1 272.5,398.1 278,398.1 283.5,398.1 288.9,398.1 288.9,401.3 
		288.9,404.4 288.9,407.6 288.9,410.8 288.9,413.9 288.9,417.1 288.9,420.2 288.9,423.4 288.9,426.6 288.9,429.7 288.9,432.9 
		288.9,436 288.9,439.2 288.9,442.3 288.9,445.5 288.9,448.7 288.9,451.8 288.9,455 288.9,458.1 288.9,461.3 288.9,464.5 
		294.4,464.5 299.9,464.5 305.4,464.5 310.8,464.5 310.8,461.3 310.8,458.1 310.8,455 310.8,451.8 310.8,448.7 310.8,445.5 
		310.8,442.3 310.8,439.2 310.8,436 310.8,432.9 310.8,429.7 310.8,426.6 310.8,423.4 310.8,420.2 310.8,417.1 310.8,413.9 
		310.8,410.8 310.8,407.6 310.8,404.4 310.8,401.3 310.8,398.1 310.8,395 310.8,391.8 310.8,388.6 310.8,385.5 310.8,382.3 
		310.8,379.2 310.8,376 305.4,376 	"/>
	<polygon class="st2" points="256.1,486.6 256.1,486.6 256.1,486.6 250.6,486.6 245.2,486.6 239.7,486.6 234.2,486.6 234.2,486.6 
		234.2,486.6 228.7,486.6 223.3,486.6 217.8,486.6 212.3,486.6 212.3,486.6 212.3,486.6 206.8,486.6 201.4,486.6 201.4,489.7 
		201.4,492.9 201.4,496.1 201.4,499.2 201.4,502.4 201.4,505.5 201.4,508.7 201.4,511.9 201.4,515 201.4,518.2 201.4,521.3 
		201.4,524.5 201.4,527.7 201.4,530.8 201.4,534 201.4,537.1 201.4,540.3 201.4,543.5 201.4,546.6 201.4,549.8 201.4,552.9 
		195.9,552.9 190.4,552.9 190.4,552.9 185,552.9 179.5,552.9 179.5,549.8 179.5,546.6 179.5,543.5 179.5,540.3 179.5,537.1 
		179.5,534 179.5,530.8 179.5,527.7 179.5,524.5 179.5,521.3 179.5,518.2 179.5,515 179.5,511.9 179.5,508.7 179.5,505.5 
		179.5,502.4 179.5,499.2 179.5,496.1 179.5,492.9 179.5,489.7 179.5,486.6 174,486.6 168.5,486.6 168.5,486.6 168.5,486.6 
		163.1,486.6 157.6,486.6 152.1,486.6 146.6,486.6 146.6,486.6 146.6,486.6 141.2,486.6 135.7,486.6 130.2,486.6 124.8,486.6 
		124.8,486.6 124.8,486.6 119.3,486.6 113.8,486.6 113.8,489.7 113.8,492.9 113.8,496.1 113.8,499.2 113.8,502.4 113.8,505.5 
		113.8,508.7 113.8,511.9 113.8,515 113.8,518.2 113.8,521.3 113.8,524.5 113.8,527.7 113.8,530.8 113.8,534 113.8,537.1 
		113.8,540.3 113.8,543.5 113.8,546.6 113.8,549.8 113.8,552.9 108.3,552.9 102.9,552.9 102.9,552.9 97.4,552.9 91.9,552.9 
		91.9,549.8 91.9,546.6 91.9,543.5 91.9,540.3 91.9,537.1 91.9,534 91.9,530.8 91.9,527.7 91.9,524.5 91.9,521.3 91.9,518.2 
		91.9,515 91.9,511.9 91.9,508.7 91.9,505.5 91.9,502.4 91.9,499.2 91.9,496.1 91.9,492.9 91.9,489.7 91.9,486.6 86.5,486.6 
		81,486.6 81,486.6 81,486.6 75.5,486.6 70,486.6 64.6,486.6 59.1,486.6 59.1,486.6 59.1,486.6 53.6,486.6 48.1,486.6 42.7,486.6 
		37.2,486.6 37.2,486.6 37.2,486.6 31.7,486.6 26.3,486.6 26.3,489.7 26.3,492.9 26.3,496.1 26.3,499.2 26.3,502.4 26.3,505.5 
		26.3,508.7 26.3,511.9 26.3,515 26.3,518.2 26.3,521.3 26.3,524.5 26.3,527.7 26.3,530.8 26.3,534 26.3,537.1 26.3,540.3 
		26.3,543.5 26.3,546.6 26.3,549.8 26.3,552.9 26.3,556.1 26.3,559.3 26.3,562.4 26.3,565.6 26.3,568.7 26.3,571.9 26.3,575.1 
		31.7,575.1 37.2,575.1 42.7,575.1 48.1,575.1 48.1,571.9 48.1,568.7 48.1,565.6 48.1,562.4 48.1,559.3 48.1,556.1 48.1,552.9 
		48.1,549.8 48.1,546.6 48.1,543.5 48.1,540.3 48.1,537.1 48.1,534 48.1,530.8 48.1,527.7 48.1,524.5 48.1,521.3 48.1,518.2 
		48.1,515 48.1,511.9 48.1,508.7 53.6,508.7 59.1,508.7 64.6,508.7 70,508.7 70,511.9 70,515 70,518.2 70,521.3 70,524.5 70,527.7 
		70,530.8 70,534 70,537.1 70,540.3 70,543.5 70,546.6 70,549.8 70,552.9 70,556.1 70,559.3 70,562.4 70,565.6 70,568.7 70,571.9 
		70,575.1 75.5,575.1 81,575.1 86.5,575.1 91.9,575.1 97.4,575.1 102.9,575.1 108.3,575.1 113.8,575.1 119.3,575.1 124.8,575.1 
		130.2,575.1 135.7,575.1 135.7,571.9 135.7,568.7 135.7,565.6 135.7,562.4 135.7,559.3 135.7,556.1 135.7,552.9 135.7,549.8 
		135.7,546.6 135.7,543.5 135.7,540.3 135.7,537.1 135.7,534 135.7,530.8 135.7,527.7 135.7,524.5 135.7,521.3 135.7,518.2 
		135.7,515 135.7,511.9 135.7,508.7 141.2,508.7 146.6,508.7 152.1,508.7 157.6,508.7 157.6,511.9 157.6,515 157.6,518.2 
		157.6,521.3 157.6,524.5 157.6,527.7 157.6,530.8 157.6,534 157.6,537.1 157.6,540.3 157.6,543.5 157.6,546.6 157.6,549.8 
		157.6,552.9 157.6,556.1 157.6,559.3 157.6,562.4 157.6,565.6 157.6,568.7 157.6,571.9 157.6,575.1 163.1,575.1 168.5,575.1 
		174,575.1 179.5,575.1 185,575.1 190.4,575.1 195.9,575.1 201.4,575.1 206.8,575.1 212.3,575.1 217.8,575.1 223.3,575.1 
		223.3,571.9 223.3,568.7 223.3,565.6 223.3,562.4 223.3,559.3 223.3,556.1 223.3,552.9 223.3,549.8 223.3,546.6 223.3,543.5 
		223.3,540.3 223.3,537.1 223.3,534 223.3,530.8 223.3,527.7 223.3,524.5 223.3,521.3 223.3,518.2 223.3,515 223.3,511.9 
		223.3,508.7 228.7,508.7 234.2,508.7 239.7,508.7 245.2,508.7 245.2,511.9 245.2,515 245.2,518.2 245.2,521.3 245.2,524.5 
		245.2,527.7 245.2,530.8 245.2,534 245.2,537.1 245.2,540.3 245.2,543.5 245.2,546.6 245.2,549.8 245.2,552.9 245.2,556.1 
		245.2,559.3 245.2,562.4 245.2,565.6 245.2,568.7 245.2,571.9 245.2,575.1 250.6,575.1 256.1,575.1 261.6,575.1 267,575.1 
		267,571.9 267,568.7 267,565.6 267,562.4 267,559.3 267,556.1 267,552.9 267,549.8 267,546.6 267,543.5 267,540.3 267,537.1 
		267,534 267,530.8 267,527.7 267,524.5 267,521.3 267,518.2 267,515 267,511.9 267,508.7 267,505.5 267,502.4 267,499.2 267,496.1 
		267,492.9 267,489.7 267,486.6 261.6,486.6 	"/>
	<path class="st2" d="M625.4,376L625.4,376h-5.5h-5.5H609h-5.5l0,0h-5.5h-5.5v-3.2v-3.2v-3.2v-3.2v-3.2V357v-3.2v-3.2v-3.2v-3.2
		v-3.2v-3.2v-3.2v-3.2v-3.2v-3.2v-3.2v-3.2V316v-3.2v-3.2h-5.5h-5.5l0,0l0,0h-5.5h-5.5h-5.5h-5.5l0,0l0,0h-5.5h-5.5h-5.5h-5.5l0,0
		l0,0h-5.5h-5.5v3.2v3.2v3.2v3.2v3.2v3.2v3.2v3.2v3.2v3.2v3.2v3.2v3.2v3.2v3.2v3.2v3.2v3.2v3.2v3.2v3.2h-5.5H516l0,0h-5.5H505v-3.2
		v-3.2v-3.2v-3.2v-3.2V357v-3.2v-3.2v-3.2v-3.2v-3.2v-3.2v-3.2v-3.2v-3.2v-3.2v-3.2v-3.2V316v-3.2v-3.2h-5.5h-5.5l0,0l0,0h-5.5h-5.5
		h-5.5h-5.5l0,0l0,0h-5.5h-5.5h-5.5h-5.5h-5.5h-5.5v3.2v3.2v3.2v3.2v3.2v3.2v3.2v3.2v3.2v3.2v3.2v3.2v3.2v3.2v3.2v3.2v3.2v3.2v3.2
		v3.2v3.2h-5.5h-5.5l0,0h-5.5h-5.5v-3.2v-3.2v-3.2v-3.2v-3.2V357v-3.2v-3.2v-3.2v-3.2v-3.2v-3.2v-3.2v-3.2v-3.2v-3.2v-3.2v-3.2V316
		v-3.2v-3.2H412h-5.5l0,0l0,0H401h-5.5h-5.5h-5.5l0,0l0,0h-5.5h-5.5h-5.5h-5.5l0,0l0,0h-5.5h-5.5v3.2v3.2v3.2v3.2v3.2v3.2v3.2v3.2
		v3.2v3.2v3.2v3.2v3.2v3.2v3.2v3.2v3.2v3.2v3.2v3.2v3.2v3.2v3.2v3.2v3.2v3.2v3.2v3.2h5.5h5.5h5.5h5.5V395v-3.2v-3.2v-3.2v-3.2v-3.2
		V376v-3.2v-3.2v-3.2v-3.2v-3.2V357v-3.2v-3.2v-3.2v-3.2v-3.2v-3.2v-3.2v-3.2h5.5h5.5h5.5h5.5v3.2v3.2v3.2v3.2v3.2v3.2v3.2v3.2v3.2
		v3.2v3.2v3.2v3.2v3.2v3.2v3.2v3.2v3.2v3.2v3.2v3.2v3.2v3.2v3.2v3.2v3.2v3.2v3.2v3.2v3.2v3.2v3.2v3.2v3.2v3.2v3.2v3.2v3.2v3.2v3.2
		v3.2v3.2h5.5h5.5h5.5h5.5v-3.2v-3.2V455v-3.2v-3.2v-3.2v-3.2v-3.2V436v-3.2v-3.2v-3.2v-3.2v-3.2v-3.2v-3.2v-3.2v-3.2v-3.2v-3.2
		v-3.2h5.5h5.5h5.5h5.5v3.2v3.2v3.2v3.2v3.2v3.2v3.2v3.2v3.2v3.2v3.2v3.2v3.2v3.2v3.2v3.2v3.2v3.2v3.2v3.2v3.2h5.5h5.5h5.5h5.5h5.5
		h5.5h5.5h5.5h5.5h5.5h5.5h5.5v-3.2v-3.2V455v-3.2v-3.2v-3.2v-3.2v-3.2V436v-3.2v-3.2v-3.2v-3.2v-3.2v-3.2v-3.2v-3.2v-3.2v-3.2v-3.2
		v-3.2h5.5h5.5h5.5h5.5v3.2v3.2v3.2v3.2v3.2v3.2v3.2v3.2v3.2v3.2v3.2v3.2v3.2v3.2v3.2v3.2v3.2v3.2v3.2v3.2v3.2h5.5h5.5h5.5h5.5h5.5
		h5.5h5.5h5.5h5.5h5.5h5.5h5.5v-3.2v-3.2V455v-3.2v-3.2v-3.2v-3.2v-3.2V436v-3.2v-3.2v-3.2v-3.2v-3.2v-3.2v-3.2v-3.2v-3.2v-3.2v-3.2
		v-3.2h5.5h5.5h5.5h5.5v3.2v3.2v3.2v3.2v3.2v3.2v3.2v3.2v3.2v3.2v3.2v3.2v3.2v3.2v3.2v3.2v3.2v3.2v3.2v3.2v3.2h5.5h5.5h5.5h5.5v-3.2
		v-3.2V455v-3.2v-3.2v-3.2v-3.2v-3.2V436v-3.2v-3.2v-3.2v-3.2v-3.2v-3.2v-3.2v-3.2v-3.2v-3.2v-3.2v-3.2V395v-3.2v-3.2v-3.2v-3.2
		v-3.2V376h-5.5H625.4z M477.7,442.3h-5.5l0,0l0,0h-5.5h-5.5v-3.2V436v-3.2v-3.2v-3.2v-3.2v-3.2v-3.2v-3.2v-3.2v-3.2v-3.2v-3.2v-3.2
		V395v-3.2v-3.2v-3.2v-3.2v-3.2V376v-3.2v-3.2v-3.2v-3.2v-3.2V357v-3.2v-3.2v-3.2v-3.2v-3.2v-3.2v-3.2v-3.2h5.5h5.5h5.5h5.5v3.2v3.2
		v3.2v3.2v3.2v3.2v3.2v3.2v3.2v3.2v3.2v3.2v3.2v3.2v3.2v3.2v3.2v3.2v3.2v3.2v3.2v3.2v3.2v3.2v3.2v3.2v3.2v3.2v3.2v3.2v3.2v3.2v3.2
		v3.2v3.2H477.7z M565.2,442.3h-5.5l0,0l0,0h-5.5h-5.5v-3.2V436v-3.2v-3.2v-3.2v-3.2v-3.2v-3.2v-3.2v-3.2v-3.2v-3.2v-3.2v-3.2V395
		v-3.2v-3.2v-3.2v-3.2v-3.2V376v-3.2v-3.2v-3.2v-3.2v-3.2V357v-3.2v-3.2v-3.2v-3.2v-3.2v-3.2v-3.2v-3.2h5.5h5.5h5.5h5.5v3.2v3.2v3.2
		v3.2v3.2v3.2v3.2v3.2v3.2v3.2v3.2v3.2v3.2v3.2v3.2v3.2v3.2v3.2v3.2v3.2v3.2v3.2v3.2v3.2v3.2v3.2v3.2v3.2v3.2v3.2v3.2v3.2v3.2v3.2
		v3.2H565.2z"/>
	<polygon class="st2" points="581.6,486.6 581.6,486.6 581.6,486.6 576.2,486.6 570.7,486.6 565.2,486.6 559.7,486.6 559.7,486.6 
		559.7,486.6 554.3,486.6 548.8,486.6 543.3,486.6 537.9,486.6 537.9,486.6 537.9,486.6 532.4,486.6 526.9,486.6 526.9,489.7 
		526.9,492.9 526.9,496.1 526.9,499.2 526.9,502.4 526.9,505.5 526.9,508.7 526.9,511.9 526.9,515 526.9,518.2 526.9,521.3 
		526.9,524.5 526.9,527.7 526.9,530.8 526.9,534 526.9,537.1 526.9,540.3 526.9,543.5 526.9,546.6 526.9,549.8 526.9,552.9 
		521.4,552.9 516,552.9 516,552.9 510.5,552.9 505,552.9 505,549.8 505,546.6 505,543.5 505,540.3 505,537.1 505,534 505,530.8 
		505,527.7 505,524.5 505,521.3 505,518.2 505,515 505,511.9 505,508.7 505,505.5 505,502.4 505,499.2 505,496.1 505,492.9 
		505,489.7 505,486.6 499.5,486.6 494.1,486.6 494.1,486.6 494.1,486.6 488.6,486.6 483.1,486.6 477.7,486.6 472.2,486.6 
		472.2,486.6 472.2,486.6 466.7,486.6 461.2,486.6 455.8,486.6 450.3,486.6 444.8,486.6 439.3,486.6 439.3,489.7 439.3,492.9 
		439.3,496.1 439.3,499.2 439.3,502.4 439.3,505.5 439.3,508.7 439.3,511.9 439.3,515 439.3,518.2 439.3,521.3 439.3,524.5 
		439.3,527.7 439.3,530.8 439.3,534 439.3,537.1 439.3,540.3 439.3,543.5 439.3,546.6 439.3,549.8 439.3,552.9 433.9,552.9 
		428.4,552.9 428.4,552.9 422.9,552.9 417.5,552.9 417.5,549.8 417.5,546.6 417.5,543.5 417.5,540.3 417.5,537.1 417.5,534 
		417.5,530.8 417.5,527.7 417.5,524.5 417.5,521.3 417.5,518.2 417.5,515 417.5,511.9 417.5,508.7 417.5,505.5 417.5,502.4 
		417.5,499.2 417.5,496.1 417.5,492.9 417.5,489.7 417.5,486.6 412,486.6 406.5,486.6 406.5,486.6 406.5,486.6 401,486.6 
		395.6,486.6 390.1,486.6 384.6,486.6 384.6,486.6 384.6,486.6 379.1,486.6 373.7,486.6 368.2,486.6 362.7,486.6 362.7,486.6 
		362.7,486.6 357.3,486.6 351.8,486.6 351.8,489.7 351.8,492.9 351.8,496.1 351.8,499.2 351.8,502.4 351.8,505.5 351.8,508.7 
		351.8,511.9 351.8,515 351.8,518.2 351.8,521.3 351.8,524.5 351.8,527.7 351.8,530.8 351.8,534 351.8,537.1 351.8,540.3 
		351.8,543.5 351.8,546.6 351.8,549.8 351.8,552.9 351.8,556.1 351.8,559.3 351.8,562.4 351.8,565.6 351.8,568.7 351.8,571.9 
		351.8,575.1 357.3,575.1 362.7,575.1 368.2,575.1 373.7,575.1 373.7,571.9 373.7,568.7 373.7,565.6 373.7,562.4 373.7,559.3 
		373.7,556.1 373.7,552.9 373.7,549.8 373.7,546.6 373.7,543.5 373.7,540.3 373.7,537.1 373.7,534 373.7,530.8 373.7,527.7 
		373.7,524.5 373.7,521.3 373.7,518.2 373.7,515 373.7,511.9 373.7,508.7 379.1,508.7 384.6,508.7 390.1,508.7 395.6,508.7 
		395.6,511.9 395.6,515 395.6,518.2 395.6,521.3 395.6,524.5 395.6,527.7 395.6,530.8 395.6,534 395.6,537.1 395.6,540.3 
		395.6,543.5 395.6,546.6 395.6,549.8 395.6,552.9 395.6,556.1 395.6,559.3 395.6,562.4 395.6,565.6 395.6,568.7 395.6,571.9 
		395.6,575.1 401,575.1 406.5,575.1 412,575.1 417.5,575.1 422.9,575.1 428.4,575.1 433.9,575.1 439.3,575.1 444.8,575.1 
		450.3,575.1 455.8,575.1 461.2,575.1 461.2,571.9 461.2,568.7 461.2,565.6 461.2,562.4 461.2,559.3 461.2,556.1 461.2,552.9 
		461.2,549.8 461.2,546.6 461.2,543.5 461.2,540.3 461.2,537.1 461.2,534 461.2,530.8 461.2,527.7 461.2,524.5 461.2,521.3 
		461.2,518.2 461.2,515 461.2,511.9 461.2,508.7 466.7,508.7 472.2,508.7 477.7,508.7 483.1,508.7 483.1,511.9 483.1,515 
		483.1,518.2 483.1,521.3 483.1,524.5 483.1,527.7 483.1,530.8 483.1,534 483.1,537.1 483.1,540.3 483.1,543.5 483.1,546.6 
		483.1,549.8 483.1,552.9 483.1,556.1 483.1,559.3 483.1,562.4 483.1,565.6 483.1,568.7 483.1,571.9 483.1,575.1 488.6,575.1 
		494.1,575.1 499.5,575.1 505,575.1 510.5,575.1 516,575.1 521.4,575.1 526.9,575.1 532.4,575.1 537.9,575.1 543.3,575.1 
		548.8,575.1 548.8,571.9 548.8,568.7 548.8,565.6 548.8,562.4 548.8,559.3 548.8,556.1 548.8,552.9 548.8,549.8 548.8,546.6 
		548.8,543.5 548.8,540.3 548.8,537.1 548.8,534 548.8,530.8 548.8,527.7 548.8,524.5 548.8,521.3 548.8,518.2 548.8,515 
		548.8,511.9 548.8,508.7 554.3,508.7 559.7,508.7 565.2,508.7 570.7,508.7 570.7,511.9 570.7,515 570.7,518.2 570.7,521.3 
		570.7,524.5 570.7,527.7 570.7,530.8 570.7,534 570.7,537.1 570.7,540.3 570.7,543.5 570.7,546.6 570.7,549.8 570.7,552.9 
		570.7,556.1 570.7,559.3 570.7,562.4 570.7,565.6 570.7,568.7 570.7,571.9 570.7,575.1 576.2,575.1 581.6,575.1 587.1,575.1 
		592.6,575.1 592.6,571.9 592.6,568.7 592.6,565.6 592.6,562.4 592.6,559.3 592.6,556.1 592.6,552.9 592.6,549.8 592.6,546.6 
		592.6,543.5 592.6,540.3 592.6,537.1 592.6,534 592.6,530.8 592.6,527.7 592.6,524.5 592.6,521.3 592.6,518.2 592.6,515 
		592.6,511.9 592.6,508.7 592.6,505.5 592.6,502.4 592.6,499.2 592.6,496.1 592.6,492.9 592.6,489.7 592.6,486.6 587.1,486.6 	"/>
	<polygon class="st2" points="625.4,199.1 625.4,199.1 625.4,199.1 619.9,199.1 614.5,199.1 609,199.1 603.5,199.1 603.5,199.1 
		603.5,199.1 598.1,199.1 592.6,199.1 587.1,199.1 581.6,199.1 581.6,199.1 581.6,199.1 576.2,199.1 570.7,199.1 570.7,202.2 
		570.7,205.4 570.7,208.5 570.7,211.7 570.7,214.9 570.7,218 570.7,221.2 570.7,224.3 570.7,227.5 570.7,230.7 570.7,233.8 
		570.7,237 570.7,240.1 570.7,243.3 570.7,246.5 570.7,249.6 570.7,252.8 570.7,255.9 570.7,259.1 570.7,262.3 570.7,265.4 
		565.2,265.4 559.7,265.4 559.7,265.4 559.7,265.4 554.3,265.4 548.8,265.4 548.8,262.3 548.8,259.1 548.8,255.9 548.8,252.8 
		548.8,249.6 548.8,246.5 548.8,243.3 548.8,240.1 548.8,237 548.8,233.8 548.8,230.7 548.8,227.5 548.8,224.3 548.8,221.2 
		548.8,218 548.8,214.9 548.8,211.7 548.8,208.5 548.8,205.4 548.8,202.2 548.8,199.1 543.3,199.1 537.9,199.1 537.9,199.1 
		537.9,199.1 532.4,199.1 526.9,199.1 521.4,199.1 516,199.1 516,199.1 516,199.1 510.5,199.1 505,199.1 499.5,199.1 494.1,199.1 
		494.1,199.1 494.1,199.1 488.6,199.1 483.1,199.1 483.1,202.2 483.1,205.4 483.1,208.5 483.1,211.7 483.1,214.9 483.1,218 
		483.1,221.2 483.1,224.3 483.1,227.5 483.1,230.7 483.1,233.8 483.1,237 483.1,240.1 483.1,243.3 483.1,246.5 483.1,249.6 
		483.1,252.8 483.1,255.9 483.1,259.1 483.1,262.3 483.1,265.4 477.7,265.4 472.2,265.4 472.2,265.4 472.2,265.4 466.7,265.4 
		461.2,265.4 461.2,262.3 461.2,259.1 461.2,255.9 461.2,252.8 461.2,249.6 461.2,246.5 461.2,243.3 461.2,240.1 461.2,237 
		461.2,233.8 461.2,230.7 461.2,227.5 461.2,224.3 461.2,221.2 461.2,218 461.2,214.9 461.2,211.7 461.2,208.5 461.2,205.4 
		461.2,202.2 461.2,199.1 455.8,199.1 450.3,199.1 444.8,199.1 439.3,199.1 433.9,199.1 428.4,199.1 428.4,199.1 428.4,199.1 
		422.9,199.1 417.5,199.1 412,199.1 406.5,199.1 406.5,199.1 406.5,199.1 401,199.1 395.6,199.1 395.6,202.2 395.6,205.4 
		395.6,208.5 395.6,211.7 395.6,214.9 395.6,218 395.6,221.2 395.6,224.3 395.6,227.5 395.6,230.7 395.6,233.8 395.6,237 
		395.6,240.1 395.6,243.3 395.6,246.5 395.6,249.6 395.6,252.8 395.6,255.9 395.6,259.1 395.6,262.3 395.6,265.4 395.6,268.6 
		395.6,271.7 395.6,274.9 395.6,278 395.6,281.2 395.6,284.4 395.6,287.5 401,287.5 406.5,287.5 412,287.5 417.5,287.5 417.5,284.4 
		417.5,281.2 417.5,278 417.5,274.9 417.5,271.7 417.5,268.6 417.5,265.4 417.5,262.3 417.5,259.1 417.5,255.9 417.5,252.8 
		417.5,249.6 417.5,246.5 417.5,243.3 417.5,240.1 417.5,237 417.5,233.8 417.5,230.7 417.5,227.5 417.5,224.3 417.5,221.2 
		422.9,221.2 428.4,221.2 433.9,221.2 439.3,221.2 439.3,224.3 439.3,227.5 439.3,230.7 439.3,233.8 439.3,237 439.3,240.1 
		439.3,243.3 439.3,246.5 439.3,249.6 439.3,252.8 439.3,255.9 439.3,259.1 439.3,262.3 439.3,265.4 439.3,268.6 439.3,271.7 
		439.3,274.9 439.3,278 439.3,281.2 439.3,284.4 439.3,287.5 444.8,287.5 450.3,287.5 455.8,287.5 461.2,287.5 466.7,287.5 
		472.2,287.5 477.7,287.5 483.1,287.5 488.6,287.5 494.1,287.5 499.5,287.5 505,287.5 505,284.4 505,281.2 505,278 505,274.9 
		505,271.7 505,268.6 505,265.4 505,262.3 505,259.1 505,255.9 505,252.8 505,249.6 505,246.5 505,243.3 505,240.1 505,237 
		505,233.8 505,230.7 505,227.5 505,224.3 505,221.2 510.5,221.2 516,221.2 521.4,221.2 526.9,221.2 526.9,224.3 526.9,227.5 
		526.9,230.7 526.9,233.8 526.9,237 526.9,240.1 526.9,243.3 526.9,246.5 526.9,249.6 526.9,252.8 526.9,255.9 526.9,259.1 
		526.9,262.3 526.9,265.4 526.9,268.6 526.9,271.7 526.9,274.9 526.9,278 526.9,281.2 526.9,284.4 526.9,287.5 532.4,287.5 
		537.9,287.5 543.3,287.5 548.8,287.5 554.3,287.5 559.7,287.5 565.2,287.5 570.7,287.5 576.2,287.5 581.6,287.5 587.1,287.5 
		592.6,287.5 592.6,284.4 592.6,281.2 592.6,278 592.6,274.9 592.6,271.7 592.6,268.6 592.6,265.4 592.6,262.3 592.6,259.1 
		592.6,255.9 592.6,252.8 592.6,249.6 592.6,246.5 592.6,243.3 592.6,240.1 592.6,237 592.6,233.8 592.6,230.7 592.6,227.5 
		592.6,224.3 592.6,221.2 598.1,221.2 603.5,221.2 609,221.2 614.5,221.2 614.5,224.3 614.5,227.5 614.5,230.7 614.5,233.8 
		614.5,237 614.5,240.1 614.5,243.3 614.5,246.5 614.5,249.6 614.5,252.8 614.5,255.9 614.5,259.1 614.5,262.3 614.5,265.4 
		614.5,268.6 614.5,271.7 614.5,274.9 614.5,278 614.5,281.2 614.5,284.4 614.5,287.5 619.9,287.5 625.4,287.5 630.9,287.5 
		636.4,287.5 636.4,284.4 636.4,281.2 636.4,278 636.4,274.9 636.4,271.7 636.4,268.6 636.4,265.4 636.4,262.3 636.4,259.1 
		636.4,255.9 636.4,252.8 636.4,249.6 636.4,246.5 636.4,243.3 636.4,240.1 636.4,237 636.4,233.8 636.4,230.7 636.4,227.5 
		636.4,224.3 636.4,221.2 636.4,218 636.4,214.9 636.4,211.7 636.4,208.5 636.4,205.4 636.4,202.2 636.4,199.1 630.9,199.1 	"/>
	<path class="st2" d="M967.3,376L967.3,376h-5.5h-5.5h-5.5h-5.5l0,0h-5.5h-5.5v-3.2v-3.2v-3.2v-3.2v-3.2V357v-3.2v-3.2v-3.2v-3.2
		v-3.2v-3.2v-3.2v-3.2v-3.2v-3.2v-3.2v-3.2V316v-3.2v-3.2H929h-5.5l0,0l0,0H918h-5.5h-5.5h-5.5l0,0l0,0h-5.5h-5.5h-5.5h-5.5l0,0l0,0
		h-5.5h-5.5v3.2v3.2v3.2v3.2v3.2v3.2v3.2v3.2v3.2v3.2v3.2v3.2v3.2v3.2v3.2v3.2v3.2v3.2v3.2v3.2v3.2h-5.5h-5.5l0,0h-5.5h-5.5v-3.2
		v-3.2v-3.2v-3.2v-3.2V357v-3.2v-3.2v-3.2v-3.2v-3.2v-3.2v-3.2v-3.2v-3.2v-3.2v-3.2v-3.2V316v-3.2v-3.2h-5.5h-5.5l0,0l0,0h-5.5H825
		h-5.5H814l0,0l0,0h-5.5h-5.5h-5.5h-5.5h-5.5h-5.5v3.2v3.2v3.2v3.2v3.2v3.2v3.2v3.2v3.2v3.2v3.2v3.2v3.2v3.2v3.2v3.2v3.2v3.2v3.2
		v3.2v3.2h-5.5h-5.5h0h-5.5h-5.5v-3.2v-3.2v-3.2v-3.2v-3.2V357v-3.2v-3.2v-3.2v-3.2v-3.2v-3.2v-3.2v-3.2v-3.2v-3.2v-3.2v-3.2V316
		v-3.2v-3.2h-5.5h-5.5l0,0h0h-5.5h-5.5h-5.5h-5.5l0,0h0H721h-5.5h-5.5h-5.5l0,0h0h-5.5h-5.5v3.2v3.2v3.2v3.2v3.2v3.2v3.2v3.2v3.2
		v3.2v3.2v3.2v3.2v3.2v3.2v3.2v3.2v3.2v3.2v3.2v3.2v3.2v3.2v3.2v3.2v3.2v3.2v3.2h5.5h5.5h5.5h5.5V395v-3.2v-3.2v-3.2v-3.2v-3.2V376
		v-3.2v-3.2v-3.2v-3.2v-3.2V357v-3.2v-3.2v-3.2v-3.2v-3.2v-3.2v-3.2v-3.2h5.5h5.5h5.5h5.5v3.2v3.2v3.2v3.2v3.2v3.2v3.2v3.2v3.2v3.2
		v3.2v3.2v3.2v3.2v3.2v3.2v3.2v3.2v3.2v3.2v3.2v3.2v3.2v3.2v3.2v3.2v3.2v3.2v3.2v3.2v3.2v3.2v3.2v3.2v3.2v3.2v3.2v3.2v3.2v3.2v3.2
		v3.2h5.5h5.5h5.5h5.5v-3.2v-3.2V455v-3.2v-3.2v-3.2v-3.2v-3.2V436v-3.2v-3.2v-3.2v-3.2v-3.2v-3.2v-3.2v-3.2v-3.2v-3.2v-3.2v-3.2
		h5.5h5.5h5.5h5.5v3.2v3.2v3.2v3.2v3.2v3.2v3.2v3.2v3.2v3.2v3.2v3.2v3.2v3.2v3.2v3.2v3.2v3.2v3.2v3.2v3.2h5.5h5.5h5.5h5.5h5.5h5.5
		h5.5h5.5h5.5h5.5h5.5h5.5v-3.2v-3.2V455v-3.2v-3.2v-3.2v-3.2v-3.2V436v-3.2v-3.2v-3.2v-3.2v-3.2v-3.2v-3.2v-3.2v-3.2v-3.2v-3.2
		v-3.2h5.5h5.5l0,0h5.5h5.5v3.2v3.2v3.2v3.2v3.2v3.2v3.2v3.2v3.2v3.2v3.2v3.2v3.2v3.2v3.2v3.2v3.2v3.2v3.2v3.2v3.2h5.5h5.5h5.5h5.5
		h5.5h5.5h5.5h5.5h5.5h5.5h5.5h5.5v-3.2v-3.2V455v-3.2v-3.2v-3.2v-3.2v-3.2V436v-3.2v-3.2v-3.2v-3.2v-3.2v-3.2v-3.2v-3.2v-3.2v-3.2
		v-3.2v-3.2h5.5h5.5h5.5h5.5v3.2v3.2v3.2v3.2v3.2v3.2v3.2v3.2v3.2v3.2v3.2v3.2v3.2v3.2v3.2v3.2v3.2v3.2v3.2v3.2v3.2h5.5h5.5h5.5h5.5
		v-3.2v-3.2V455v-3.2v-3.2v-3.2v-3.2v-3.2V436v-3.2v-3.2v-3.2v-3.2v-3.2v-3.2v-3.2v-3.2v-3.2v-3.2v-3.2v-3.2V395v-3.2v-3.2v-3.2
		v-3.2v-3.2V376h-5.5H967.3z M819.5,442.3H814l0,0l0,0h-5.5h-5.5v-3.2V436v-3.2v-3.2v-3.2v-3.2v-3.2v-3.2v-3.2v-3.2v-3.2v-3.2v-3.2
		v-3.2V395v-3.2v-3.2v-3.2v-3.2v-3.2V376v-3.2v-3.2v-3.2v-3.2v-3.2V357v-3.2v-3.2v-3.2v-3.2v-3.2v-3.2v-3.2v-3.2h5.5h5.5h5.5h5.5
		v3.2v3.2v3.2v3.2v3.2v3.2v3.2v3.2v3.2v3.2v3.2v3.2v3.2v3.2v3.2v3.2v3.2v3.2v3.2v3.2v3.2v3.2v3.2v3.2v3.2v3.2v3.2v3.2v3.2v3.2v3.2
		v3.2v3.2v3.2v3.2H819.5z M907.1,442.3h-5.5l0,0l0,0h-5.5h-5.5v-3.2V436v-3.2v-3.2v-3.2v-3.2v-3.2v-3.2v-3.2v-3.2v-3.2v-3.2v-3.2
		v-3.2V395v-3.2v-3.2v-3.2v-3.2v-3.2V376v-3.2v-3.2v-3.2v-3.2v-3.2V357v-3.2v-3.2v-3.2v-3.2v-3.2v-3.2v-3.2v-3.2h5.5h5.5h5.5h5.5
		v3.2v3.2v3.2v3.2v3.2v3.2v3.2v3.2v3.2v3.2v3.2v3.2v3.2v3.2v3.2v3.2v3.2v3.2v3.2v3.2v3.2v3.2v3.2v3.2v3.2v3.2v3.2v3.2v3.2v3.2v3.2
		v3.2v3.2v3.2v3.2H907.1z"/>
	<polygon class="st2" points="923.5,486.6 923.5,486.6 923.5,486.6 918,486.6 912.5,486.6 907.1,486.6 901.6,486.6 901.6,486.6 
		901.6,486.6 896.1,486.6 890.7,486.6 885.2,486.6 879.7,486.6 879.7,486.6 879.7,486.6 874.2,486.6 868.8,486.6 868.8,489.7 
		868.8,492.9 868.8,496.1 868.8,499.2 868.8,502.4 868.8,505.5 868.8,508.7 868.8,511.9 868.8,515 868.8,518.2 868.8,521.3 
		868.8,524.5 868.8,527.7 868.8,530.8 868.8,534 868.8,537.1 868.8,540.3 868.8,543.5 868.8,546.6 868.8,549.8 868.8,552.9 
		863.3,552.9 857.8,552.9 857.8,552.9 852.3,552.9 846.9,552.9 846.9,549.8 846.9,546.6 846.9,543.5 846.9,540.3 846.9,537.1 
		846.9,534 846.9,530.8 846.9,527.7 846.9,524.5 846.9,521.3 846.9,518.2 846.9,515 846.9,511.9 846.9,508.7 846.9,505.5 
		846.9,502.4 846.9,499.2 846.9,496.1 846.9,492.9 846.9,489.7 846.9,486.6 841.4,486.6 835.9,486.6 835.9,486.6 835.9,486.6 
		830.5,486.6 825,486.6 819.5,486.6 814,486.6 814,486.6 814,486.6 808.6,486.6 803.1,486.6 797.6,486.6 792.1,486.6 786.7,486.6 
		781.2,486.6 781.2,489.7 781.2,492.9 781.2,496.1 781.2,499.2 781.2,502.4 781.2,505.5 781.2,508.7 781.2,511.9 781.2,515 
		781.2,518.2 781.2,521.3 781.2,524.5 781.2,527.7 781.2,530.8 781.2,534 781.2,537.1 781.2,540.3 781.2,543.5 781.2,546.6 
		781.2,549.8 781.2,552.9 775.7,552.9 770.3,552.9 770.3,552.9 764.8,552.9 759.3,552.9 759.3,549.8 759.3,546.6 759.3,543.5 
		759.3,540.3 759.3,537.1 759.3,534 759.3,530.8 759.3,527.7 759.3,524.5 759.3,521.3 759.3,518.2 759.3,515 759.3,511.9 
		759.3,508.7 759.3,505.5 759.3,502.4 759.3,499.2 759.3,496.1 759.3,492.9 759.3,489.7 759.3,486.6 753.8,486.6 748.4,486.6 
		748.4,486.6 748.4,486.6 742.9,486.6 737.4,486.6 731.9,486.6 726.5,486.6 726.5,486.6 726.5,486.6 721,486.6 715.5,486.6 
		710.1,486.6 704.6,486.6 704.6,486.6 704.6,486.6 699.1,486.6 693.6,486.6 693.6,489.7 693.6,492.9 693.6,496.1 693.6,499.2 
		693.6,502.4 693.6,505.5 693.6,508.7 693.6,511.9 693.6,515 693.6,518.2 693.6,521.3 693.6,524.5 693.6,527.7 693.6,530.8 
		693.6,534 693.6,537.1 693.6,540.3 693.6,543.5 693.6,546.6 693.6,549.8 693.6,552.9 693.6,556.1 693.6,559.3 693.6,562.4 
		693.6,565.6 693.6,568.7 693.6,571.9 693.6,575.1 699.1,575.1 704.6,575.1 710.1,575.1 715.5,575.1 715.5,571.9 715.5,568.7 
		715.5,565.6 715.5,562.4 715.5,559.3 715.5,556.1 715.5,552.9 715.5,549.8 715.5,546.6 715.5,543.5 715.5,540.3 715.5,537.1 
		715.5,534 715.5,530.8 715.5,527.7 715.5,524.5 715.5,521.3 715.5,518.2 715.5,515 715.5,511.9 715.5,508.7 721,508.7 726.5,508.7 
		731.9,508.7 737.4,508.7 737.4,511.9 737.4,515 737.4,518.2 737.4,521.3 737.4,524.5 737.4,527.7 737.4,530.8 737.4,534 
		737.4,537.1 737.4,540.3 737.4,543.5 737.4,546.6 737.4,549.8 737.4,552.9 737.4,556.1 737.4,559.3 737.4,562.4 737.4,565.6 
		737.4,568.7 737.4,571.9 737.4,575.1 742.9,575.1 748.4,575.1 753.8,575.1 759.3,575.1 764.8,575.1 770.3,575.1 775.7,575.1 
		781.2,575.1 786.7,575.1 792.1,575.1 797.6,575.1 803.1,575.1 803.1,571.9 803.1,568.7 803.1,565.6 803.1,562.4 803.1,559.3 
		803.1,556.1 803.1,552.9 803.1,549.8 803.1,546.6 803.1,543.5 803.1,540.3 803.1,537.1 803.1,534 803.1,530.8 803.1,527.7 
		803.1,524.5 803.1,521.3 803.1,518.2 803.1,515 803.1,511.9 803.1,508.7 808.6,508.7 814,508.7 819.5,508.7 825,508.7 825,511.9 
		825,515 825,518.2 825,521.3 825,524.5 825,527.7 825,530.8 825,534 825,537.1 825,540.3 825,543.5 825,546.6 825,549.8 825,552.9 
		825,556.1 825,559.3 825,562.4 825,565.6 825,568.7 825,571.9 825,575.1 830.5,575.1 835.9,575.1 841.4,575.1 846.9,575.1 
		852.3,575.1 857.8,575.1 863.3,575.1 868.8,575.1 874.2,575.1 879.7,575.1 885.2,575.1 890.7,575.1 890.7,571.9 890.7,568.7 
		890.7,565.6 890.7,562.4 890.7,559.3 890.7,556.1 890.7,552.9 890.7,549.8 890.7,546.6 890.7,543.5 890.7,540.3 890.7,537.1 
		890.7,534 890.7,530.8 890.7,527.7 890.7,524.5 890.7,521.3 890.7,518.2 890.7,515 890.7,511.9 890.7,508.7 896.1,508.7 
		901.6,508.7 907.1,508.7 912.5,508.7 912.5,511.9 912.5,515 912.5,518.2 912.5,521.3 912.5,524.5 912.5,527.7 912.5,530.8 
		912.5,534 912.5,537.1 912.5,540.3 912.5,543.5 912.5,546.6 912.5,549.8 912.5,552.9 912.5,556.1 912.5,559.3 912.5,562.4 
		912.5,565.6 912.5,568.7 912.5,571.9 912.5,575.1 918,575.1 923.5,575.1 929,575.1 934.4,575.1 934.4,571.9 934.4,568.7 
		934.4,565.6 934.4,562.4 934.4,559.3 934.4,556.1 934.4,552.9 934.4,549.8 934.4,546.6 934.4,543.5 934.4,540.3 934.4,537.1 
		934.4,534 934.4,530.8 934.4,527.7 934.4,524.5 934.4,521.3 934.4,518.2 934.4,515 934.4,511.9 934.4,508.7 934.4,505.5 
		934.4,502.4 934.4,499.2 934.4,496.1 934.4,492.9 934.4,489.7 934.4,486.6 929,486.6 	"/>
	<path class="st2" d="M967.3,199.1L967.3,199.1L967.3,199.1h-5.5h-5.5h-5.5h-5.5l0,0l0,0h-5.5h-5.5v-3.2v-3.2v-3.2v-3.2v-3.2v-3.2
		v-3.2v-3.2v-3.2v-3.2v-3.2v-3.2V158v-3.2v-3.2v-3.2v-3.2v-3.2V139v-3.2v-3.2H929h-5.5v0v0H918h-5.5h-5.5h-5.5v0v0h-5.5h-5.5h-5.5
		h-5.5v0v0h-5.5h-5.5v3.2v3.2v3.2v3.2v3.2v3.2v3.2v3.2v3.2v3.2v3.2v3.2v3.2v3.2v3.2v3.2v3.2v3.2v3.2v3.2v3.2h-5.5h-5.5l0,0l0,0l0,0
		l0,0h-5.5h-5.5v-3.2v-3.2v-3.2v-3.2v-3.2v-3.2v-3.2v-3.2v-3.2v-3.2v-3.2v-3.2V158v-3.2v-3.2v-3.2v-3.2v-3.2V139v-3.2v-3.2h-5.5
		h-5.5v0v0h-5.5H825h-5.5H814v0v0h-5.5h-5.5h-5.5h-5.5h-5.5h-5.5v3.2v3.2v3.2v3.2v3.2v3.2v3.2v3.2v3.2v3.2v3.2v3.2v3.2v3.2v3.2v3.2
		v3.2v3.2v3.2v3.2v3.2h-5.5h-5.5l0,0h0h-5.5h-5.5v-3.2v-3.2v-3.2v-3.2v-3.2v-3.2v-3.2v-3.2v-3.2v-3.2v-3.2v-3.2V158v-3.2v-3.2v-3.2
		v-3.2v-3.2V139v-3.2v-3.2h-5.5h-5.5v0l0,0h-5.5h-5.5h-5.5h-5.5v0l0,0H721h-5.5h-5.5h-5.5v0l0,0h-5.5h-5.5v3.2v3.2v3.2v3.2v3.2v3.2
		v3.2v3.2v3.2v3.2v3.2v3.2v3.2v3.2v3.2v3.2v3.2v3.2v3.2v3.2v3.2v3.2v3.2v3.2v3.2v3.2v3.2v3.2h5.5h5.5h5.5h5.5V218v-3.2v-3.2v-3.2
		v-3.2v-3.2v-3.2v-3.2v-3.2v-3.2v-3.2v-3.2v-3.2v-3.2v-3.2v-3.2v-3.2v-3.2v-3.2V158v-3.2h5.5h5.5h5.5h5.5v3.2v3.2v3.2v3.2v3.2v3.2
		v3.2v3.2v3.2v3.2v3.2v3.2v3.2v3.2v3.2v3.2v3.2v3.2v3.2v3.2v3.2v3.2v3.2v3.2v3.2v3.2v3.2v3.2v3.2v3.2v3.2v3.2v3.2v3.2v3.2v3.2v3.2
		v3.2v3.2v3.2v3.2v3.2h5.5h5.5h5.5h5.5v-3.2v-3.2V278v-3.2v-3.2v-3.2v-3.2v-3.2v-3.2v-3.2v-3.2v-3.2v-3.2v-3.2v-3.2V237v-3.2v-3.2
		v-3.2v-3.2v-3.2h5.5h5.5h5.5h5.5v3.2v3.2v3.2v3.2v3.2v3.2v3.2v3.2v3.2v3.2v3.2v3.2v3.2v3.2v3.2v3.2v3.2v3.2v3.2v3.2v3.2h5.5h5.5
		h5.5h5.5h5.5h5.5h5.5h5.5h5.5h5.5h5.5h5.5v-3.2v-3.2V278v-3.2v-3.2v-3.2v-3.2v-3.2v-3.2v-3.2v-3.2v-3.2v-3.2v-3.2v-3.2V237v-3.2
		v-3.2v-3.2v-3.2v-3.2h5.5h5.5l0,0h5.5h5.5v3.2v3.2v3.2v3.2v3.2v3.2v3.2v3.2v3.2v3.2v3.2v3.2v3.2v3.2v3.2v3.2v3.2v3.2v3.2v3.2v3.2
		h5.5h5.5h5.5h5.5h5.5h5.5h5.5h5.5h5.5h5.5h5.5h5.5v-3.2v-3.2V278v-3.2v-3.2v-3.2v-3.2v-3.2v-3.2v-3.2v-3.2v-3.2v-3.2v-3.2v-3.2V237
		v-3.2v-3.2v-3.2v-3.2v-3.2h5.5h5.5h5.5h5.5v3.2v3.2v3.2v3.2v3.2v3.2v3.2v3.2v3.2v3.2v3.2v3.2v3.2v3.2v3.2v3.2v3.2v3.2v3.2v3.2v3.2
		h5.5h5.5h5.5h5.5v-3.2v-3.2V278v-3.2v-3.2v-3.2v-3.2v-3.2v-3.2v-3.2v-3.2v-3.2v-3.2v-3.2v-3.2V237v-3.2v-3.2v-3.2v-3.2v-3.2V218
		v-3.2v-3.2v-3.2v-3.2v-3.2v-3.2h-5.5H967.3z M819.5,265.4H814v0v0h-5.5h-5.5v-3.2v-3.2v-3.2v-3.2v-3.2v-3.2v-3.2v-3.2V237v-3.2
		v-3.2v-3.2v-3.2v-3.2V218v-3.2v-3.2v-3.2v-3.2v-3.2v-3.2v-3.2v-3.2v-3.2v-3.2v-3.2v-3.2v-3.2v-3.2v-3.2v-3.2v-3.2v-3.2V158v-3.2
		h5.5h5.5h5.5h5.5v3.2v3.2v3.2v3.2v3.2v3.2v3.2v3.2v3.2v3.2v3.2v3.2v3.2v3.2v3.2v3.2v3.2v3.2v3.2v3.2v3.2v3.2v3.2v3.2v3.2v3.2v3.2
		v3.2v3.2v3.2v3.2v3.2v3.2v3.2v3.2H819.5z M907.1,265.4h-5.5v0v0h-5.5h-5.5v-3.2v-3.2v-3.2v-3.2v-3.2v-3.2v-3.2v-3.2V237v-3.2v-3.2
		v-3.2v-3.2v-3.2V218v-3.2v-3.2v-3.2v-3.2v-3.2v-3.2v-3.2v-3.2v-3.2v-3.2v-3.2v-3.2v-3.2v-3.2v-3.2v-3.2v-3.2v-3.2V158v-3.2h5.5h5.5
		h5.5h5.5v3.2v3.2v3.2v3.2v3.2v3.2v3.2v3.2v3.2v3.2v3.2v3.2v3.2v3.2v3.2v3.2v3.2v3.2v3.2v3.2v3.2v3.2v3.2v3.2v3.2v3.2v3.2v3.2v3.2
		v3.2v3.2v3.2v3.2v3.2v3.2H907.1z"/>
	<polygon class="st2" points="972.7,22.1 967.3,22.1 967.3,22.1 967.3,22.1 961.8,22.1 956.3,22.1 950.9,22.1 945.4,22.1 
		945.4,22.1 945.4,22.1 939.9,22.1 934.4,22.1 929,22.1 923.5,22.1 923.5,22.1 923.5,22.1 918,22.1 912.5,22.1 912.5,25.3 
		912.5,28.4 912.5,31.6 912.5,34.8 912.5,37.9 912.5,41.1 912.5,44.2 912.5,47.4 912.5,50.6 912.5,53.7 912.5,56.9 912.5,60 
		912.5,63.2 912.5,66.4 912.5,69.5 912.5,72.7 912.5,75.8 912.5,79 912.5,82.2 912.5,85.3 912.5,88.5 907.1,88.5 901.6,88.5 
		901.6,88.5 896.1,88.5 890.7,88.5 890.7,85.3 890.7,82.2 890.7,79 890.7,75.8 890.7,72.7 890.7,69.5 890.7,66.4 890.7,63.2 
		890.7,60 890.7,56.9 890.7,53.7 890.7,50.6 890.7,47.4 890.7,44.2 890.7,41.1 890.7,37.9 890.7,34.8 890.7,31.6 890.7,28.4 
		890.7,25.3 890.7,22.1 885.2,22.1 879.7,22.1 879.7,22.1 879.7,22.1 874.2,22.1 868.8,22.1 863.3,22.1 857.8,22.1 857.8,22.1 
		857.8,22.1 852.3,22.1 846.9,22.1 841.4,22.1 835.9,22.1 835.9,22.1 835.9,22.1 830.5,22.1 825,22.1 825,25.3 825,28.4 825,31.6 
		825,34.8 825,37.9 825,41.1 825,44.2 825,47.4 825,50.6 825,53.7 825,56.9 825,60 825,63.2 825,66.4 825,69.5 825,72.7 825,75.8 
		825,79 825,82.2 825,85.3 825,88.5 819.5,88.5 814,88.5 814,88.5 808.6,88.5 803.1,88.5 803.1,85.3 803.1,82.2 803.1,79 
		803.1,75.8 803.1,72.7 803.1,69.5 803.1,66.4 803.1,63.2 803.1,60 803.1,56.9 803.1,53.7 803.1,50.6 803.1,47.4 803.1,44.2 
		803.1,41.1 803.1,37.9 803.1,34.8 803.1,31.6 803.1,28.4 803.1,25.3 803.1,22.1 797.6,22.1 792.1,22.1 786.7,22.1 781.2,22.1 
		775.7,22.1 770.3,22.1 770.3,22.1 770.3,22.1 764.8,22.1 759.3,22.1 753.8,22.1 748.4,22.1 748.4,22.1 748.4,22.1 742.9,22.1 
		737.4,22.1 737.4,25.3 737.4,28.4 737.4,31.6 737.4,34.8 737.4,37.9 737.4,41.1 737.4,44.2 737.4,47.4 737.4,50.6 737.4,53.7 
		737.4,56.9 737.4,60 737.4,63.2 737.4,66.4 737.4,69.5 737.4,72.7 737.4,75.8 737.4,79 737.4,82.2 737.4,85.3 737.4,88.5 
		737.4,91.6 737.4,94.8 737.4,97.9 737.4,101.1 737.4,104.3 737.4,107.4 737.4,110.6 742.9,110.6 748.4,110.6 753.8,110.6 
		759.3,110.6 759.3,107.4 759.3,104.3 759.3,101.1 759.3,97.9 759.3,94.8 759.3,91.6 759.3,88.5 759.3,85.3 759.3,82.2 759.3,79 
		759.3,75.8 759.3,72.7 759.3,69.5 759.3,66.4 759.3,63.2 759.3,60 759.3,56.9 759.3,53.7 759.3,50.6 759.3,47.4 759.3,44.2 
		764.8,44.2 770.3,44.2 775.7,44.2 781.2,44.2 781.2,47.4 781.2,50.6 781.2,53.7 781.2,56.9 781.2,60 781.2,63.2 781.2,66.4 
		781.2,69.5 781.2,72.7 781.2,75.8 781.2,79 781.2,82.2 781.2,85.3 781.2,88.5 781.2,91.6 781.2,94.8 781.2,97.9 781.2,101.1 
		781.2,104.3 781.2,107.4 781.2,110.6 786.7,110.6 792.1,110.6 797.6,110.6 803.1,110.6 808.6,110.6 814,110.6 819.5,110.6 
		825,110.6 830.5,110.6 835.9,110.6 841.4,110.6 846.9,110.6 846.9,107.4 846.9,104.3 846.9,101.1 846.9,97.9 846.9,94.8 
		846.9,91.6 846.9,88.5 846.9,85.3 846.9,82.2 846.9,79 846.9,75.8 846.9,72.7 846.9,69.5 846.9,66.4 846.9,63.2 846.9,60 
		846.9,56.9 846.9,53.7 846.9,50.6 846.9,47.4 846.9,44.2 852.3,44.2 857.8,44.2 863.3,44.2 868.8,44.2 868.8,47.4 868.8,50.6 
		868.8,53.7 868.8,56.9 868.8,60 868.8,63.2 868.8,66.4 868.8,69.5 868.8,72.7 868.8,75.8 868.8,79 868.8,82.2 868.8,85.3 
		868.8,88.5 868.8,91.6 868.8,94.8 868.8,97.9 868.8,101.1 868.8,104.3 868.8,107.4 868.8,110.6 874.2,110.6 879.7,110.6 
		885.2,110.6 890.7,110.6 896.1,110.6 901.6,110.6 907.1,110.6 912.5,110.6 918,110.6 923.5,110.6 929,110.6 934.4,110.6 
		934.4,107.4 934.4,104.3 934.4,101.1 934.4,97.9 934.4,94.8 934.4,91.6 934.4,88.5 934.4,85.3 934.4,82.2 934.4,79 934.4,75.8 
		934.4,72.7 934.4,69.5 934.4,66.4 934.4,63.2 934.4,60 934.4,56.9 934.4,53.7 934.4,50.6 934.4,47.4 934.4,44.2 939.9,44.2 
		945.4,44.2 950.9,44.2 956.3,44.2 956.3,47.4 956.3,50.6 956.3,53.7 956.3,56.9 956.3,60 956.3,63.2 956.3,66.4 956.3,69.5 
		956.3,72.7 956.3,75.8 956.3,79 956.3,82.2 956.3,85.3 956.3,88.5 956.3,91.6 956.3,94.8 956.3,97.9 956.3,101.1 956.3,104.3 
		956.3,107.4 956.3,110.6 961.8,110.6 967.3,110.6 972.7,110.6 978.2,110.6 978.2,107.4 978.2,104.3 978.2,101.1 978.2,97.9 
		978.2,94.8 978.2,91.6 978.2,88.5 978.2,85.3 978.2,82.2 978.2,79 978.2,75.8 978.2,72.7 978.2,69.5 978.2,66.4 978.2,63.2 
		978.2,60 978.2,56.9 978.2,53.7 978.2,50.6 978.2,47.4 978.2,44.2 978.2,41.1 978.2,37.9 978.2,34.8 978.2,31.6 978.2,28.4 
		978.2,25.3 978.2,22.1 	"/>
</g>
<polygon class="st1" points="630.9,552.9 625.4,552.9 625.4,552.9 625.4,552.9 619.9,552.9 614.5,552.9 614.5,556.1 614.5,559.3 
	614.5,562.4 614.5,565.6 614.5,568.7 614.5,571.9 614.5,575.1 619.9,575.1 625.4,575.1 630.9,575.1 636.4,575.1 636.4,571.9 
	636.4,568.7 636.4,565.6 636.4,562.4 636.4,559.3 636.4,556.1 636.4,552.9 "/>
<polygon class="st1" points="630.9,309.6 625.4,309.6 625.4,309.6 625.4,309.6 619.9,309.6 614.5,309.6 614.5,312.8 614.5,316 
	614.5,319.1 614.5,322.3 614.5,325.4 614.5,328.6 614.5,331.8 619.9,331.8 625.4,331.8 630.9,331.8 636.4,331.8 636.4,328.6 
	636.4,325.4 636.4,322.3 636.4,319.1 636.4,316 636.4,312.8 636.4,309.6 "/>
</svg>
