<?xml version="1.0" encoding="utf-8"?>
<!-- Generator: Adobe Illustrator 22.0.1, SVG Export Plug-In . SVG Version: 6.00 Build 0)  -->
<svg version="1.1" id="Layer_1" xmlns="http://www.w3.org/2000/svg" xmlns:xlink="http://www.w3.org/1999/xlink" x="0px" y="0px"
	 viewBox="0 0 1500 300" style="enable-background:new 0 0 1500 300;" xml:space="preserve">
<style type="text/css">
	.st0{fill:#CC4527;}
	.st1{fill:#007E7A;}
	.st2{fill:#010101;}
	.st3{fill:#DAAF28;}
	.st4{fill:#027F7B;}
	.st5{fill:#DCE6D0;}
	.st6{fill:#E4CE87;}
	.st7{fill:#F0E5D5;}
	.st8{fill:#FFFFFF;}
</style>
<g>
	<path class="st0" d="M308.7,98.7c-1.4-0.7-2.2-2-2.6-3.9c-0.4-1.8-0.6-5-0.6-9.4c0-4.4,0.2-7.6,0.6-9.4c0.4-1.8,1.2-3.1,2.6-3.9
		c1.4-0.7,3.6-1.1,6.9-1.1c3.2,0,5.5,0.4,6.8,1.1s2.2,2,2.6,3.9c0.4,1.8,0.6,5,0.6,9.4c0,4.4-0.2,7.6-0.6,9.4
		c-0.4,1.8-1.2,3.1-2.6,3.9c-1.3,0.7-3.6,1.1-6.8,1.1C312.4,99.8,310.1,99.4,308.7,98.7z M320.2,96.3c0.8-0.4,1.4-1.3,1.6-2.8
		c0.3-1.5,0.4-4.2,0.4-8.1c0-3.9-0.1-6.6-0.4-8.1c-0.3-1.5-0.8-2.4-1.6-2.8c-0.8-0.4-2.4-0.6-4.6-0.6s-3.8,0.2-4.7,0.6
		c-0.8,0.4-1.4,1.3-1.7,2.8c-0.3,1.5-0.4,4.2-0.4,8.1c0,3.9,0.1,6.6,0.4,8.1c0.3,1.5,0.8,2.4,1.7,2.8c0.8,0.4,2.4,0.6,4.7,0.6
		S319.4,96.7,320.2,96.3z"/>
	<path class="st0" d="M332.5,99.4V69.1h3.1v30.3H332.5z"/>
	<path class="st0" d="M342.9,72.7v-3.5h3.3v3.5H342.9z M343,99.4V78.6h3.1v20.8H343z"/>
	<path class="st0" d="M358,99.4l-6.7-20.8h3.3l5.3,17.2h0.3l5.3-17.2h3.2l-6.6,20.8H358z"/>
	<path class="st0" d="M373.7,72.7v-3.5h3.3v3.5H373.7z M373.8,99.4V78.6h3.1v20.8H373.8z"/>
	<path class="st0" d="M384.6,98.4c-1-0.9-1.4-2.5-1.4-4.8c0-1.6,0.2-2.8,0.5-3.7c0.3-0.9,0.9-1.5,1.8-1.9c0.8-0.4,2-0.6,3.5-0.6
		c0.8,0,3,0.1,6.6,0.2v-1.4c0-1.7-0.1-2.9-0.4-3.6c-0.3-0.7-0.8-1.2-1.5-1.4c-0.7-0.2-1.9-0.3-3.6-0.3c-0.8,0-1.7,0-2.9,0.1
		c-1.2,0.1-2.1,0.2-2.8,0.3v-2.5c1.9-0.4,4.1-0.6,6.6-0.6c2.2,0,3.8,0.2,4.9,0.7c1.1,0.5,1.8,1.3,2.2,2.4c0.4,1.1,0.6,2.7,0.6,4.9
		v13.1h-2.8l-0.2-2.9h-0.2c-0.5,1.3-1.3,2.2-2.4,2.6c-1.1,0.4-2.4,0.6-3.9,0.6C387.1,99.8,385.5,99.3,384.6,98.4z M393.1,96.7
		c0.7-0.2,1.3-0.7,1.6-1.4c0.5-1.1,0.8-2.5,0.8-4.3v-1.2h-5.8c-1,0-1.7,0.1-2.2,0.3c-0.5,0.2-0.8,0.5-1,1c-0.2,0.5-0.3,1.3-0.3,2.3
		c0,1,0.1,1.8,0.3,2.3c0.2,0.5,0.6,0.8,1.2,1c0.6,0.2,1.5,0.3,2.7,0.3C391.5,97.1,392.4,96.9,393.1,96.7z"/>
	<path class="st0" d="M418.6,98.7c-1.4-0.7-2.2-2-2.6-3.9c-0.4-1.8-0.6-5-0.6-9.4c0-4.4,0.2-7.6,0.6-9.4c0.4-1.8,1.2-3.1,2.6-3.9
		c1.4-0.7,3.6-1.1,6.9-1.1c3.2,0,5.5,0.4,6.8,1.1s2.2,2,2.6,3.9c0.4,1.8,0.6,5,0.6,9.4c0,4.4-0.2,7.6-0.6,9.4
		c-0.4,1.8-1.2,3.1-2.6,3.9c-1.3,0.7-3.6,1.1-6.8,1.1C422.2,99.8,419.9,99.4,418.6,98.7z M430.1,96.3c0.8-0.4,1.4-1.3,1.6-2.8
		c0.3-1.5,0.4-4.2,0.4-8.1c0-3.9-0.1-6.6-0.4-8.1c-0.3-1.5-0.8-2.4-1.6-2.8c-0.8-0.4-2.4-0.6-4.6-0.6s-3.8,0.2-4.7,0.6
		c-0.8,0.4-1.4,1.3-1.7,2.8c-0.3,1.5-0.4,4.2-0.4,8.1c0,3.9,0.1,6.6,0.4,8.1c0.3,1.5,0.8,2.4,1.7,2.8c0.8,0.4,2.4,0.6,4.7,0.6
		S429.2,96.7,430.1,96.3z"/>
	<path class="st0" d="M458.1,99.4L454.1,84h-0.3l-4,15.5H446l-5.7-20.8h3.2l4.3,16.8h0.2l4.3-16.8h3.1l4.4,16.8h0.2l4.3-16.8h3.1
		l-5.7,20.8H458.1z"/>
	<path class="st0" d="M472.9,99.4V69.1h3.1v30.3H472.9z"/>
	<path class="st0" d="M495.9,99.6c-1.3-0.1-2.3-0.2-3.2-0.4v-2.6c2.1,0.3,4.3,0.4,6.4,0.4c1.2,0,2.1-0.1,2.7-0.3
		c0.6-0.2,1-0.6,1.1-1c0.2-0.5,0.3-1.1,0.3-2c0-1-0.1-1.6-0.2-2c-0.1-0.4-0.3-0.7-0.7-0.8c-0.3-0.1-0.8-0.2-1.5-0.3l-4.7-0.6
		c-1.5-0.2-2.6-0.7-3.1-1.5c-0.5-0.8-0.8-2.2-0.8-4.1c0-1.7,0.3-3,0.9-3.9s1.4-1.5,2.4-1.8c1-0.3,2.4-0.4,4.1-0.4
		c0.9,0,1.9,0.1,3,0.2c1.1,0.1,2,0.2,2.7,0.4v2.6c-1.6-0.3-3.5-0.4-5.8-0.4c-1.1,0-1.9,0.1-2.4,0.2c-0.6,0.1-1,0.4-1.3,0.9
		c-0.3,0.5-0.5,1.2-0.5,2.1c0,0.9,0.1,1.5,0.2,1.9c0.1,0.4,0.3,0.7,0.6,0.8c0.3,0.1,0.8,0.3,1.5,0.3l4.7,0.6
		c1.1,0.1,1.9,0.3,2.4,0.7s1,0.9,1.2,1.7c0.3,0.8,0.4,1.9,0.4,3.5c0,1.6-0.3,2.9-0.8,3.8s-1.3,1.5-2.2,1.8c-1,0.3-2.3,0.5-3.9,0.5
		C498.3,99.8,497.2,99.7,495.9,99.6z"/>
	<path class="st0" d="M512.7,98.4c-1-0.9-1.4-2.5-1.4-4.8c0-1.6,0.2-2.8,0.5-3.7c0.3-0.9,0.9-1.5,1.8-1.9c0.8-0.4,2-0.6,3.5-0.6
		c0.8,0,3,0.1,6.6,0.2v-1.4c0-1.7-0.1-2.9-0.4-3.6c-0.3-0.7-0.8-1.2-1.5-1.4c-0.7-0.2-1.9-0.3-3.6-0.3c-0.8,0-1.7,0-2.9,0.1
		c-1.2,0.1-2.1,0.2-2.8,0.3v-2.5c1.9-0.4,4.1-0.6,6.6-0.6c2.2,0,3.8,0.2,4.9,0.7c1.1,0.5,1.8,1.3,2.2,2.4c0.4,1.1,0.6,2.7,0.6,4.9
		v13.1H524l-0.2-2.9h-0.2c-0.5,1.3-1.3,2.2-2.4,2.6c-1.1,0.4-2.4,0.6-3.9,0.6C515.2,99.8,513.6,99.3,512.7,98.4z M521.2,96.7
		c0.7-0.2,1.3-0.7,1.6-1.4c0.5-1.1,0.8-2.5,0.8-4.3v-1.2h-5.8c-1,0-1.7,0.1-2.2,0.3c-0.5,0.2-0.8,0.5-1,1c-0.2,0.5-0.3,1.3-0.3,2.3
		c0,1,0.1,1.8,0.3,2.3c0.2,0.5,0.6,0.8,1.2,1c0.6,0.2,1.5,0.3,2.7,0.3C519.6,97.1,520.5,96.9,521.2,96.7z"/>
	<path class="st0" d="M534.8,107.4v-2.6c2.2,0.1,4.1,0.2,5.5,0.2c1.8,0,3.1-0.2,4-0.7c0.8-0.4,1.4-1.2,1.6-2.1
		c0.2-1,0.4-2.5,0.4-4.5v-1.1h-0.2c-0.4,0.9-1,1.7-1.9,2.2c-0.9,0.5-2.2,0.8-4,0.8c-1.8,0-3.1-0.3-4-0.8s-1.5-1.4-1.8-2.5
		c-0.3-1.1-0.4-2.8-0.4-4.9V78.6h3.1v11.9c0,2,0.1,3.4,0.3,4.2c0.2,0.8,0.6,1.4,1.2,1.7c0.6,0.3,1.6,0.4,2.9,0.4
		c1.5,0,2.6-0.3,3.3-0.9c0.7-0.6,1.1-1.4,1.3-2.3c0.2-1,0.3-2.4,0.3-4.3V78.6h3.1v18.1c0,2.9-0.2,5.1-0.6,6.6
		c-0.4,1.5-1.2,2.6-2.4,3.3c-1.2,0.7-3,1.1-5.4,1.1C539,107.7,536.9,107.6,534.8,107.4z"/>
	<path class="st0" d="M559.5,99.6c-1.3-0.1-2.3-0.2-3.2-0.4v-2.6c2.1,0.3,4.3,0.4,6.4,0.4c1.2,0,2.1-0.1,2.7-0.3
		c0.6-0.2,1-0.6,1.1-1c0.2-0.5,0.3-1.1,0.3-2c0-1-0.1-1.6-0.2-2c-0.1-0.4-0.3-0.7-0.7-0.8c-0.3-0.1-0.8-0.2-1.5-0.3l-4.7-0.6
		c-1.5-0.2-2.6-0.7-3.1-1.5c-0.5-0.8-0.8-2.2-0.8-4.1c0-1.7,0.3-3,0.9-3.9s1.4-1.5,2.4-1.8c1-0.3,2.4-0.4,4.1-0.4
		c0.9,0,1.9,0.1,3,0.2c1.1,0.1,2,0.2,2.7,0.4v2.6c-1.6-0.3-3.5-0.4-5.8-0.4c-1.1,0-1.9,0.1-2.4,0.2c-0.6,0.1-1,0.4-1.3,0.9
		c-0.3,0.5-0.5,1.2-0.5,2.1c0,0.9,0.1,1.5,0.2,1.9c0.1,0.4,0.3,0.7,0.6,0.8c0.3,0.1,0.8,0.3,1.5,0.3l4.7,0.6
		c1.1,0.1,1.9,0.3,2.4,0.7s1,0.9,1.2,1.7c0.3,0.8,0.4,1.9,0.4,3.5c0,1.6-0.3,2.9-0.8,3.8s-1.3,1.5-2.2,1.8c-1,0.3-2.3,0.5-3.9,0.5
		C561.8,99.8,560.7,99.7,559.5,99.6z"/>
	<path class="st0" d="M585,76.6c0-1.5,0.1-2.6,0.3-3.3c0.2-0.7,0.6-1.2,1.2-1.5c0.6-0.3,1.5-0.4,2.8-0.4v1.5c-0.9,0-1.5,0.2-1.8,0.5
		c-0.3,0.3-0.4,1-0.4,2.1v0.7h1.4v3.7H585V76.6z M591.2,76.6c0-1.5,0.1-2.6,0.3-3.3c0.2-0.7,0.6-1.2,1.2-1.5
		c0.6-0.3,1.5-0.4,2.8-0.4v1.5c-0.9,0-1.5,0.2-1.8,0.5c-0.3,0.3-0.4,1-0.4,2.1v0.7h1.4v3.7h-3.5V76.6z"/>
	<path class="st0" d="M616.8,99.4l-3.9-11.2h-0.7h-7.1v11.2h-3.3V71.4h10.8c2.1,0,3.7,0.4,4.7,1.1c1,0.7,1.7,1.6,2,2.8
		c0.3,1.2,0.5,2.7,0.5,4.6c0,2-0.2,3.7-0.7,5.1c-0.5,1.3-1.5,2.3-3.1,2.8l4.3,11.7H616.8z M614.8,84.8c0.7-0.4,1.2-1,1.4-1.7
		c0.2-0.8,0.3-1.8,0.3-3.3c0-1.4-0.1-2.5-0.3-3.3c-0.2-0.7-0.6-1.3-1.3-1.7c-0.7-0.4-1.8-0.6-3.2-0.6h-6.7v11.1h6.4
		C613,85.4,614.1,85.2,614.8,84.8z"/>
	<path class="st0" d="M626.9,98.4c-1-0.9-1.4-2.5-1.4-4.8c0-1.6,0.2-2.8,0.5-3.7c0.3-0.9,0.9-1.5,1.8-1.9c0.8-0.4,2-0.6,3.5-0.6
		c0.8,0,3,0.1,6.6,0.2v-1.4c0-1.7-0.1-2.9-0.4-3.6c-0.3-0.7-0.8-1.2-1.5-1.4c-0.7-0.2-1.9-0.3-3.6-0.3c-0.8,0-1.7,0-2.9,0.1
		c-1.2,0.1-2.1,0.2-2.8,0.3v-2.5c1.9-0.4,4.1-0.6,6.6-0.6c2.2,0,3.8,0.2,4.9,0.7c1.1,0.5,1.8,1.3,2.2,2.4c0.4,1.1,0.6,2.7,0.6,4.9
		v13.1h-2.8l-0.2-2.9h-0.2c-0.5,1.3-1.3,2.2-2.4,2.6c-1.1,0.4-2.4,0.6-3.9,0.6C629.4,99.8,627.9,99.3,626.9,98.4z M635.5,96.7
		c0.7-0.2,1.3-0.7,1.6-1.4c0.5-1.1,0.8-2.5,0.8-4.3v-1.2H632c-1,0-1.7,0.1-2.2,0.3c-0.5,0.2-0.8,0.5-1,1c-0.2,0.5-0.3,1.3-0.3,2.3
		c0,1,0.1,1.8,0.3,2.3c0.2,0.5,0.6,0.8,1.2,1c0.6,0.2,1.5,0.3,2.7,0.3C633.8,97.1,634.8,96.9,635.5,96.7z"/>
	<path class="st0" d="M660.6,87.4c0-2-0.1-3.4-0.3-4.2c-0.2-0.8-0.6-1.4-1.2-1.7c-0.6-0.3-1.6-0.4-2.9-0.4c-1.5,0-2.6,0.3-3.3,0.8
		c-0.7,0.6-1.1,1.3-1.3,2.3c-0.2,1-0.3,2.4-0.3,4.3v10.8h-3.1V78.6h2.8l0.2,2.9h0.2c0.4-1.1,1.1-1.9,2-2.4c0.9-0.6,2.3-0.8,4.1-0.8
		c1.8,0,3.1,0.3,4,0.8c0.9,0.5,1.5,1.4,1.8,2.5c0.3,1.1,0.5,2.7,0.5,4.7v13.1h-3.1V87.4z"/>
	<path class="st0" d="M682.8,99.4l-6.2-9.1h-2.4v9.1h-3.1V69.1h3.1v18.4h2.4l6.2-8.9h3.4l-7.1,10.1l7.2,10.7H682.8z"/>
	<path class="st0" d="M706.1,90.1h-12.5c0,2.1,0.1,3.6,0.3,4.6c0.2,0.9,0.7,1.6,1.5,1.9c0.8,0.4,2.1,0.5,4,0.5
		c1.7,0,3.7-0.1,5.9-0.4v2.5c-0.7,0.2-1.7,0.3-3,0.4c-1.2,0.1-2.4,0.2-3.6,0.2c-2.5,0-4.3-0.3-5.5-1c-1.2-0.6-1.9-1.7-2.3-3.1
		c-0.4-1.4-0.6-3.6-0.6-6.6c0-2.9,0.2-5.1,0.5-6.5c0.3-1.4,1.1-2.5,2.2-3.2c1.2-0.7,3-1,5.5-1c2.3,0,4,0.3,5.1,1
		c1,0.7,1.7,1.7,2,3.1c0.3,1.4,0.4,3.6,0.4,6.6V90.1z M695.3,81.4c-0.7,0.3-1.1,0.9-1.3,1.9c-0.2,0.9-0.3,2.4-0.3,4.5h9.5v-0.4
		c0-1.9-0.1-3.3-0.4-4.2c-0.3-0.9-0.7-1.5-1.3-1.8c-0.6-0.3-1.6-0.4-2.8-0.4C697,81,695.9,81.1,695.3,81.4z"/>
	<path class="st0" d="M714.5,98.8c-1-0.6-1.6-1.7-2-3.2c-0.4-1.5-0.6-3.7-0.6-6.6c0-2.9,0.2-5.1,0.6-6.6c0.4-1.5,1-2.6,2-3.2
		c1-0.6,2.4-0.9,4.2-0.9c1.5,0,2.8,0.2,3.7,0.7c1,0.4,1.7,1.2,2.1,2.2h0.2V69.1h3.1v30.3h-2.8l-0.1-2.9h-0.2
		c-0.5,1.3-1.2,2.1-2.2,2.5c-1,0.4-2.3,0.7-3.7,0.7C716.9,99.8,715.5,99.5,714.5,98.8z M722.8,96.4c0.7-0.4,1.2-1,1.4-1.8
		c0.2-0.7,0.4-1.4,0.4-2.3c0.1-0.9,0.1-2,0.1-3.6c0-1.2,0-2.1-0.1-2.9c-0.1-0.7-0.2-1.4-0.3-2c-0.3-1-0.8-1.7-1.5-2.1
		c-0.7-0.4-1.7-0.7-3-0.7c-1.5,0-2.6,0.2-3.2,0.5c-0.6,0.4-1.1,1.1-1.3,2.1c-0.2,1-0.3,2.8-0.3,5.3c0,2.5,0.1,4.2,0.3,5.3
		c0.2,1.1,0.7,1.8,1.3,2.1c0.7,0.3,1.7,0.5,3.3,0.5C721.1,96.9,722.1,96.8,722.8,96.4z"/>
	<path class="st0" d="M734.5,89.2v-2.9h8.9v2.9H734.5z"/>
	<path class="st0" d="M762.5,99.6c-1,0.1-2,0.1-3,0.1c-2.9,0-5.1-0.4-6.4-1.1c-1.3-0.7-2.2-2.1-2.7-4c-0.5-1.9-0.7-5-0.7-9.3
		c0-4.2,0.2-7.3,0.7-9.2c0.5-1.9,1.4-3.3,2.7-4s3.5-1.1,6.4-1.1c1,0,2,0.1,3,0.2c1,0.1,1.9,0.2,2.5,0.4v2.7
		c-1.6-0.2-3.2-0.4-4.8-0.4c-2.4,0-4,0.2-5,0.7c-1,0.5-1.6,1.4-1.9,2.9c-0.3,1.5-0.4,4.1-0.4,7.8c0,3.7,0.1,6.3,0.4,7.8
		c0.3,1.5,0.9,2.5,1.9,2.9c1,0.5,2.6,0.7,5,0.7c1.9,0,3.6-0.1,4.9-0.4v2.7C764.4,99.4,763.5,99.5,762.5,99.6z"/>
	<path class="st0" d="M783.6,87.4c0-2-0.1-3.4-0.3-4.2c-0.2-0.8-0.6-1.4-1.2-1.7c-0.6-0.3-1.6-0.4-2.9-0.4c-1.5,0-2.6,0.3-3.3,0.8
		s-1.1,1.3-1.3,2.3c-0.2,1-0.3,2.4-0.3,4.3v10.8h-3.1V69.1h3.1v12.2h0.2c0.4-0.9,1.1-1.7,2-2.2c0.9-0.5,2.2-0.8,3.9-0.8
		c1.8,0,3.1,0.3,4,0.8c0.9,0.5,1.5,1.4,1.8,2.5c0.3,1.1,0.5,2.7,0.5,4.7v13.2h-3.1V87.4z"/>
	<path class="st0" d="M795.9,98.9c-1.1-0.6-1.8-1.6-2.1-3c-0.3-1.4-0.5-3.7-0.5-6.9c0-3.2,0.2-5.5,0.5-6.9c0.3-1.4,1-2.4,2.1-3
		c1.1-0.6,2.9-0.9,5.5-0.9c2.6,0,4.4,0.3,5.5,0.9c1.1,0.6,1.8,1.6,2.1,3c0.3,1.4,0.5,3.7,0.5,6.9c0,3.2-0.2,5.5-0.5,6.9
		c-0.3,1.4-1,2.4-2.1,3c-1.1,0.6-2.9,0.9-5.5,0.9C798.8,99.8,797,99.5,795.9,98.9z M804.9,96.5c0.7-0.4,1.1-1,1.2-2
		c0.2-1,0.2-2.8,0.2-5.4c0-2.6-0.1-4.5-0.2-5.4c-0.2-1-0.6-1.7-1.2-2c-0.7-0.4-1.8-0.6-3.5-0.6c-1.7,0-2.9,0.2-3.5,0.6
		c-0.7,0.4-1.1,1-1.2,2c-0.2,1-0.2,2.8-0.2,5.4c0,2.7,0.1,4.5,0.2,5.5s0.6,1.7,1.2,2c0.7,0.4,1.8,0.6,3.5,0.6
		C803.1,97.1,804.2,96.9,804.9,96.5z"/>
	<path class="st0" d="M816,72.7v-3.5h3.3v3.5H816z M816.1,99.4V78.6h3.1v20.8H816.1z"/>
	<path class="st0" d="M836,99.6c-0.9,0.1-1.8,0.2-2.6,0.2c-2.3,0-4-0.4-5-1.1c-1.1-0.7-1.8-1.8-2.1-3.2s-0.5-3.6-0.5-6.4
		c0-2.8,0.2-5,0.6-6.5c0.4-1.5,1.1-2.6,2.2-3.2c1.1-0.7,2.6-1,4.7-1c0.8,0,1.7,0.1,2.6,0.2c0.9,0.1,1.7,0.2,2.3,0.4v2.6
		c-1.4-0.3-2.8-0.4-4.2-0.4c-1.5,0-2.6,0.2-3.3,0.6c-0.7,0.4-1.2,1.2-1.4,2.2c-0.2,1.1-0.3,2.8-0.3,5.2c0,2.4,0.1,4.2,0.4,5.2
		c0.2,1.1,0.7,1.8,1.4,2.2c0.7,0.4,1.8,0.6,3.4,0.6c1.5,0,2.9-0.1,4.3-0.4v2.6C837.7,99.4,836.9,99.5,836,99.6z"/>
	<path class="st0" d="M859.2,90.1h-12.5c0,2.1,0.1,3.6,0.3,4.6c0.2,0.9,0.7,1.6,1.5,1.9c0.8,0.4,2.1,0.5,4,0.5
		c1.7,0,3.7-0.1,5.9-0.4v2.5c-0.7,0.2-1.7,0.3-3,0.4c-1.2,0.1-2.4,0.2-3.6,0.2c-2.5,0-4.3-0.3-5.5-1c-1.2-0.6-1.9-1.7-2.3-3.1
		c-0.4-1.4-0.6-3.6-0.6-6.6c0-2.9,0.2-5.1,0.5-6.5c0.3-1.4,1.1-2.5,2.2-3.2c1.2-0.7,3-1,5.5-1c2.3,0,4,0.3,5.1,1
		c1,0.7,1.7,1.7,2,3.1c0.3,1.4,0.4,3.6,0.4,6.6V90.1z M848.3,81.4c-0.7,0.3-1.1,0.9-1.3,1.9c-0.2,0.9-0.3,2.4-0.3,4.5h9.5v-0.4
		c0-1.9-0.1-3.3-0.4-4.2c-0.3-0.9-0.7-1.5-1.3-1.8c-0.6-0.3-1.6-0.4-2.8-0.4C850.1,81,849,81.1,848.3,81.4z"/>
	<path class="st0" d="M882,99.4l-8.6-28.1h3.4l7.3,24.1h0.2l7.2-24.1h3.3l-8.6,28.1H882z"/>
	<path class="st0" d="M900.7,98.9c-1.1-0.6-1.8-1.6-2.1-3c-0.3-1.4-0.5-3.7-0.5-6.9c0-3.2,0.2-5.5,0.5-6.9c0.3-1.4,1-2.4,2.1-3
		c1.1-0.6,2.9-0.9,5.5-0.9c2.6,0,4.4,0.3,5.5,0.9c1.1,0.6,1.8,1.6,2.1,3c0.3,1.4,0.5,3.7,0.5,6.9c0,3.2-0.2,5.5-0.5,6.9
		c-0.3,1.4-1,2.4-2.1,3c-1.1,0.6-2.9,0.9-5.5,0.9C903.6,99.8,901.8,99.5,900.7,98.9z M909.7,96.5c0.7-0.4,1.1-1,1.2-2
		c0.2-1,0.2-2.8,0.2-5.4c0-2.6-0.1-4.5-0.2-5.4c-0.2-1-0.6-1.7-1.2-2c-0.7-0.4-1.8-0.6-3.5-0.6c-1.7,0-2.9,0.2-3.5,0.6
		c-0.7,0.4-1.1,1-1.2,2c-0.2,1-0.2,2.8-0.2,5.4c0,2.7,0.1,4.5,0.2,5.5s0.6,1.7,1.2,2c0.7,0.4,1.8,0.6,3.5,0.6
		C907.8,97.1,909,96.9,909.7,96.5z"/>
	<path class="st0" d="M922.1,99.4V81.3h-3.6v-2.7h3.6v-6h3.1v6h4.3v2.7h-4.3v18.1H922.1z"/>
	<path class="st0" d="M934.7,72.7v-3.5h3.3v3.5H934.7z M934.7,99.4V78.6h3.1v20.8H934.7z"/>
	<path class="st0" d="M957.6,87.4c0-2-0.1-3.4-0.3-4.2c-0.2-0.8-0.6-1.4-1.2-1.7c-0.6-0.3-1.6-0.4-2.9-0.4c-1.5,0-2.6,0.3-3.3,0.8
		c-0.7,0.6-1.1,1.3-1.3,2.3c-0.2,1-0.3,2.4-0.3,4.3v10.8h-3.1V78.6h2.8l0.2,2.9h0.2c0.4-1.1,1.1-1.9,2-2.4c0.9-0.6,2.3-0.8,4.1-0.8
		c1.8,0,3.1,0.3,4,0.8c0.9,0.5,1.5,1.4,1.8,2.5c0.3,1.1,0.5,2.7,0.5,4.7v13.1h-3.1V87.4z"/>
	<path class="st0" d="M968.3,107.3v-2.5c2.1,0.1,4.1,0.2,5.8,0.2c1.8,0,3.2-0.2,4-0.6s1.4-1.1,1.6-2.1c0.3-1,0.4-2.6,0.4-4.9v-0.7
		h-0.2c-0.4,1-1.1,1.8-2.1,2.2c-1,0.4-2.2,0.7-3.7,0.7c-1.9,0-3.3-0.3-4.3-0.9c-1-0.6-1.6-1.7-2-3.1c-0.4-1.5-0.6-3.7-0.6-6.5
		c0-2.9,0.2-5.1,0.6-6.6c0.4-1.5,1.1-2.6,2-3.2c1-0.6,2.4-0.9,4.2-0.9c1.4,0,2.7,0.2,3.7,0.7c1,0.5,1.8,1.3,2.2,2.6h0.2l0.2-2.9h2.8
		v18c0,3-0.2,5.2-0.6,6.7c-0.4,1.5-1.2,2.6-2.4,3.3c-1.2,0.7-3,1.1-5.5,1.1C972.3,107.7,970.1,107.6,968.3,107.3z M978.1,96.3
		c0.7-0.4,1.2-1,1.4-1.8c0.2-0.6,0.4-1.3,0.4-2.1c0.1-0.8,0.1-1.9,0.1-3.3c0-1.3,0-2.4-0.1-3.1c-0.1-0.8-0.2-1.5-0.4-2
		c-0.3-1-0.8-1.6-1.5-2.1c-0.7-0.4-1.7-0.6-2.9-0.6c-1.5,0-2.6,0.2-3.3,0.5c-0.7,0.3-1.1,1-1.3,2.1c-0.2,1-0.3,2.8-0.3,5.3
		c0,2.4,0.1,4.2,0.3,5.3c0.2,1.1,0.7,1.8,1.3,2.1c0.7,0.3,1.7,0.5,3.3,0.5C976.5,96.9,977.4,96.7,978.1,96.3z"/>
	<path class="st0" d="M1000.3,72.7v-3.5h3.3v3.5H1000.3z M1000.4,99.4V78.6h3.1v20.8H1000.4z"/>
	<path class="st0" d="M1013.5,99.6c-1.3-0.1-2.3-0.2-3.2-0.4v-2.6c2.1,0.3,4.3,0.4,6.4,0.4c1.2,0,2.1-0.1,2.7-0.3
		c0.6-0.2,1-0.6,1.1-1c0.2-0.5,0.3-1.1,0.3-2c0-1-0.1-1.6-0.2-2c-0.1-0.4-0.3-0.7-0.7-0.8c-0.3-0.1-0.8-0.2-1.5-0.3l-4.7-0.6
		c-1.5-0.2-2.6-0.7-3.1-1.5c-0.5-0.8-0.8-2.2-0.8-4.1c0-1.7,0.3-3,0.9-3.9c0.6-0.9,1.4-1.5,2.4-1.8c1-0.3,2.4-0.4,4.1-0.4
		c0.9,0,1.9,0.1,3,0.2c1.1,0.1,2,0.2,2.7,0.4v2.6c-1.6-0.3-3.5-0.4-5.8-0.4c-1.1,0-1.9,0.1-2.4,0.2c-0.6,0.1-1,0.4-1.3,0.9
		c-0.3,0.5-0.5,1.2-0.5,2.1c0,0.9,0.1,1.5,0.2,1.9s0.3,0.7,0.6,0.8c0.3,0.1,0.8,0.3,1.5,0.3l4.7,0.6c1.1,0.1,1.9,0.3,2.4,0.7
		c0.6,0.3,1,0.9,1.2,1.7c0.3,0.8,0.4,1.9,0.4,3.5c0,1.6-0.3,2.9-0.8,3.8s-1.2,1.5-2.2,1.8c-1,0.3-2.3,0.5-3.9,0.5
		C1015.9,99.8,1014.8,99.7,1013.5,99.6z"/>
	<path class="st0" d="M1040.3,99.4V71.4h15.7v2.9h-12.5v9.5h10.8v2.9h-10.8v9.8h12.5v2.9H1040.3z"/>
	<path class="st0" d="M1079,99.4l-2.5-7.7h-10.6l-2.4,7.7h-3.3l9-28.1h4.3l9,28.1H1079z M1071.3,75h-0.2l-4.4,13.9h8.9L1071.3,75z"
		/>
	<path class="st0" d="M1091.2,99.6c-1.5-0.1-2.9-0.2-4-0.4v-2.8c2.9,0.3,5.4,0.4,7.5,0.4c1.3,0,2.3-0.1,3.1-0.2
		c0.7-0.1,1.4-0.4,1.9-0.7c0.5-0.3,0.8-0.8,0.9-1.5s0.2-1.6,0.2-2.7c0-1.4-0.1-2.4-0.2-3s-0.4-1-0.9-1.2c-0.5-0.2-1.3-0.4-2.5-0.6
		l-5.7-0.7c-1.4-0.2-2.4-0.6-3.1-1.2c-0.7-0.6-1.1-1.4-1.4-2.3c-0.2-1-0.3-2.2-0.3-3.8c0-2.1,0.3-3.7,1-4.8c0.7-1.1,1.6-1.9,2.9-2.3
		c1.3-0.4,2.9-0.7,5-0.7c1.4,0,2.8,0.1,4.1,0.2c1.3,0.1,2.5,0.3,3.3,0.5v2.7c-2-0.3-4.3-0.4-6.7-0.4c-1.4,0-2.5,0.1-3.3,0.2
		s-1.4,0.4-1.9,0.8c-0.5,0.4-0.8,0.8-0.9,1.4c-0.1,0.6-0.2,1.4-0.2,2.4c0,1.2,0.1,2.1,0.2,2.6c0.1,0.5,0.4,0.9,0.8,1.2
		c0.4,0.2,1.1,0.4,2,0.5l5.6,0.7c1.5,0.2,2.6,0.5,3.4,0.9c0.8,0.4,1.4,1.1,1.7,2.1c0.4,0.9,0.5,2.4,0.5,4.6c0,2.3-0.3,4.1-0.9,5.3
		c-0.6,1.2-1.5,2-2.7,2.4c-1.2,0.4-2.8,0.6-4.8,0.6C1094.3,99.8,1092.8,99.7,1091.2,99.6z"/>
	<path class="st0" d="M1116.6,99.4V88.7l-8.7-17.4h3.5l6.8,13.7h0.3l6.8-13.7h3.4l-8.8,17.4v10.7H1116.6z"/>
	<path class="st0" d="M1133.6,85.9c-0.3-5.6-0.4-9.1-0.4-10.4v-4.2h3.7v4.2c0,1.3-0.1,4.8-0.4,10.4l-0.2,5.6h-2.3L1133.6,85.9z
		 M1133.1,99.4v-3.8h3.6v3.8H1133.1z"/>
	<path class="st0" d="M1144.1,77.9c0.3-0.3,0.4-1,0.4-2.1v-0.7h-1.4v-3.7h3.5v3.2c0,1.5-0.1,2.6-0.3,3.3c-0.2,0.7-0.6,1.2-1.2,1.5
		c-0.6,0.3-1.5,0.4-2.8,0.4v-1.5C1143.2,78.4,1143.8,78.2,1144.1,77.9z M1150.2,77.9c0.3-0.3,0.4-1,0.4-2.1v-0.7h-1.4v-3.7h3.5v3.2
		c0,1.5-0.1,2.6-0.3,3.3s-0.6,1.2-1.2,1.5c-0.6,0.3-1.5,0.4-2.8,0.4v-1.5C1149.4,78.4,1150,78.2,1150.2,77.9z"/>
</g>
<g>
	<path class="st1" d="M276.7,213.8l-16.3-61.4h11.7l12.5,49h0.5l12.3-49h11.5l-16.4,61.4H276.7z"/>
	<path class="st1" d="M317.6,212.5c-2.6-1.3-4.2-3.5-4.9-6.6c-0.7-3.1-1.1-8-1.1-14.8c0-6.9,0.4-11.9,1.1-14.9
		c0.7-3.1,2.3-5.2,4.9-6.6c2.6-1.3,6.7-2,12.6-2c5.8,0,9.9,0.7,12.5,2c2.6,1.3,4.2,3.5,4.9,6.6c0.7,3.1,1.1,8.1,1.1,14.9
		c0,6.8-0.4,11.8-1.1,14.8c-0.7,3.1-2.3,5.3-4.9,6.6c-2.6,1.3-6.7,2-12.5,2C324.4,214.5,320.2,213.9,317.6,212.5z M335.6,204.7
		c1-0.6,1.6-1.8,1.9-3.6c0.2-1.8,0.4-5.1,0.4-10c0-4.9-0.1-8.3-0.4-10c-0.2-1.8-0.8-2.9-1.8-3.5c-1-0.6-2.8-0.9-5.5-0.9
		c-2.7,0-4.5,0.3-5.5,0.9c-1,0.6-1.6,1.8-1.9,3.5c-0.2,1.8-0.4,5.1-0.4,10c0,4.9,0.1,8.2,0.4,10c0.2,1.8,0.9,3,1.9,3.6
		c1,0.6,2.9,0.9,5.5,0.9C332.8,205.5,334.6,205.2,335.6,204.7z"/>
	<path class="st1" d="M361.4,213.8v-36.5H354v-9h7.4v-13.2h10.7v13.2h8.9v9h-8.9v36.5H361.4z"/>
	<path class="st1" d="M422.1,194.6h-24.9c0,3.6,0.2,6,0.6,7.4c0.4,1.4,1.3,2.3,2.8,2.9c1.5,0.5,4,0.8,7.6,0.8c3.9,0,8-0.2,12.5-0.7
		v8.3c-1.7,0.4-4,0.7-6.8,1c-2.8,0.2-5.5,0.4-8.1,0.4c-5.9,0-10.2-0.8-12.9-2.3c-2.7-1.5-4.5-3.8-5.3-7s-1.2-7.8-1.2-14.1
		c0-6.1,0.4-10.8,1.2-14c0.8-3.2,2.5-5.6,5.1-7.2c2.6-1.6,6.7-2.4,12.2-2.4c5.4,0,9.3,0.8,11.7,2.3c2.4,1.5,3.9,3.8,4.5,6.9
		c0.6,3.1,0.9,7.8,0.9,14.3V194.6z M399.8,177.3c-1,0.5-1.7,1.5-2,2.9c-0.3,1.4-0.5,3.8-0.6,7H412c0-3.3-0.2-5.6-0.6-7.1
		c-0.4-1.5-1.1-2.5-2.1-2.9c-1-0.5-2.5-0.7-4.5-0.7C402.5,176.5,400.9,176.7,399.8,177.3z"/>
	<path class="st1" d="M432.7,152.5h18.5c7.5,0,12.9,0.8,16.1,2.5c3.2,1.7,5.2,4.5,6,8.4c0.8,3.9,1.2,10.5,1.2,19.8
		c0,9.3-0.4,15.9-1.2,19.8c-0.8,3.9-2.8,6.7-6,8.4c-3.2,1.7-8.5,2.5-16.1,2.5h-18.5V152.5z M450.7,204c4.3,0,7.3-0.3,8.8-1
		c1.5-0.7,2.5-2.3,2.9-4.9c0.4-2.6,0.7-7.6,0.7-15c0-7.4-0.2-12.4-0.7-15c-0.4-2.6-1.4-4.2-2.9-4.9c-1.5-0.7-4.4-1-8.8-1h-6.6V204
		H450.7z"/>
	<path class="st1" d="M484.7,157.7v-10.2h11v10.2H484.7z M484.8,213.8v-45.5h10.8v45.5H484.8z"/>
	<path class="st1" d="M510.2,177.4h-7.3v-9h7.3v-4.1c0-5.3,0.6-9.1,1.7-11.3c1.1-2.3,3-3.7,5.6-4.3c2.6-0.6,7-0.9,13-0.9v8
		c-3,0-5.1,0.1-6.3,0.4c-1.2,0.3-2.1,0.8-2.5,1.7c-0.4,0.9-0.7,2.3-0.7,4.4v6.2h9.5v9H521v36.5h-10.8V177.4z M541.6,177.4h-7.3v-9
		h7.3v-4.1c0-5.3,0.6-9.1,1.7-11.3c1.1-2.3,3-3.7,5.6-4.3c2.6-0.6,7-0.9,13-0.9v8c-3,0-5.1,0.1-6.3,0.4s-2.1,0.8-2.5,1.7
		c-0.4,0.9-0.7,2.3-0.7,4.4v6.2h9.5v9h-9.5v36.5h-10.8V177.4z"/>
	<path class="st1" d="M603.7,194.6h-24.9c0,3.6,0.2,6,0.6,7.4c0.4,1.4,1.3,2.3,2.8,2.9c1.5,0.5,4,0.8,7.6,0.8c3.9,0,8-0.2,12.5-0.7
		v8.3c-1.7,0.4-4,0.7-6.8,1c-2.8,0.2-5.5,0.4-8.1,0.4c-5.9,0-10.2-0.8-12.9-2.3c-2.7-1.5-4.5-3.8-5.3-7s-1.2-7.8-1.2-14.1
		c0-6.1,0.4-10.8,1.2-14c0.8-3.2,2.5-5.6,5.1-7.2c2.6-1.6,6.7-2.4,12.2-2.4c5.4,0,9.3,0.8,11.7,2.3c2.4,1.5,3.9,3.8,4.5,6.9
		c0.6,3.1,0.9,7.8,0.9,14.3V194.6z M581.4,177.3c-1,0.5-1.7,1.5-2,2.9c-0.3,1.4-0.5,3.8-0.6,7h14.7c0-3.3-0.2-5.6-0.6-7.1
		c-0.4-1.5-1.1-2.5-2.1-2.9c-1-0.5-2.5-0.7-4.5-0.7C584.1,176.5,582.4,176.7,581.4,177.3z"/>
	<path class="st1" d="M613.4,168.4h10l0.4,7.8h0.7c1-3.2,2.5-5.4,4.5-6.7c2.1-1.2,4.8-1.9,8.2-1.9v10.8c-3.4,0-6,0.5-7.9,1.5
		c-1.9,1-3.2,2.6-4,4.9c-0.8,2.3-1.2,5.4-1.2,9.4v19.6h-10.7V168.4z"/>
	<path class="st1" d="M678.3,194.6h-24.9c0,3.6,0.2,6,0.6,7.4c0.4,1.4,1.3,2.3,2.8,2.9c1.5,0.5,4,0.8,7.6,0.8c3.9,0,8-0.2,12.5-0.7
		v8.3c-1.7,0.4-4,0.7-6.8,1c-2.8,0.2-5.5,0.4-8.1,0.4c-5.9,0-10.2-0.8-12.9-2.3c-2.7-1.5-4.5-3.8-5.3-7s-1.2-7.8-1.2-14.1
		c0-6.1,0.4-10.8,1.2-14c0.8-3.2,2.5-5.6,5.1-7.2c2.6-1.6,6.7-2.4,12.2-2.4c5.4,0,9.3,0.8,11.7,2.3c2.4,1.5,3.9,3.8,4.5,6.9
		c0.6,3.1,0.9,7.8,0.9,14.3V194.6z M656,177.3c-1,0.5-1.7,1.5-2,2.9c-0.3,1.4-0.5,3.8-0.6,7h14.7c0-3.3-0.2-5.6-0.6-7.1
		c-0.4-1.5-1.1-2.5-2.1-2.9c-1-0.5-2.5-0.7-4.5-0.7C658.7,176.5,657,176.7,656,177.3z"/>
	<path class="st1" d="M713,189.3c0-4-0.1-6.7-0.4-8.3c-0.3-1.5-0.8-2.6-1.7-3c-0.9-0.5-2.4-0.7-4.6-0.7c-2.3,0-3.9,0.4-4.9,1.2
		c-1,0.8-1.7,2.1-2.1,3.8c-0.3,1.8-0.5,4.4-0.5,8v23.5H688v-45.5h10l0.4,5.7h0.6c1-2.2,2.4-3.8,4.5-4.9c2-1,4.6-1.6,7.8-1.6
		c3.5,0,6.2,0.6,7.9,1.8c1.8,1.2,3,3,3.6,5.4c0.6,2.4,0.9,5.7,0.9,9.9v29.1H713V189.3z"/>
	<path class="st1" d="M738.3,213.8v-36.5h-7.4v-9h7.4v-13.2H749v13.2h8.9v9H749v36.5H738.3z"/>
	<path class="st1" d="M774.4,214.1c-3.5-0.3-6.6-0.6-9.3-1v-9.4c6.7,0.7,11.9,1,15.9,1c2.7,0,4.8-0.1,6.2-0.4
		c1.5-0.3,2.6-0.8,3.3-1.4c0.7-0.6,1.2-1.4,1.3-2.3c0.2-1,0.3-2.3,0.3-4.1c0-2.2-0.1-3.8-0.4-4.7c-0.3-1-0.8-1.7-1.6-2.1
		c-0.8-0.4-2.1-0.8-3.9-1.1l-11.3-1.6c-4.3-0.5-7.2-2.2-8.8-4.9c-1.6-2.8-2.4-6.8-2.4-12c0-5,0.8-8.8,2.5-11.5
		c1.6-2.6,3.9-4.4,6.8-5.4c2.9-0.9,6.6-1.4,11-1.4c3,0,6.1,0.2,9.2,0.5c3.1,0.3,5.7,0.7,7.8,1.2v9.2c-4.3-0.7-9-1.1-14.2-1.1
		c-2.6,0-4.7,0.1-6.2,0.4c-1.5,0.2-2.7,0.6-3.4,1.2c-0.8,0.5-1.4,1.3-1.6,2.2c-0.2,0.9-0.4,2.3-0.4,4.1c0,2,0.1,3.5,0.4,4.4
		c0.2,0.9,0.7,1.5,1.4,1.9c0.7,0.4,1.9,0.7,3.7,0.9l11.4,1.5c2.5,0.4,4.6,1,6.2,2c1.6,1,2.9,2.6,3.9,4.8c1,2.5,1.5,6,1.5,10.5
		c0,5.4-0.8,9.5-2.3,12.3c-1.5,2.8-3.6,4.6-6.3,5.5c-2.7,0.9-6.3,1.3-10.7,1.3C781.2,214.5,777.9,214.4,774.4,214.1z"/>
	<path class="st1" d="M813.8,211.3c-2-2.1-2.9-5.6-2.9-10.3c0-3.6,0.4-6.3,1.2-8.3c0.8-2,2.1-3.4,4-4.4c1.9-0.9,4.5-1.4,7.8-1.4
		c2.7,0,6.6,0.1,11.9,0.4v-2c0-2.8-0.3-4.8-0.8-5.9c-0.5-1.2-1.4-1.9-2.8-2.2c-1.3-0.3-3.6-0.5-6.9-0.5c-1.5,0-3.5,0.1-6,0.2
		c-2.4,0.1-4.4,0.3-5.9,0.5V169c5.2-0.9,10.3-1.3,15.2-1.3c5.1,0,8.8,0.6,11.4,1.8c2.5,1.2,4.2,3,5.1,5.6c0.9,2.5,1.3,6.1,1.3,10.8
		v28h-10l-0.4-5.5h-0.6c-1.8,4.2-6,6.2-12.4,6.2C818.8,214.5,815.7,213.5,813.8,211.3z M831.8,205.1c1-0.3,1.8-1,2.5-1.9
		c0.9-1.4,1.3-3.7,1.3-7.1v-1.8h-8.9c-1.5,0-2.7,0.1-3.4,0.4c-0.7,0.3-1.3,0.8-1.6,1.6c-0.3,0.8-0.4,2.1-0.4,3.8
		c0,1.6,0.2,2.8,0.5,3.6c0.3,0.8,0.9,1.3,1.8,1.6s2.3,0.4,4.3,0.4C829.5,205.5,830.8,205.4,831.8,205.1z"/>
	<path class="st1" d="M882.3,189.3c0-4-0.1-6.7-0.4-8.3c-0.3-1.5-0.8-2.6-1.7-3c-0.9-0.5-2.4-0.7-4.6-0.7c-2.3,0-3.9,0.4-4.9,1.2
		c-1,0.8-1.7,2.1-2.1,3.8c-0.3,1.8-0.5,4.4-0.5,8v23.5h-10.7v-45.5h10l0.4,5.7h0.6c1-2.2,2.4-3.8,4.5-4.9c2-1,4.6-1.6,7.8-1.6
		c3.5,0,6.2,0.6,7.9,1.8c1.8,1.2,3,3,3.6,5.4c0.6,2.4,0.9,5.7,0.9,9.9v29.1h-10.7V189.3z"/>
	<path class="st1" d="M907.7,213.8v-36.5h-7.4v-9h7.4v-13.2h10.7v13.2h8.9v9h-8.9v36.5H907.7z"/>
	<path class="st1" d="M934.4,211.3c-2-2.1-2.9-5.6-2.9-10.3c0-3.6,0.4-6.3,1.2-8.3c0.8-2,2.1-3.4,4-4.4c1.9-0.9,4.5-1.4,7.8-1.4
		c2.7,0,6.6,0.1,11.9,0.4v-2c0-2.8-0.3-4.8-0.8-5.9c-0.5-1.2-1.4-1.9-2.8-2.2c-1.3-0.3-3.6-0.5-6.9-0.5c-1.5,0-3.5,0.1-6,0.2
		c-2.4,0.1-4.4,0.3-5.9,0.5V169c5.2-0.9,10.3-1.3,15.2-1.3c5.1,0,8.8,0.6,11.4,1.8c2.5,1.2,4.2,3,5.1,5.6c0.9,2.5,1.3,6.1,1.3,10.8
		v28h-10l-0.4-5.5H956c-1.8,4.2-6,6.2-12.4,6.2C939.4,214.5,936.4,213.5,934.4,211.3z M952.5,205.1c1-0.3,1.8-1,2.5-1.9
		c0.9-1.4,1.3-3.7,1.3-7.1v-1.8h-8.9c-1.5,0-2.7,0.1-3.4,0.4c-0.7,0.3-1.3,0.8-1.6,1.6c-0.3,0.8-0.4,2.1-0.4,3.8
		c0,1.6,0.2,2.8,0.5,3.6c0.3,0.8,0.9,1.3,1.8,1.6s2.3,0.4,4.3,0.4C950.2,205.5,951.5,205.4,952.5,205.1z"/>
	<path class="st1" d="M978.9,213.8v-61.4h34.2v9.8h-22.9v17.1h20.2v9.9h-20.2v24.5H978.9z"/>
	<path class="st1" d="M1054.3,194.6h-24.9c0,3.6,0.2,6,0.6,7.4c0.4,1.4,1.3,2.3,2.8,2.9c1.5,0.5,4,0.8,7.6,0.8c3.9,0,8-0.2,12.5-0.7
		v8.3c-1.7,0.4-4,0.7-6.8,1c-2.8,0.2-5.5,0.4-8.1,0.4c-5.9,0-10.2-0.8-12.9-2.3c-2.7-1.5-4.5-3.8-5.3-7s-1.2-7.8-1.2-14.1
		c0-6.1,0.4-10.8,1.2-14c0.8-3.2,2.5-5.6,5.1-7.2c2.6-1.6,6.7-2.4,12.2-2.4c5.4,0,9.3,0.8,11.7,2.3c2.4,1.5,3.9,3.8,4.5,6.9
		c0.6,3.1,0.9,7.8,0.9,14.3V194.6z M1032,177.3c-1,0.5-1.7,1.5-2,2.9c-0.3,1.4-0.5,3.8-0.6,7h14.7c0-3.3-0.2-5.6-0.6-7.1
		c-0.4-1.5-1.1-2.5-2.1-2.9c-1-0.5-2.5-0.7-4.5-0.7C1034.6,176.5,1033,176.7,1032,177.3z"/>
	<path class="st1" d="M1063.6,213.8v-11.1h11.9v11.1H1063.6z"/>
	<path class="st1" d="M1107.9,214.2c-2.1,0.2-4.2,0.4-6.1,0.4c-5.1,0-8.9-0.8-11.3-2.5c-2.4-1.7-4-4.1-4.7-7.3
		c-0.7-3.2-1.1-7.7-1.1-13.7c0-5.8,0.4-10.4,1.2-13.6s2.4-5.7,4.8-7.4c2.4-1.6,6-2.5,10.9-2.5c2,0,4.1,0.1,6.2,0.4
		c2.1,0.2,3.8,0.6,5.1,1v8.4c-2.6-0.5-5.4-0.7-8.5-0.7c-2.8,0-4.8,0.3-6,1c-1.2,0.7-2,2-2.4,3.9c-0.4,1.9-0.6,5.1-0.6,9.5
		c0,4.5,0.2,7.7,0.6,9.6c0.4,1.9,1.2,3.2,2.5,3.9c1.2,0.7,3.2,1,6,1c3.1,0,6-0.2,8.7-0.6v8.3C1111.9,213.6,1110.1,214,1107.9,214.2z
		"/>
	<path class="st1" d="M1126.8,212.5c-2.6-1.3-4.2-3.5-4.9-6.6c-0.7-3.1-1.1-8-1.1-14.8c0-6.9,0.4-11.9,1.1-14.9
		c0.7-3.1,2.3-5.2,4.9-6.6c2.6-1.3,6.7-2,12.6-2c5.8,0,9.9,0.7,12.5,2c2.6,1.3,4.2,3.5,4.9,6.6c0.7,3.1,1.1,8.1,1.1,14.9
		c0,6.8-0.4,11.8-1.1,14.8c-0.7,3.1-2.3,5.3-4.9,6.6c-2.6,1.3-6.7,2-12.5,2C1133.5,214.5,1129.3,213.9,1126.8,212.5z M1144.8,204.7
		c1-0.6,1.6-1.8,1.9-3.6c0.2-1.8,0.4-5.1,0.4-10c0-4.9-0.1-8.3-0.4-10c-0.2-1.8-0.8-2.9-1.8-3.5c-1-0.6-2.8-0.9-5.5-0.9
		c-2.7,0-4.5,0.3-5.5,0.9c-1,0.6-1.6,1.8-1.9,3.5c-0.2,1.8-0.4,5.1-0.4,10c0,4.9,0.1,8.2,0.4,10c0.2,1.8,0.9,3,1.9,3.6
		c1,0.6,2.9,0.9,5.5,0.9C1141.9,205.5,1143.8,205.2,1144.8,204.7z"/>
	<path class="st1" d="M1214.8,189.3c0-3.9-0.1-6.7-0.4-8.2c-0.3-1.6-0.8-2.6-1.6-3.1c-0.8-0.5-2.2-0.7-4.2-0.7c-2,0-3.5,0.4-4.4,1.2
		c-0.9,0.8-1.5,2-1.8,3.8c-0.3,1.8-0.4,4.4-0.4,8.1v23.5h-10.7v-24.5c0-3.9-0.1-6.7-0.4-8.2c-0.3-1.6-0.8-2.6-1.6-3.1
		c-0.8-0.5-2.2-0.7-4.2-0.7c-2,0-3.5,0.4-4.5,1.2c-1,0.8-1.6,2.1-1.9,3.8c-0.3,1.8-0.4,4.4-0.4,8v23.5h-10.7v-45.5h10l0.4,5.7h0.6
		c1-2.2,2.4-3.8,4.3-4.9c1.9-1,4.4-1.6,7.4-1.6c3.2,0,5.7,0.5,7.4,1.6c1.7,1,2.9,2.7,3.5,4.9h0.6c1-2.2,2.4-3.8,4.4-4.9
		c2-1,4.5-1.6,7.6-1.6c3.3,0,5.8,0.6,7.5,1.8c1.7,1.2,2.9,3,3.5,5.4c0.6,2.4,0.9,5.6,0.9,9.7v29.2h-10.7V189.3z"/>
</g>
<path class="st0" d="M138.9,185.6c3.3-7.4,6.8-14.6,10.7-21.7c7.8-14.1,17.1-27.4,28-39.4c5.5-5.9,11.4-11.3,17.5-16.5
	c6.1-5.1,12.5-9.9,19.1-14.2c6.6-4.4,13.4-8.4,20.3-12.1c7-3.6,14.1-7,21.4-9.6c-7,3.5-13.6,7.7-20,12.1
	c-6.4,4.4-12.5,9.2-18.4,14.2c-11.7,10-22.3,21.3-31.3,33.4c-9.2,12-16.7,25.2-22.9,39c-3.1,6.9-5.8,13.9-8.2,21.1
	c-1.2,3.6-2.3,7.2-3.3,10.8c-0.5,1.8-1,3.6-1.4,5.4l-0.6,2.7l-0.3,1.3c-0.1,0.4-0.2,0.9-0.2,1.2l-2.9,16.6L133,218l-55.7-49
	l17.8-18.6l40.1,41.7l0.6,0.6"/>
<g>
	<path class="st2" d="M1322.2,227.9c-1.2,2.3-6.5,3.4-8.8,4.7c-1.6,0.9-3.1,1.9-4.1,3.4c2.4-1.1,4.9-2.1,7.4-3.1
		c3.1-1.2,5.7-1.2,9.4-1.6c1.7-0.2,3.5-0.4,5.2-0.3c-1.6-1.7-4.4-1.8-5.3-3.9c-0.5-1.2-1.3-7.9-1.4-9.4c-3.1-0.9-1.8,3-1.6,4.6
		C1323.1,224.3,1323.2,226,1322.2,227.9z"/>
	<path class="st2" d="M1350.5,232c-1.2,2.3-7.1,2.7-9.4,4c-1.6,0.9-2.5,2.6-3.5,4.2c2.4-1.1,4.9-2.1,7.4-3.1
		c3.1-1.2,5.7-1.2,9.4-1.6c1.7-0.2,3.5-0.4,5.2-0.3c-1.6-1.7-4.4-1.8-5.3-3.9c-0.5-1.2-1.3-7.9-1.4-9.4c-3.1-0.9-1.8,3-1.6,4.6
		C1351.5,228.5,1351.6,230.1,1350.5,232z"/>
	<path class="st3" d="M1286.2,77.5c-18.2,3.8-21,21.5-13.2,36.3c3.8,7.2,9.6,12.4,16.1,17.1c-6.1,10.1-7.4,20.8-7.3,33.2
		c0.1,11.5,4.2,23.5,12.3,34.2c7,9.1,16.8,22.8,28,22c4.6-0.3,8.7-3,13.4-1.9c4.8,1.1,8.4,5.1,13.4,5.6
		c12.6,1.2,28.4-10.2,34.3-15.2c-7.1-10.8-33.2-48.7-24.5-70.6c13.7-4.8,21.9-17.6,19.4-29.2c-2.7-12.5-9-19-22.1-25.5
		C1344.3,77.7,1313.6,71.7,1286.2,77.5z"/>
	<path class="st4" d="M1286.6,66.5c-5.7-1.7-10.5-6.8-8.5-12.5c2.5-7,4.2,6.6,11.9,7.1c-1.9-0.8-5.2-5.8-6.1-10.7
		c-0.9-5.1,2.3-8.8,4.1-9.6c6.5-2.8,2.3,6.6,4.9,14.2c1.7,5,4.7,6,10.2,5.2c17.7-2.5,39.4-2.5,63.9,14.6c7.1,2.8,10.8-2.3,13.8-7.2
		c3.5-5.7,12.6-5.2,8.4,2.4c-2.5,4.4-9.2,8.6-13.8,10.4c4.2,3,14.3-6.1,15.4-0.7c1.3,6.5-11.6,6.9-14.9,6.6
		c6.7,11.5,7.2,25.7,1.6,33.5c-0.6-16.7-9.4-27.8-20.3-31.2c-8.7-2.7-26.9-5.1-37.3,13.4c-1.6-9.8-7-19.1-15.8-22.7
		c-9.9-4.1-18.3-3-26,2.9c-5.5,4.2-8.8,11.4-9.2,14.5C1267.5,85.7,1276.8,70,1286.6,66.5z"/>
	<path class="st4" d="M1342,140.5c-7.2,5.6-10.7,13-10.7,26.1c0,11.3,10.1,34.7,37.6,40.7c9.3,2.1,26.3,3.9,32.7,1.2
		c-11.8-12.1-24.3-48.1-29.4-58.7C1364.7,134.5,1349.3,134.9,1342,140.5z"/>
	<g>
		<path class="st5" d="M1342.8,183.9c4.2,2.2,8.5,0,7.4-4.9c-0.5-2.1-1.5-4.2-2.3-6.2c0.6,2.7,2.2,8.2-1.2,9.7
			c-3.4,1.4-6.2-2.9-7.8-5.1c-1-1.4-2-3-3-4.4C1336.9,176.7,1339.3,182,1342.8,183.9z"/>
		<path class="st5" d="M1359.9,182.8c3.7,2,7,0.5,6.6-3.9c-0.2-2.2-1-4.3-1.8-6.3c0.2,2.5,1.9,7.7-2,8.6c-3,0.6-5.4-1.9-6.8-3.9
			c-0.9-1.2-2.3-3.5-3.2-4.6c0.7,3,2.2,4.9,3,6.2C1356.7,180.4,1358.1,181.8,1359.9,182.8z"/>
		<path class="st5" d="M1361.4,198.1c4,1.1,6.8-1.5,5.3-5.4c-0.6-1.7-2-2.9-3.1-4.4c1.5,3.1,3,6.4-0.1,7.7c-2.7,1.1-5.4-0.8-7.1-2.5
			c-1-1-2-2.7-2.8-3.8C1355.1,194.1,1357.6,197.1,1361.4,198.1z"/>
		<path class="st5" d="M1376.3,179.8c3.7,0.9,5.3,0.3,4.8-3.4c-0.3-1.9-1.8-3.9-2.7-5.3c1.4,2.8,2.7,5.6-0.1,6.8
			c-2.5,1-5-0.7-6.5-2.2c-0.9-0.9-1.8-2.4-2.6-3.3C1370.6,176.2,1372.9,178.9,1376.3,179.8z"/>
		<path class="st5" d="M1380.5,191.8c3.9-1.1,2.3-5.3-0.4-8.6c1.8,4,1.8,7.2-2.4,6.7c-2.6-0.3-4.5-3.3-6.5-4.9
			c1.7,2.9,2.9,4,3.7,4.6C1376.4,191,1378.4,192.4,1380.5,191.8z"/>
		<path class="st5" d="M1380.5,201.9c3.2-1.3,0.9-5.1-0.5-7.1c1.7,1.9,5.4,5.7,2.9,8.2c-2.4,2.4-6.7,0.3-8.7-1.6
			c-1.2-1.2-2.1-2.6-2.9-4C1374.2,199.1,1376.3,203.6,1380.5,201.9z"/>
	</g>
	<g>
		<path class="st6" d="M1313.9,99c0,11.2-9.1,20.3-20.3,20.3c-11.2,0-20.3-9.1-20.3-20.3c0-11.2,9.1-20.3,20.3-20.3
			C1304.9,78.7,1313.9,87.8,1313.9,99z"/>
		<circle class="st7" cx="1293.6" cy="99" r="17.8"/>
		<circle class="st2" cx="1299.1" cy="102.3" r="5.5"/>
		<path class="st8" d="M1303,101.6c0,1-0.8,1.8-1.8,1.8c-1,0-1.8-0.8-1.8-1.8s0.8-1.8,1.8-1.8C1302.1,99.8,1303,100.6,1303,101.6z"
			/>
	</g>
	<g>
		<path class="st6" d="M1369.2,108.6c0,11.5-9.4,20.9-20.9,20.9c-11.5,0-20.9-9.4-20.9-20.9c0-11.5,9.4-20.9,20.9-20.9
			C1359.9,87.7,1369.2,97.1,1369.2,108.6z"/>
		<path class="st7" d="M1366.6,108.6c0,10.1-8.2,18.3-18.3,18.3c-10.1,0-18.3-8.2-18.3-18.3c0-10.1,8.2-18.3,18.3-18.3
			C1358.4,90.3,1366.6,98.5,1366.6,108.6z"/>
		<path class="st2" d="M1346.9,109.5c0,3.2-2.6,5.7-5.7,5.7c-3.2,0-5.7-2.6-5.7-5.7c0-3.2,2.6-5.7,5.7-5.7
			C1344.3,103.8,1346.9,106.3,1346.9,109.5z"/>
		<path class="st8" d="M1341.2,108.3c0,1-0.8,1.9-1.9,1.9s-1.9-0.8-1.9-1.9s0.8-1.9,1.9-1.9S1341.2,107.3,1341.2,108.3z"/>
	</g>
	<path class="st2" d="M1322.5,116.4c-1.7,2.3-7.6,7.9-9.6,7.6c-1.1-0.1-1.8-8.5-0.9-10.1c1.3,1.2,3.3,1.9,4,2.1
		C1318.2,116.6,1320.2,116.5,1322.5,116.4z"/>
	<g>
		<path class="st7" d="M1290,139.9c-1.5,0.8-3,2.9-2.7,4.6c0.2,1.1,1.6,1.3,2.3,0.6c0.6-0.5,0.7-1.3,1-2c0.3-0.6,0.5-1.3,0.8-1.9
			C1291.9,140.4,1290.9,139.4,1290,139.9L1290,139.9z"/>
		<path class="st7" d="M1298.2,144.9c-0.5,0.8-0.8,1.6-1.1,2.5c-0.3,0.9-0.8,1.9,0,2.6c0.3,0.3,0.7,0.3,1,0.1c0.8-0.4,0.8-1.4,1-2.2
			c0.2-0.8,0.5-1.6,0.7-2.4C1300.1,144.6,1298.7,144.1,1298.2,144.9L1298.2,144.9z"/>
		<path class="st7" d="M1307.7,147.1c-0.9,1-1.4,2.6-1.6,4c-0.2,1.4,1.8,2,2.1,0.6c0.3-1.4,0.6-3,0.2-4.4
			C1308.3,147,1307.9,146.9,1307.7,147.1L1307.7,147.1z"/>
		<path class="st7" d="M1316.3,148.3c-0.2,0.8-0.2,1.6-0.1,2.5c0.1,0.9,0.2,2.1,0.7,2.8c0.5,0.6,1.7,0.7,1.9-0.2
			c0.2-0.8-0.1-1.7-0.3-2.5c-0.2-0.8-0.4-1.7-0.6-2.5C1317.7,147.5,1316.5,147.5,1316.3,148.3L1316.3,148.3z"/>
		<path class="st7" d="M1327,147.5c0.1,1.3,0.4,2.5,0.5,3.7c0.2,1,0.1,2.2,1.2,2.7c0.2,0.1,0.5,0.1,0.7-0.1c0.8-0.8,0.5-1.8,0.3-2.8
			c-0.3-1.4-0.6-2.7-1.3-4C1328.1,146.5,1327,146.8,1327,147.5L1327,147.5z"/>
		<path class="st7" d="M1291.5,149.3c-0.5,1.3-1.3,3.4-0.6,4.7c0.3,0.7,1.4,0.7,1.8,0c0.3-0.7,0.3-1.4,0.3-2.1
			c0.1-0.7,0.3-1.4,0.5-2.1c0.2-0.5-0.2-1.2-0.7-1.3C1292.2,148.4,1291.7,148.8,1291.5,149.3L1291.5,149.3z"/>
		<path class="st7" d="M1300.6,153.8c-0.2,0.6-0.2,1.3-0.2,2c0,0.8-0.1,1.5,0.4,2.2c0.3,0.3,1,0.3,1.2,0c0.5-0.6,0.4-1.3,0.4-2
			c0-0.7,0-1.5-0.2-2.2C1301.9,153.1,1300.9,153.1,1300.6,153.8L1300.6,153.8z"/>
		<path class="st7" d="M1311,155.3c-0.3,0.7-0.3,1.3-0.4,2c-0.1,0.7-0.3,1.4-0.4,2.1c-0.2,1.2,1.7,1.3,2,0.3
			c0.2-0.7,0.2-1.5,0.2-2.1c0-0.7,0-1.4,0-2.1C1312.3,154.7,1311.3,154.6,1311,155.3L1311,155.3z"/>
		<path class="st7" d="M1323.1,156.1c-0.5,1.2-0.1,2.7,0.3,3.9c0.4,1.3,2.4,0.7,2-0.5c-0.4-1.1-0.6-2.4-1.1-3.5
			C1324.1,155.3,1323.3,155.6,1323.1,156.1L1323.1,156.1z"/>
		<path class="st7" d="M1284.9,156.6c-0.5,1.3-0.4,2.8-0.3,4.2c0.2,1.3,2,1.1,1.8-0.2c-0.2-1.3-0.2-2.7-0.6-4
			C1285.6,156.2,1285.1,156.2,1284.9,156.6L1284.9,156.6z"/>
		<path class="st7" d="M1295.6,160.2c-0.7,1.2-0.7,2.7-0.4,4.1c0.1,0.4,0.5,0.8,1,0.7c0.2,0,0.3,0,0.5-0.1c0.4-0.2,0.6-0.7,0.5-1.1
			c-0.4-1.1-0.4-2.3-0.7-3.4C1296.3,159.9,1295.8,159.8,1295.6,160.2L1295.6,160.2z"/>
		<path class="st7" d="M1306.2,161.6c-0.8,1.6-0.8,3.6-0.1,5.2c0.5,1.2,2.1,0.7,1.9-0.5c-0.3-1.5-0.6-3.1-0.9-4.6
			C1307,161.3,1306.4,161.2,1306.2,161.6L1306.2,161.6z"/>
		<path class="st7" d="M1317.3,161.6c-1,1.3-1,3.9,0.2,5.1c0.5,0.5,1.6,0.3,1.7-0.4c0.1-0.7-0.1-1.3-0.2-2.1
			c-0.2-0.8-0.1-1.5-0.4-2.3C1318.4,161.5,1317.7,161.2,1317.3,161.6L1317.3,161.6z"/>
		<path class="st7" d="M1289.1,170.5c-0.3,1.2-0.2,2.5-0.2,3.7c0,1.5,2.3,1.5,2.3,0c0-1.2,0.1-2.6-0.2-3.7
			C1290.7,169.6,1289.4,169.6,1289.1,170.5L1289.1,170.5z"/>
		<path class="st7" d="M1300.2,171.6c-0.6,1.4-0.3,4,1,5c0.6,0.4,1.5-0.2,1.5-0.9c0-0.7-0.3-1.3-0.5-1.9c-0.2-0.7-0.3-1.5-0.6-2.2
			C1301.3,170.9,1300.5,170.9,1300.2,171.6L1300.2,171.6z"/>
		<path class="st7" d="M1312.1,171.4c-0.8,1.5-0.2,4.1,1.1,5.2c0.6,0.5,1.6-0.2,1.6-0.9c-0.1-0.8-0.5-1.4-0.7-2.2
			c-0.3-0.7-0.4-1.4-0.8-2.1C1313,171,1312.4,171,1312.1,171.4L1312.1,171.4z"/>
		<path class="st7" d="M1326.4,170c-1,0.6-0.4,2.5-0.2,3.3c0.1,0.7,0.2,1.5,0.6,2.1c0.2,0.3,0.4,0.6,0.8,0.6
			c0.6,0.2-0.3-0.1,0.3,0.1c0.2,0.1,0.4,0,0.5-0.2c0.8-1.1,0.1-2.5-0.2-3.8C1328,171.6,1327.6,169.3,1326.4,170L1326.4,170z"/>
		<path class="st7" d="M1296.2,182.1c-0.1,0.9,0.2,1.9,0.5,2.7c0.4,1,0.8,2.1,1.7,2.7c0.8,0.5,2.2-0.3,1.8-1.4
			c-0.4-0.9-0.9-1.6-1.3-2.5c-0.4-0.8-0.8-1.7-1.6-2.1C1296.8,181.2,1296.3,181.6,1296.2,182.1L1296.2,182.1z"/>
		<path class="st7" d="M1320.6,180.2c-0.2,0.9,0,1.8,0.2,2.7c0.2,1,0.4,2.2,1.3,2.9c0.5,0.4,1.2,0.3,1.5-0.4c0.3-0.9,0-1.9-0.3-2.8
			c-0.3-1-0.6-2-1.3-2.8C1321.5,179.5,1320.7,179.6,1320.6,180.2L1320.6,180.2z"/>
		<path class="st7" d="M1315.7,187.4c-0.4,0.8-0.1,1.9,0.1,2.7c0.3,1,0.5,2.5,1.7,2.7c0.5,0.1,0.9-0.1,1.3-0.5
			c0.6-0.9-0.1-2.1-0.4-2.9c-0.3-0.9-0.8-2-1.7-2.4C1316.3,186.9,1315.9,187.1,1315.7,187.4L1315.7,187.4z"/>
		<path class="st7" d="M1307.4,180.8c-0.3,1.2,0.1,2.9,0.5,4c0.4,1.1,2.1,0.7,1.8-0.5c-0.1-0.7-0.4-1.3-0.6-1.9
			c-0.2-0.6-0.3-1.2-0.6-1.7C1308.3,180.1,1307.5,180.3,1307.4,180.8L1307.4,180.8z"/>
	</g>
	<g>
		<path class="st5" d="M1324,80.3c-0.8,0.5-1.1,1.4-1.4,2.2c-0.4,1.1-0.9,2.4-0.9,3.6c0,1.1,1.6,1.3,1.9,0.3c0.3-1,0.4-2,0.7-3
			c0.2-0.8,0.7-1.7,0.6-2.5C1324.9,80.4,1324.4,80.1,1324,80.3L1324,80.3z"/>
		<path class="st5" d="M1316.6,74.6c-0.7,1.2-0.7,2.9-0.6,4.2c0,1.1,0,2.8,1.1,3.4c0.2,0.1,0.5,0.1,0.7-0.1c0.7-0.8,0.3-1.8,0.2-2.8
			c-0.2-1.5,0-2.9-0.1-4.4C1317.8,74.2,1316.9,73.9,1316.6,74.6L1316.6,74.6z"/>
		<path class="st5" d="M1334.2,76.4c-1.1,0.4-1.8,1.5-2.4,2.4c-0.8,1.1-1.4,2.4-2,3.6c-0.7,1.4,1.5,2.7,2.1,1.2
			c0.5-1.1,1.1-2.3,1.7-3.4c0.5-1,1.3-1.9,1.6-2.9C1335.3,76.8,1334.7,76.2,1334.2,76.4L1334.2,76.4z"/>
		<path class="st5" d="M1322.1,68.6c-0.4,0.7-0.6,1.7-0.8,2.5c-0.3,1-0.6,2.1-0.8,3.2c-0.2,1.4,1.7,1.7,1.9,0.3
			c0.2-1.8,1.4-4,0.9-5.7C1323.1,68.2,1322.4,68.1,1322.1,68.6L1322.1,68.6z"/>
		<path class="st5" d="M1310.6,64.6c-0.1,1.2,0.2,2.7,0.4,3.9c0.1,0.7,0.5,2.2,1.5,1.9c1-0.3,0.7-1.8,0.5-2.5
			c-0.2-1.2-0.2-2.7-0.9-3.8C1311.7,63.5,1310.7,63.8,1310.6,64.6L1310.6,64.6z"/>
		<path class="st5" d="M1341,68.2c-0.9-0.2-1.9,0.5-2.6,1c-0.9,0.7-2.2,1.5-2.8,2.5c-0.5,0.9,0.5,1.9,1.4,1.4c0.8-0.5,1.5-1.3,2.2-2
			c0.7-0.6,1.5-1,2.1-1.6C1341.7,69.1,1341.6,68.4,1341,68.2L1341,68.2z"/>
		<path class="st5" d="M1333.4,65.8c0.2-0.1,0.6,0,0.9-0.1c0.4-0.2,0.8-0.5,1.2-0.8c0.8-0.6,1.9-1.2,2.2-2.1
			c0.1-0.3-0.1-0.5-0.4-0.5c-0.9-0.1-1.9,0.8-2.5,1.4c-0.4,0.3-0.8,0.7-1.1,1c-0.2,0.2-0.3,0.7-0.5,0.8
			C1333.1,65.6,1333.3,65.9,1333.4,65.8L1333.4,65.8z"/>
		<path class="st5" d="M1341.5,78.6c1.1-0.6,2.2-1.3,3.3-1.8c1.1-0.5,2.2-0.6,2.7-1.8c0.1-0.2,0.1-0.5-0.1-0.7
			c-1.2-0.9-2.2-0.3-3.4,0.2c-1.3,0.6-2.6,1.5-3.6,2.6C1339.7,77.9,1340.5,79.2,1341.5,78.6L1341.5,78.6z"/>
		<path class="st5" d="M1309,72.9c-0.4-0.8-1.2-1.3-1.6-2c-0.5-0.7-0.7-2-1.7-2.2c-0.3-0.1-0.6,0-0.8,0.2c-0.9,1,0.1,2.4,0.7,3.3
			c0.6,0.9,1.8,2,3,1.6C1309,73.7,1309.1,73.3,1309,72.9L1309,72.9z"/>
		<path class="st5" d="M1328,76.2c0.7-0.5,1.1-1.6,1.6-2.3c0.5-0.9,1.4-1.5,1.5-2.6c0.1-0.5-0.5-1-0.9-0.9c-1.2,0.1-1.8,1.2-2.4,2.1
			c-0.5,0.8-1.3,2.2-1,3.2C1326.9,76.1,1327.6,76.5,1328,76.2L1328,76.2z"/>
		<path class="st5" d="M1319,66.7c0.7-0.3,0.7-1,0.7-1.7c0-1-0.1-2-0.2-2.9c-0.2-1.4-2.2-1.5-2.2,0
			C1317.3,62.7,1317.7,67.2,1319,66.7L1319,66.7z"/>
		<path class="st5" d="M1327.8,66.1c0.5-0.6,0.7-1.3,1-2c0.3-0.7,0.8-1.3,0.9-2c0.1-0.6-0.7-0.9-1.1-0.7c-0.7,0.4-1.1,1.3-1.4,2
			c-0.3,0.7-0.7,1.6-0.4,2.4C1326.9,66.2,1327.5,66.4,1327.8,66.1L1327.8,66.1z"/>
		<path class="st5" d="M1345.2,70.5c0.8,0.3,1.7-0.1,2.4-0.3c0.8-0.2,1.8-0.1,2.4-0.7c0.3-0.3,0.3-0.9,0-1.2
			c-0.8-0.7-1.7-0.4-2.6-0.1c-0.9,0.2-2.1,0.6-2.6,1.4C1344.7,70,1344.9,70.4,1345.2,70.5L1345.2,70.5z"/>
		<path class="st5" d="M1307.5,65.4c-0.1-0.2,0-0.4,0-0.6c0-0.4-0.3-0.9-0.5-1.2c-0.4-0.8-0.9-2-1.6-2.6c-0.7-0.6-1.6,0-1.5,0.9
			c0.1,0.9,0.8,1.7,1.3,2.4c0.3,0.4,0.6,0.8,0.9,1.1c0.3,0.3,0.6,0.2,0.9,0.4C1307.3,65.9,1307.6,65.6,1307.5,65.4L1307.5,65.4z"/>
		<path class="st5" d="M1351.4,72.5c0.4,0.1,0.6-0.1,1-0.2c0.4-0.1,0.9-0.2,1.4-0.3c0.8-0.2,1.8-0.1,2.4-0.8
			c0.1-0.1,0.1-0.3-0.1-0.4c-0.7-0.6-1.9-0.3-2.7-0.2c-0.7,0.1-2.2,0.5-2.3,1.3C1351,72.2,1351.1,72.4,1351.4,72.5L1351.4,72.5z"/>
	</g>
</g>
</svg>
