<?xml version="1.0" encoding="utf-8"?>
<!-- Generator: Adobe Illustrator 22.0.1, SVG Export Plug-In . SVG Version: 6.00 Build 0)  -->
<svg version="1.1" id="Layer_1" xmlns="http://www.w3.org/2000/svg" xmlns:xlink="http://www.w3.org/1999/xlink" x="0px" y="0px"
	 viewBox="0 0 1500 300" style="enable-background:new 0 0 1500 300;" xml:space="preserve">
<style type="text/css">
	.st0{fill:#CC4527;}
	.st1{fill:#010101;}
	.st2{fill:#DAAF28;}
	.st3{fill:#027F7B;}
	.st4{fill:#DCE6D0;}
	.st5{fill:#E4CE87;}
	.st6{fill:#F0E5D5;}
	.st7{fill:#FFFFFF;}
	.st8{fill:#007E7A;}
	.st9{font-family:'SairaExtraCondensed-SemiBold';}
	.st10{font-size:117.0135px;}
	.st11{letter-spacing:-1;}
	.st12{letter-spacing:-5;}
	.st13{font-family:'SairaSemiCondensed-Regular';}
	.st14{font-size:71.305px;}
</style>
<path class="st0" d="M138.9,185.6c3.3-7.4,6.8-14.6,10.7-21.7c7.8-14.1,17.1-27.4,28-39.4c5.5-5.9,11.4-11.3,17.5-16.5
	c6.1-5.1,12.5-9.9,19.1-14.2c6.6-4.4,13.4-8.4,20.3-12.1c7-3.6,14.1-7,21.4-9.6c-7,3.5-13.6,7.7-20,12.1
	c-6.4,4.4-12.5,9.2-18.4,14.2c-11.7,10-22.3,21.3-31.3,33.4c-9.2,12-16.7,25.2-22.9,39c-3.1,6.9-5.8,13.9-8.2,21.1
	c-1.2,3.6-2.3,7.2-3.3,10.8c-0.5,1.8-1,3.6-1.4,5.4l-0.6,2.7l-0.3,1.3c-0.1,0.4-0.2,0.9-0.2,1.2l-2.9,16.6L133,218l-55.7-49
	l17.8-18.6l40.1,41.7l0.6,0.6"/>
<g>
	<path class="st1" d="M1322.2,227.9c-1.2,2.3-6.5,3.4-8.8,4.7c-1.6,0.9-3.1,1.9-4.1,3.4c2.4-1.1,4.9-2.1,7.4-3.1
		c3.1-1.2,5.7-1.2,9.4-1.6c1.7-0.2,3.5-0.4,5.2-0.3c-1.6-1.7-4.4-1.8-5.3-3.9c-0.5-1.2-1.3-7.9-1.4-9.4c-3.1-0.9-1.8,3-1.6,4.6
		C1323.1,224.3,1323.2,226,1322.2,227.9z"/>
	<path class="st1" d="M1350.5,232c-1.2,2.3-7.1,2.7-9.4,4c-1.6,0.9-2.5,2.6-3.5,4.2c2.4-1.1,4.9-2.1,7.4-3.1
		c3.1-1.2,5.7-1.2,9.4-1.6c1.7-0.2,3.5-0.4,5.2-0.3c-1.6-1.7-4.4-1.8-5.3-3.9c-0.5-1.2-1.3-7.9-1.4-9.4c-3.1-0.9-1.8,3-1.6,4.6
		C1351.5,228.5,1351.6,230.1,1350.5,232z"/>
	<path class="st2" d="M1286.2,77.5c-18.2,3.8-21,21.5-13.2,36.3c3.8,7.2,9.6,12.4,16.1,17.1c-6.1,10.1-7.4,20.8-7.3,33.2
		c0.1,11.5,4.2,23.5,12.3,34.2c7,9.1,16.8,22.8,28,22c4.6-0.3,8.7-3,13.4-1.9c4.8,1.1,8.4,5.1,13.4,5.6
		c12.6,1.2,28.4-10.2,34.3-15.2c-7.1-10.8-33.2-48.7-24.5-70.6c13.7-4.8,21.9-17.6,19.4-29.2c-2.7-12.5-9-19-22.1-25.5
		C1344.3,77.7,1313.6,71.7,1286.2,77.5z"/>
	<path class="st3" d="M1286.6,66.5c-5.7-1.7-10.5-6.8-8.5-12.5c2.5-7,4.2,6.6,11.9,7.1c-1.9-0.8-5.2-5.8-6.1-10.7
		c-0.9-5.1,2.3-8.8,4.1-9.6c6.5-2.8,2.3,6.6,4.9,14.2c1.7,5,4.7,6,10.2,5.2c17.7-2.5,39.4-2.5,63.9,14.6c7.1,2.8,10.8-2.3,13.8-7.2
		c3.5-5.7,12.6-5.2,8.4,2.4c-2.5,4.4-9.2,8.6-13.8,10.4c4.2,3,14.3-6.1,15.4-0.7c1.3,6.5-11.6,6.9-14.9,6.6
		c6.7,11.5,7.2,25.7,1.6,33.5c-0.6-16.7-9.4-27.8-20.3-31.2c-8.7-2.7-26.9-5.1-37.3,13.4c-1.6-9.8-7-19.1-15.8-22.7
		c-9.9-4.1-18.3-3-26,2.9c-5.5,4.2-8.8,11.4-9.2,14.5C1267.5,85.7,1276.8,70,1286.6,66.5z"/>
	<path class="st3" d="M1342,140.5c-7.2,5.6-10.7,13-10.7,26.1c0,11.3,10.1,34.7,37.6,40.7c9.3,2.1,26.3,3.9,32.7,1.2
		c-11.8-12.1-24.3-48.1-29.4-58.7C1364.7,134.5,1349.3,134.9,1342,140.5z"/>
	<g>
		<path class="st4" d="M1342.8,183.9c4.2,2.2,8.5,0,7.4-4.9c-0.5-2.1-1.5-4.2-2.3-6.2c0.6,2.7,2.2,8.2-1.2,9.7
			c-3.4,1.4-6.2-2.9-7.8-5.1c-1-1.4-2-3-3-4.4C1336.9,176.7,1339.3,182,1342.8,183.9z"/>
		<path class="st4" d="M1359.9,182.8c3.7,2,7,0.5,6.6-3.9c-0.2-2.2-1-4.3-1.8-6.3c0.2,2.5,1.9,7.7-2,8.6c-3,0.6-5.4-1.9-6.8-3.9
			c-0.9-1.2-2.3-3.5-3.2-4.6c0.7,3,2.2,4.9,3,6.2C1356.7,180.4,1358.1,181.8,1359.9,182.8z"/>
		<path class="st4" d="M1361.4,198.1c4,1.1,6.8-1.5,5.3-5.4c-0.6-1.7-2-2.9-3.1-4.4c1.5,3.1,3,6.4-0.1,7.7c-2.7,1.1-5.4-0.8-7.1-2.5
			c-1-1-2-2.7-2.8-3.8C1355.1,194.1,1357.6,197.1,1361.4,198.1z"/>
		<path class="st4" d="M1376.3,179.8c3.7,0.9,5.3,0.3,4.8-3.4c-0.3-1.9-1.8-3.9-2.7-5.3c1.4,2.8,2.7,5.6-0.1,6.8
			c-2.5,1-5-0.7-6.5-2.2c-0.9-0.9-1.8-2.4-2.6-3.3C1370.6,176.2,1372.9,178.9,1376.3,179.8z"/>
		<path class="st4" d="M1380.5,191.8c3.9-1.1,2.3-5.3-0.4-8.6c1.8,4,1.8,7.2-2.4,6.7c-2.6-0.3-4.5-3.3-6.5-4.9
			c1.7,2.9,2.9,4,3.7,4.6C1376.4,191,1378.4,192.4,1380.5,191.8z"/>
		<path class="st4" d="M1380.5,201.9c3.2-1.3,0.9-5.1-0.5-7.1c1.7,1.9,5.4,5.7,2.9,8.2c-2.4,2.4-6.7,0.3-8.7-1.6
			c-1.2-1.2-2.1-2.6-2.9-4C1374.2,199.1,1376.3,203.6,1380.5,201.9z"/>
	</g>
	<g>
		<path class="st5" d="M1313.9,99c0,11.2-9.1,20.3-20.3,20.3c-11.2,0-20.3-9.1-20.3-20.3c0-11.2,9.1-20.3,20.3-20.3
			C1304.9,78.7,1313.9,87.8,1313.9,99z"/>
		<circle class="st6" cx="1293.6" cy="99" r="17.8"/>
		<circle class="st1" cx="1299.1" cy="102.3" r="5.5"/>
		<path class="st7" d="M1303,101.6c0,1-0.8,1.8-1.8,1.8c-1,0-1.8-0.8-1.8-1.8s0.8-1.8,1.8-1.8C1302.1,99.8,1303,100.6,1303,101.6z"
			/>
	</g>
	<g>
		<path class="st5" d="M1369.2,108.6c0,11.5-9.4,20.9-20.9,20.9c-11.5,0-20.9-9.4-20.9-20.9c0-11.5,9.4-20.9,20.9-20.9
			C1359.9,87.7,1369.2,97.1,1369.2,108.6z"/>
		<path class="st6" d="M1366.6,108.6c0,10.1-8.2,18.3-18.3,18.3c-10.1,0-18.3-8.2-18.3-18.3c0-10.1,8.2-18.3,18.3-18.3
			C1358.4,90.3,1366.6,98.5,1366.6,108.6z"/>
		<path class="st1" d="M1346.9,109.5c0,3.2-2.6,5.7-5.7,5.7c-3.2,0-5.7-2.6-5.7-5.7c0-3.2,2.6-5.7,5.7-5.7
			C1344.3,103.8,1346.9,106.3,1346.9,109.5z"/>
		<path class="st7" d="M1341.2,108.3c0,1-0.8,1.9-1.9,1.9s-1.9-0.8-1.9-1.9s0.8-1.9,1.9-1.9S1341.2,107.3,1341.2,108.3z"/>
	</g>
	<path class="st1" d="M1322.5,116.4c-1.7,2.3-7.6,7.9-9.6,7.6c-1.1-0.1-1.8-8.5-0.9-10.1c1.3,1.2,3.3,1.9,4,2.1
		C1318.2,116.6,1320.2,116.5,1322.5,116.4z"/>
	<g>
		<path class="st6" d="M1290,139.9c-1.5,0.8-3,2.9-2.7,4.6c0.2,1.1,1.6,1.3,2.3,0.6c0.6-0.5,0.7-1.3,1-2c0.3-0.6,0.5-1.3,0.8-1.9
			C1291.9,140.4,1290.9,139.4,1290,139.9L1290,139.9z"/>
		<path class="st6" d="M1298.2,144.9c-0.5,0.8-0.8,1.6-1.1,2.5c-0.3,0.9-0.8,1.9,0,2.6c0.3,0.3,0.7,0.3,1,0.1c0.8-0.4,0.8-1.4,1-2.2
			c0.2-0.8,0.5-1.6,0.7-2.4C1300.1,144.6,1298.7,144.1,1298.2,144.9L1298.2,144.9z"/>
		<path class="st6" d="M1307.7,147.1c-0.9,1-1.4,2.6-1.6,4c-0.2,1.4,1.8,2,2.1,0.6c0.3-1.4,0.6-3,0.2-4.4
			C1308.3,147,1307.9,146.9,1307.7,147.1L1307.7,147.1z"/>
		<path class="st6" d="M1316.3,148.3c-0.2,0.8-0.2,1.6-0.1,2.5c0.1,0.9,0.2,2.1,0.7,2.8c0.5,0.6,1.7,0.7,1.9-0.2
			c0.2-0.8-0.1-1.7-0.3-2.5c-0.2-0.8-0.4-1.7-0.6-2.5C1317.7,147.5,1316.5,147.5,1316.3,148.3L1316.3,148.3z"/>
		<path class="st6" d="M1327,147.5c0.1,1.3,0.4,2.5,0.5,3.7c0.2,1,0.1,2.2,1.2,2.7c0.2,0.1,0.5,0.1,0.7-0.1c0.8-0.8,0.5-1.8,0.3-2.8
			c-0.3-1.4-0.6-2.7-1.3-4C1328.1,146.5,1327,146.8,1327,147.5L1327,147.5z"/>
		<path class="st6" d="M1291.5,149.3c-0.5,1.3-1.3,3.4-0.6,4.7c0.3,0.7,1.4,0.7,1.8,0c0.3-0.7,0.3-1.4,0.3-2.1
			c0.1-0.7,0.3-1.4,0.5-2.1c0.2-0.5-0.2-1.2-0.7-1.3C1292.2,148.4,1291.7,148.8,1291.5,149.3L1291.5,149.3z"/>
		<path class="st6" d="M1300.6,153.8c-0.2,0.6-0.2,1.3-0.2,2c0,0.8-0.1,1.5,0.4,2.2c0.3,0.3,1,0.3,1.2,0c0.5-0.6,0.4-1.3,0.4-2
			c0-0.7,0-1.5-0.2-2.2C1301.9,153.1,1300.9,153.1,1300.6,153.8L1300.6,153.8z"/>
		<path class="st6" d="M1311,155.3c-0.3,0.7-0.3,1.3-0.4,2c-0.1,0.7-0.3,1.4-0.4,2.1c-0.2,1.2,1.7,1.3,2,0.3
			c0.2-0.7,0.2-1.5,0.2-2.1c0-0.7,0-1.4,0-2.1C1312.3,154.7,1311.3,154.6,1311,155.3L1311,155.3z"/>
		<path class="st6" d="M1323.1,156.1c-0.5,1.2-0.1,2.7,0.3,3.9c0.4,1.3,2.4,0.7,2-0.5c-0.4-1.1-0.6-2.4-1.1-3.5
			C1324.1,155.3,1323.3,155.6,1323.1,156.1L1323.1,156.1z"/>
		<path class="st6" d="M1284.9,156.6c-0.5,1.3-0.4,2.8-0.3,4.2c0.2,1.3,2,1.1,1.8-0.2c-0.2-1.3-0.2-2.7-0.6-4
			C1285.6,156.2,1285.1,156.2,1284.9,156.6L1284.9,156.6z"/>
		<path class="st6" d="M1295.6,160.2c-0.7,1.2-0.7,2.7-0.4,4.1c0.1,0.4,0.5,0.8,1,0.7c0.2,0,0.3,0,0.5-0.1c0.4-0.2,0.6-0.7,0.5-1.1
			c-0.4-1.1-0.4-2.3-0.7-3.4C1296.3,159.9,1295.8,159.8,1295.6,160.2L1295.6,160.2z"/>
		<path class="st6" d="M1306.2,161.6c-0.8,1.6-0.8,3.6-0.1,5.2c0.5,1.2,2.1,0.7,1.9-0.5c-0.3-1.5-0.6-3.1-0.9-4.6
			C1307,161.3,1306.4,161.2,1306.2,161.6L1306.2,161.6z"/>
		<path class="st6" d="M1317.3,161.6c-1,1.3-1,3.9,0.2,5.1c0.5,0.5,1.6,0.3,1.7-0.4c0.1-0.7-0.1-1.3-0.2-2.1
			c-0.2-0.8-0.1-1.5-0.4-2.3C1318.4,161.5,1317.7,161.2,1317.3,161.6L1317.3,161.6z"/>
		<path class="st6" d="M1289.1,170.5c-0.3,1.2-0.2,2.5-0.2,3.7c0,1.5,2.3,1.5,2.3,0c0-1.2,0.1-2.6-0.2-3.7
			C1290.7,169.6,1289.4,169.6,1289.1,170.5L1289.1,170.5z"/>
		<path class="st6" d="M1300.2,171.6c-0.6,1.4-0.3,4,1,5c0.6,0.4,1.5-0.2,1.5-0.9c0-0.7-0.3-1.3-0.5-1.9c-0.2-0.7-0.3-1.5-0.6-2.2
			C1301.3,170.9,1300.5,170.9,1300.2,171.6L1300.2,171.6z"/>
		<path class="st6" d="M1312.1,171.4c-0.8,1.5-0.2,4.1,1.1,5.2c0.6,0.5,1.6-0.2,1.6-0.9c-0.1-0.8-0.5-1.4-0.7-2.2
			c-0.3-0.7-0.4-1.4-0.8-2.1C1313,171,1312.4,171,1312.1,171.4L1312.1,171.4z"/>
		<path class="st6" d="M1326.4,170c-1,0.6-0.4,2.5-0.2,3.3c0.1,0.7,0.2,1.5,0.6,2.1c0.2,0.3,0.4,0.6,0.8,0.6
			c0.6,0.2-0.3-0.1,0.3,0.1c0.2,0.1,0.4,0,0.5-0.2c0.8-1.1,0.1-2.5-0.2-3.8C1328,171.6,1327.6,169.3,1326.4,170L1326.4,170z"/>
		<path class="st6" d="M1296.2,182.1c-0.1,0.9,0.2,1.9,0.5,2.7c0.4,1,0.8,2.1,1.7,2.7c0.8,0.5,2.2-0.3,1.8-1.4
			c-0.4-0.9-0.9-1.6-1.3-2.5c-0.4-0.8-0.8-1.7-1.6-2.1C1296.8,181.2,1296.3,181.6,1296.2,182.1L1296.2,182.1z"/>
		<path class="st6" d="M1320.6,180.2c-0.2,0.9,0,1.8,0.2,2.7c0.2,1,0.4,2.2,1.3,2.9c0.5,0.4,1.2,0.3,1.5-0.4c0.3-0.9,0-1.9-0.3-2.8
			c-0.3-1-0.6-2-1.3-2.8C1321.5,179.5,1320.7,179.6,1320.6,180.2L1320.6,180.2z"/>
		<path class="st6" d="M1315.7,187.4c-0.4,0.8-0.1,1.9,0.1,2.7c0.3,1,0.5,2.5,1.7,2.7c0.5,0.1,0.9-0.1,1.3-0.5
			c0.6-0.9-0.1-2.1-0.4-2.9c-0.3-0.9-0.8-2-1.7-2.4C1316.3,186.9,1315.9,187.1,1315.7,187.4L1315.7,187.4z"/>
		<path class="st6" d="M1307.4,180.8c-0.3,1.2,0.1,2.9,0.5,4c0.4,1.1,2.1,0.7,1.8-0.5c-0.1-0.7-0.4-1.3-0.6-1.9
			c-0.2-0.6-0.3-1.2-0.6-1.7C1308.3,180.1,1307.5,180.3,1307.4,180.8L1307.4,180.8z"/>
	</g>
	<g>
		<path class="st4" d="M1324,80.3c-0.8,0.5-1.1,1.4-1.4,2.2c-0.4,1.1-0.9,2.4-0.9,3.6c0,1.1,1.6,1.3,1.9,0.3c0.3-1,0.4-2,0.7-3
			c0.2-0.8,0.7-1.7,0.6-2.5C1324.9,80.4,1324.4,80.1,1324,80.3L1324,80.3z"/>
		<path class="st4" d="M1316.6,74.6c-0.7,1.2-0.7,2.9-0.6,4.2c0,1.1,0,2.8,1.1,3.4c0.2,0.1,0.5,0.1,0.7-0.1c0.7-0.8,0.3-1.8,0.2-2.8
			c-0.2-1.5,0-2.9-0.1-4.4C1317.8,74.2,1316.9,73.9,1316.6,74.6L1316.6,74.6z"/>
		<path class="st4" d="M1334.2,76.4c-1.1,0.4-1.8,1.5-2.4,2.4c-0.8,1.1-1.4,2.4-2,3.6c-0.7,1.4,1.5,2.7,2.1,1.2
			c0.5-1.1,1.1-2.3,1.7-3.4c0.5-1,1.3-1.9,1.6-2.9C1335.3,76.8,1334.7,76.2,1334.2,76.4L1334.2,76.4z"/>
		<path class="st4" d="M1322.1,68.6c-0.4,0.7-0.6,1.7-0.8,2.5c-0.3,1-0.6,2.1-0.8,3.2c-0.2,1.4,1.7,1.7,1.9,0.3
			c0.2-1.8,1.4-4,0.9-5.7C1323.1,68.2,1322.4,68.1,1322.1,68.6L1322.1,68.6z"/>
		<path class="st4" d="M1310.6,64.6c-0.1,1.2,0.2,2.7,0.4,3.9c0.1,0.7,0.5,2.2,1.5,1.9c1-0.3,0.7-1.8,0.5-2.5
			c-0.2-1.2-0.2-2.7-0.9-3.8C1311.7,63.5,1310.7,63.8,1310.6,64.6L1310.6,64.6z"/>
		<path class="st4" d="M1341,68.2c-0.9-0.2-1.9,0.5-2.6,1c-0.9,0.7-2.2,1.5-2.8,2.5c-0.5,0.9,0.5,1.9,1.4,1.4c0.8-0.5,1.5-1.3,2.2-2
			c0.7-0.6,1.5-1,2.1-1.6C1341.7,69.1,1341.6,68.4,1341,68.2L1341,68.2z"/>
		<path class="st4" d="M1333.4,65.8c0.2-0.1,0.6,0,0.9-0.1c0.4-0.2,0.8-0.5,1.2-0.8c0.8-0.6,1.9-1.2,2.2-2.1
			c0.1-0.3-0.1-0.5-0.4-0.5c-0.9-0.1-1.9,0.8-2.5,1.4c-0.4,0.3-0.8,0.7-1.1,1c-0.2,0.2-0.3,0.7-0.5,0.8
			C1333.1,65.6,1333.3,65.9,1333.4,65.8L1333.4,65.8z"/>
		<path class="st4" d="M1341.5,78.6c1.1-0.6,2.2-1.3,3.3-1.8c1.1-0.5,2.2-0.6,2.7-1.8c0.1-0.2,0.1-0.5-0.1-0.7
			c-1.2-0.9-2.2-0.3-3.4,0.2c-1.3,0.6-2.6,1.5-3.6,2.6C1339.7,77.9,1340.5,79.2,1341.5,78.6L1341.5,78.6z"/>
		<path class="st4" d="M1309,72.9c-0.4-0.8-1.2-1.3-1.6-2c-0.5-0.7-0.7-2-1.7-2.2c-0.3-0.1-0.6,0-0.8,0.2c-0.9,1,0.1,2.4,0.7,3.3
			c0.6,0.9,1.8,2,3,1.6C1309,73.7,1309.1,73.3,1309,72.9L1309,72.9z"/>
		<path class="st4" d="M1328,76.2c0.7-0.5,1.1-1.6,1.6-2.3c0.5-0.9,1.4-1.5,1.5-2.6c0.1-0.5-0.5-1-0.9-0.9c-1.2,0.1-1.8,1.2-2.4,2.1
			c-0.5,0.8-1.3,2.2-1,3.2C1326.9,76.1,1327.6,76.5,1328,76.2L1328,76.2z"/>
		<path class="st4" d="M1319,66.7c0.7-0.3,0.7-1,0.7-1.7c0-1-0.1-2-0.2-2.9c-0.2-1.4-2.2-1.5-2.2,0
			C1317.3,62.7,1317.7,67.2,1319,66.7L1319,66.7z"/>
		<path class="st4" d="M1327.8,66.1c0.5-0.6,0.7-1.3,1-2c0.3-0.7,0.8-1.3,0.9-2c0.1-0.6-0.7-0.9-1.1-0.7c-0.7,0.4-1.1,1.3-1.4,2
			c-0.3,0.7-0.7,1.6-0.4,2.4C1326.9,66.2,1327.5,66.4,1327.8,66.1L1327.8,66.1z"/>
		<path class="st4" d="M1345.2,70.5c0.8,0.3,1.7-0.1,2.4-0.3c0.8-0.2,1.8-0.1,2.4-0.7c0.3-0.3,0.3-0.9,0-1.2
			c-0.8-0.7-1.7-0.4-2.6-0.1c-0.9,0.2-2.1,0.6-2.6,1.4C1344.7,70,1344.9,70.4,1345.2,70.5L1345.2,70.5z"/>
		<path class="st4" d="M1307.5,65.4c-0.1-0.2,0-0.4,0-0.6c0-0.4-0.3-0.9-0.5-1.2c-0.4-0.8-0.9-2-1.6-2.6c-0.7-0.6-1.6,0-1.5,0.9
			c0.1,0.9,0.8,1.7,1.3,2.4c0.3,0.4,0.6,0.8,0.9,1.1c0.3,0.3,0.6,0.2,0.9,0.4C1307.3,65.9,1307.6,65.6,1307.5,65.4L1307.5,65.4z"/>
		<path class="st4" d="M1351.4,72.5c0.4,0.1,0.6-0.1,1-0.2c0.4-0.1,0.9-0.2,1.4-0.3c0.8-0.2,1.8-0.1,2.4-0.8
			c0.1-0.1,0.1-0.3-0.1-0.4c-0.7-0.6-1.9-0.3-2.7-0.2c-0.7,0.1-2.2,0.5-2.3,1.3C1351,72.2,1351.1,72.4,1351.4,72.5L1351.4,72.5z"/>
	</g>
</g>
<text transform="matrix(1 0 0 1 293.1685 157.8477)"><tspan x="0" y="0" class="st8 st9 st10 st11">V</tspan><tspan x="45.2" y="0" class="st8 st9 st10">O</tspan><tspan x="94" y="0" class="st8 st9 st10">TE</tspan><tspan x="175" y="0" class="st8 st9 st10"> </tspan><tspan x="193.3" y="0" class="st8 st9 st10">DIFFEREN</tspan><tspan x="522.7" y="0" class="st8 st9 st10 st11">T</tspan><tspan x="561.4" y="0" class="st8 st9 st10"> </tspan><tspan x="579.7" y="0" class="st8 st9 st10">SAN</tspan><tspan x="722.8" y="0" class="st8 st9 st10 st12">T</tspan><tspan x="758.2" y="0" class="st8 st9 st10">A</tspan><tspan x="807.1" y="0" class="st8 st9 st10"> </tspan><tspan x="825.4" y="0" class="st8 st9 st10">FE!</tspan></text>
<g>
	<text transform="matrix(1 0 0 1 337.7124 222.0128)"><tspan x="0" y="0" class="st0 st13 st14">our n</tspan><tspan x="150.2" y="0" class="st0 st13 st14">e</tspan><tspan x="185" y="0" class="st0 st13 st14">w </tspan><tspan x="251.4" y="0" class="st0 st13 st14">r</tspan><tspan x="274.1" y="0" class="st0 st13 st14">an</tspan><tspan x="347.5" y="0" class="st0 st13 st14">k</tspan><tspan x="380.7" y="0" class="st0 st13 st14">ed-choice ball</tspan><tspan x="781.1" y="0" class="st0 st13 st14">o</tspan><tspan x="817.1" y="0" class="st0 st13 st14">t</tspan></text>
</g>
</svg>
