<?xml version="1.0" encoding="utf-8"?>
<!-- Generator: Adobe Illustrator 22.0.1, SVG Export Plug-In . SVG Version: 6.00 Build 0)  -->
<svg version="1.1" id="Layer_1" xmlns="http://www.w3.org/2000/svg" xmlns:xlink="http://www.w3.org/1999/xlink" x="0px" y="0px"
	 viewBox="0 0 300 300" style="enable-background:new 0 0 300 300;" xml:space="preserve">
<style type="text/css">
	.st0{fill:#EABD9B;}
	.st1{fill:#89532B;}
	.st2{fill:#8D5630;}
	.st3{fill:#9B683F;}
	.st4{fill:#FFFFFF;}
	.st5{fill:#010101;}
	.st6{fill:#CE966F;}
	.st7{fill:#AF7C5B;}
	.st8{fill:#CB4527;}
	.st9{fill:#EF5623;}
	.st10{fill:#EDEBEA;}
	.st11{fill:#F47B35;}
	.st12{fill:#E6D7CD;}
	.st13{fill:#504B1E;}
	.st14{fill:#7E7B31;}
	.st15{fill:#9F9333;}
	.st16{fill:#EF392A;}
	.st17{fill:#DAAF28;}
	.st18{fill:#027F7B;}
	.st19{fill:#DCE6D0;}
	.st20{fill:#E4CE87;}
	.st21{fill:#F0E5D5;}
	.st22{fill:#4E2C13;}
	.st23{fill:#6E4221;}
	.st24{fill:#5A3214;}
	.st25{fill:#3B2110;}
	.st26{fill:#CCCCCC;}
	.st27{fill:#A3A3A2;}
	.st28{fill:#C0BEBE;}
	.st29{fill:#E2E2E2;}
	.st30{fill:#DDDCDB;}
</style>
<path class="st5" d="M147.6,268.1c-1.7,3.1-8.9,4.7-12.1,6.5c-2.2,1.2-4.2,2.6-5.7,4.7c3.3-1.6,6.7-2.9,10.1-4.2
	c4.2-1.7,7.9-1.7,12.9-2.2c2.3-0.3,4.8-0.5,7.2-0.5c-2.2-2.3-6.1-2.5-7.3-5.4c-0.7-1.7-1.8-10.8-1.9-12.9c-4.2-1.3-2.5,4.2-2.2,6.3
	C148.9,263.2,149,265.5,147.6,268.1z"/>
<path class="st5" d="M186.6,273.8c-1.7,3.1-9.7,3.7-12.9,5.5c-2.2,1.2-3.4,3.6-4.9,5.7c3.3-1.6,6.7-2.9,10.1-4.2
	c4.2-1.7,7.9-1.7,12.9-2.2c2.3-0.3,4.8-0.5,7.2-0.5c-2.2-2.3-6.1-2.5-7.3-5.4c-0.7-1.7-1.8-10.8-1.9-12.9c-4.2-1.3-2.5,4.2-2.2,6.3
	C187.9,268.9,188,271.2,186.6,273.8z"/>
<path class="st17" d="M98.2,61.4c-25,5.3-28.8,29.6-18.1,49.9c5.2,9.9,13.2,17,22.1,23.4c-8.4,13.9-10.2,28.6-10.1,45.6
	c0.2,15.9,5.8,32.3,17,47c9.6,12.6,23,31.3,38.5,30.3c6.3-0.4,11.9-4.2,18.4-2.7c6.6,1.5,11.5,7.1,18.4,7.7
	c17.4,1.7,39-14,47.1-20.8c-9.7-14.8-45.7-66.9-33.7-97c18.9-6.6,30.1-24.2,26.6-40.1c-3.8-17.1-12.4-26-30.4-35
	C178,61.7,135.8,53.5,98.2,61.4z"/>
<path class="st18" d="M98.7,46.3C90.9,44,84.2,37,87,29.2c3.5-9.7,5.8,9.1,16.4,9.8c-2.6-1.2-7.1-7.9-8.4-14.7
	c-1.3-7,3.1-12.1,5.7-13.2c9-3.9,3.2,9.1,6.7,19.5c2.3,6.8,6.4,8.3,14,7.2c24.3-3.5,54.1-3.5,87.8,20c9.7,3.9,14.8-3.1,19-9.9
	c4.9-7.8,17.4-7.1,11.6,3.2c-3.4,6.1-12.6,11.8-18.9,14.2c5.7,4.2,19.7-8.4,21.2-0.9c1.8,8.9-15.9,9.5-20.5,9.1
	c9.3,15.7,10,35.4,2.1,46c-0.8-23-13-38.2-27.9-42.9c-11.9-3.7-36.9-7-51.2,18.4c-2.2-13.5-9.7-26.2-21.7-31.2
	c-13.7-5.7-25.2-4.1-35.7,4c-7.6,5.8-12.1,15.7-12.6,20C72.6,72.7,85.3,51.2,98.7,46.3z"/>
<path class="st18" d="M174.8,148c-9.9,7.7-14.7,17.9-14.7,35.8c0,15.5,13.9,47.7,51.6,56c12.8,2.8,36.1,5.3,45,1.7
	c-16.2-16.6-33.4-66.1-40.5-80.6C206,139.8,184.9,140.3,174.8,148z"/>
<path class="st19" d="M176,207.6c5.8,3,11.7,0,10.2-6.7c-0.6-2.9-2-5.7-3.1-8.5c0.8,3.7,3.1,11.3-1.7,13.4c-4.6,2-8.5-4-10.7-7
	c-1.4-2-2.7-4.1-4.1-6.1C167.8,197.7,171.1,205.1,176,207.6z"/>
<path class="st19" d="M199.5,206.1c5.1,2.7,9.7,0.7,9.1-5.4c-0.3-3-1.4-5.8-2.5-8.6c0.3,3.4,2.6,10.6-2.8,11.8
	c-4.1,0.9-7.4-2.7-9.4-5.4c-1.2-1.6-3.1-4.8-4.4-6.4c1,4.1,3,6.8,4.1,8.5C195.1,202.8,197,204.8,199.5,206.1z"/>
<path class="st19" d="M201.5,227.2c5.5,1.4,9.3-2,7.3-7.5c-0.9-2.3-2.8-4-4.2-6c2.1,4.3,4.1,8.8-0.1,10.5c-3.7,1.5-7.5-1.1-9.8-3.4
	c-1.4-1.4-2.7-3.7-3.9-5.2C192.9,221.6,196.3,225.8,201.5,227.2z"/>
<path class="st19" d="M222.1,202c5,1.3,7.3,0.4,6.6-4.7c-0.4-2.6-2.4-5.4-3.7-7.2c1.9,3.8,3.8,7.8-0.1,9.3c-3.4,1.4-6.8-1-8.9-3
	c-1.2-1.2-2.4-3.3-3.5-4.6C214.2,197.1,217.3,200.8,222.1,202z"/>
<path class="st19" d="M227.7,218.6c5.3-1.5,3.2-7.3-0.6-11.9c2.5,5.5,2.5,9.9-3.3,9.2c-3.5-0.4-6.2-4.6-8.9-6.7
	c2.3,3.9,4,5.5,5.1,6.4C222.1,217.4,224.9,219.4,227.7,218.6z"/>
<path class="st19" d="M227.8,232.4c4.4-1.8,1.2-7-0.6-9.7c2.3,2.6,7.4,7.8,3.9,11.2c-3.4,3.3-9.3,0.4-12-2.2c-1.6-1.6-2.9-3.5-4-5.5
	C219.2,228.6,222,234.7,227.8,232.4z"/>
<path class="st20" d="M136.3,90.9c0,15.4-12.5,27.9-27.9,27.9c-15.4,0-27.9-12.5-27.9-27.9C80.6,75.5,93,63,108.4,63
	C123.8,63,136.3,75.5,136.3,90.9z"/>
<circle class="st21" cx="108.4" cy="90.9" r="24.4"/>
<circle class="st5" cx="115.9" cy="95.5" r="7.6"/>
<path class="st4" d="M121.2,94.5c0,1.4-1.1,2.5-2.5,2.5c-1.4,0-2.5-1.1-2.5-2.5c0-1.4,1.1-2.5,2.5-2.5
	C120.1,92,121.2,93.2,121.2,94.5z"/>
<path class="st20" d="M212.3,104.2c0,15.9-12.9,28.7-28.7,28.7c-15.9,0-28.7-12.9-28.7-28.7c0-15.9,12.9-28.7,28.7-28.7
	C199.5,75.5,212.3,88.3,212.3,104.2z"/>
<path class="st21" d="M208.7,104.2c0,13.9-11.2,25.1-25.1,25.1c-13.9,0-25.1-11.2-25.1-25.1c0-13.9,11.2-25.1,25.1-25.1
	C197.5,79,208.7,90.3,208.7,104.2z"/>
<path class="st5" d="M181.6,105.4c0,4.3-3.5,7.8-7.8,7.8c-4.3,0-7.8-3.5-7.8-7.8c0-4.3,3.5-7.8,7.8-7.8
	C178.1,97.6,181.6,101.1,181.6,105.4z"/>
<path class="st4" d="M173.8,103.8c0,1.4-1.1,2.6-2.6,2.6s-2.6-1.1-2.6-2.6s1.1-2.6,2.6-2.6S173.8,102.4,173.8,103.8z"/>
<path class="st5" d="M148,114.9c-2.3,3.2-10.4,10.9-13.2,10.5c-1.5-0.2-2.5-11.7-1.2-13.9c1.8,1.7,4.5,2.6,5.5,2.9
	C142.2,115.2,144.9,115,148,114.9z"/>
<path class="st21" d="M103.5,147.1c-2,1.1-4.2,4-3.7,6.4c0.3,1.5,2.2,1.7,3.2,0.8c0.8-0.7,1-1.8,1.4-2.7c0.4-0.8,0.7-1.8,1.1-2.6
	C106,147.8,104.7,146.5,103.5,147.1L103.5,147.1z"/>
<path class="st21" d="M114.7,154.1c-0.7,1.1-1.1,2.2-1.5,3.4c-0.4,1.2-1,2.6,0,3.6c0.4,0.4,0.9,0.4,1.4,0.2c1.2-0.5,1.1-1.9,1.4-3
	c0.3-1.1,0.7-2.1,1-3.2C117.2,153.7,115.4,152.9,114.7,154.1L114.7,154.1z"/>
<path class="st21" d="M127.7,157.1c-1.3,1.4-1.9,3.6-2.2,5.5c-0.3,1.9,2.4,2.7,2.9,0.8c0.5-1.9,0.9-4.2,0.3-6
	C128.5,157,128,156.8,127.7,157.1L127.7,157.1z"/>
<path class="st21" d="M139.6,158.7c-0.3,1.2-0.3,2.2-0.2,3.4c0.1,1.2,0.2,2.8,1,3.8c0.7,0.9,2.3,1,2.6-0.3c0.2-1.1-0.1-2.3-0.4-3.5
	c-0.3-1.1-0.5-2.3-0.8-3.4C141.5,157.6,139.9,157.6,139.6,158.7L139.6,158.7z"/>
<path class="st21" d="M154.3,157.7c0.1,1.7,0.5,3.4,0.7,5.1c0.2,1.4,0.1,3,1.6,3.8c0.3,0.2,0.7,0.1,0.9-0.1c1.1-1.1,0.7-2.5,0.5-3.8
	c-0.4-1.9-0.8-3.7-1.8-5.4C155.7,156.3,154.2,156.6,154.3,157.7L154.3,157.7z"/>
<path class="st21" d="M105.5,160.1c-0.7,1.8-1.7,4.7-0.8,6.5c0.5,1,2,0.9,2.5,0c0.5-0.9,0.4-1.9,0.5-2.9c0.1-1,0.4-2,0.7-2.9
	c0.3-0.7-0.3-1.6-1-1.8C106.4,158.9,105.8,159.4,105.5,160.1L105.5,160.1z"/>
<path class="st21" d="M118,166.3c-0.3,0.9-0.3,1.8-0.3,2.7c0,1.1-0.2,2.1,0.5,3c0.4,0.5,1.3,0.5,1.7,0c0.7-0.9,0.6-1.8,0.5-2.8
	c0-1,0-2-0.3-3C119.7,165.3,118.4,165.3,118,166.3L118,166.3z"/>
<path class="st21" d="M132.3,168.4c-0.4,0.9-0.5,1.8-0.6,2.8c-0.1,1-0.4,1.9-0.5,2.9c-0.2,1.7,2.3,1.8,2.8,0.4
	c0.3-0.9,0.2-2,0.2-2.9c0-1,0-1.9,0-2.9C134.1,167.5,132.7,167.4,132.3,168.4L132.3,168.4z"/>
<path class="st21" d="M149,169.4c-0.7,1.7-0.2,3.7,0.4,5.3c0.6,1.7,3.4,0.9,2.7-0.7c-0.6-1.6-0.8-3.3-1.4-4.8
	C150.3,168.4,149.2,168.8,149,169.4L149,169.4z"/>
<path class="st21" d="M96.4,170.2c-0.7,1.8-0.6,3.9-0.4,5.8c0.2,1.8,2.7,1.5,2.4-0.3c-0.3-1.8-0.2-3.7-0.8-5.5
	C97.4,169.6,96.7,169.6,96.4,170.2L96.4,170.2z"/>
<path class="st21" d="M111.1,175.1c-1,1.6-0.9,3.7-0.5,5.6c0.1,0.6,0.8,1,1.3,1c0.3,0,0.5,0,0.7-0.2c0.5-0.3,0.8-1,0.6-1.6
	c-0.5-1.5-0.5-3.2-1-4.7C112,174.7,111.4,174.6,111.1,175.1L111.1,175.1z"/>
<path class="st21" d="M125.7,177c-1.1,2.2-1,4.9-0.2,7.2c0.6,1.6,2.9,1,2.6-0.7c-0.4-2.1-0.8-4.2-1.2-6.3
	C126.8,176.6,126,176.5,125.7,177L125.7,177z"/>
<path class="st21" d="M141,177.1c-1.4,1.8-1.4,5.4,0.3,7c0.7,0.7,2.1,0.4,2.3-0.6c0.2-1-0.1-1.8-0.3-2.8c-0.2-1-0.2-2.1-0.6-3.1
	C142.5,176.9,141.5,176.4,141,177.1L141,177.1z"/>
<path class="st21" d="M102.2,189.2c-0.5,1.6-0.3,3.5-0.3,5.1c-0.1,2,3.2,2,3.1,0c0-1.7,0.1-3.5-0.3-5.1
	C104.4,188,102.6,188,102.2,189.2L102.2,189.2z"/>
<path class="st21" d="M117.5,190.7c-0.8,2-0.5,5.5,1.4,6.8c0.9,0.6,2-0.2,2-1.2c0-0.9-0.5-1.8-0.7-2.6c-0.3-1-0.5-2.1-0.9-3.1
	C118.9,189.8,117.8,189.8,117.5,190.7L117.5,190.7z"/>
<path class="st21" d="M133.8,190.5c-1.1,2.1-0.3,5.6,1.6,7.1c0.8,0.7,2.2-0.2,2.1-1.2c-0.1-1.1-0.6-2-1-3c-0.4-1-0.6-1.9-1.1-2.9
	C135.1,190,134.2,189.9,133.8,190.5L133.8,190.5z"/>
<path class="st21" d="M153.5,188.5c-1.3,0.8-0.6,3.4-0.3,4.6c0.2,0.9,0.3,2,0.8,2.9c0.2,0.4,0.6,0.8,1,0.9c0.9,0.2-0.4-0.1,0.4,0.1
	c0.3,0.1,0.6-0.1,0.8-0.3c1.1-1.5,0.2-3.5-0.2-5.2C155.7,190.7,155,187.6,153.5,188.5L153.5,188.5z"/>
<path class="st21" d="M112,205.2c-0.1,1.2,0.3,2.6,0.7,3.7c0.5,1.4,1,2.9,2.4,3.7c1.2,0.7,3-0.5,2.4-1.9c-0.5-1.2-1.3-2.3-1.9-3.4
	c-0.5-1.1-1.1-2.3-2.2-2.9C112.8,204,112.1,204.5,112,205.2L112,205.2z"/>
<path class="st21" d="M145.5,202.5c-0.3,1.3,0,2.5,0.3,3.8c0.3,1.4,0.6,3,1.7,4c0.7,0.6,1.7,0.4,2-0.5c0.4-1.3,0-2.6-0.4-3.8
	c-0.5-1.4-0.8-2.8-1.9-3.9C146.7,201.5,145.6,201.8,145.5,202.5L145.5,202.5z"/>
<path class="st21" d="M138.8,212.4c-0.5,1.1-0.2,2.6,0.2,3.7c0.4,1.3,0.7,3.4,2.3,3.8c0.8,0.1,1.3-0.1,1.7-0.7
	c0.9-1.2-0.1-2.8-0.6-4c-0.5-1.3-1.1-2.7-2.4-3.3C139.6,211.8,139,212,138.8,212.4L138.8,212.4z"/>
<path class="st21" d="M127.3,203.3c-0.4,1.6,0.1,4,0.7,5.5c0.6,1.6,2.9,1,2.5-0.7c-0.2-0.9-0.6-1.8-0.9-2.6
	c-0.3-0.8-0.4-1.6-0.8-2.4C128.6,202.4,127.5,202.6,127.3,203.3L127.3,203.3z"/>
<path class="st19" d="M150.1,65.3c-1,0.7-1.5,1.9-1.9,3c-0.6,1.6-1.2,3.3-1.3,5c0,1.6,2.2,1.8,2.6,0.4c0.4-1.3,0.6-2.8,1-4.1
	c0.3-1.1,1-2.3,0.9-3.5C151.3,65.5,150.7,64.9,150.1,65.3L150.1,65.3z"/>
<path class="st19" d="M139.9,57.4c-1,1.7-0.9,3.9-0.8,5.8c0,1.5,0,3.9,1.6,4.6c0.3,0.1,0.7,0.1,0.9-0.1c1-1.1,0.5-2.5,0.3-3.8
	c-0.3-2,0.1-4-0.1-6C141.7,57,140.4,56.5,139.9,57.4L139.9,57.4z"/>
<path class="st19" d="M164.2,59.9c-1.5,0.5-2.4,2-3.3,3.3c-1.1,1.6-1.9,3.3-2.8,5c-1,1.9,2,3.7,2.9,1.7c0.7-1.6,1.5-3.1,2.3-4.7
	c0.7-1.4,1.7-2.6,2.2-4C165.7,60.5,164.9,59.7,164.2,59.9L164.2,59.9z"/>
<path class="st19" d="M147.5,49.2c-0.6,1-0.8,2.3-1.1,3.4c-0.4,1.4-0.8,2.9-1.1,4.3c-0.3,1.9,2.4,2.3,2.6,0.4
	c0.3-2.4,1.9-5.4,1.2-7.9C149,48.7,147.9,48.5,147.5,49.2L147.5,49.2z"/>
<path class="st19" d="M131.8,43.8c-0.2,1.7,0.3,3.7,0.6,5.4c0.1,0.9,0.6,3.1,2.1,2.7c1.4-0.4,0.9-2.5,0.7-3.4
	c-0.3-1.7-0.3-3.7-1.3-5.2C133.2,42.2,131.9,42.6,131.8,43.8L131.8,43.8z"/>
<path class="st19" d="M173.5,48.7c-1.3-0.3-2.6,0.7-3.6,1.4c-1.3,0.9-3,2-3.8,3.4c-0.7,1.2,0.7,2.6,1.9,1.9c1.1-0.6,2-1.8,3-2.7
	c0.9-0.8,2.1-1.4,2.9-2.3C174.5,49.9,174.3,48.9,173.5,48.7L173.5,48.7z"/>
<path class="st19" d="M163.1,45.4c0.3-0.1,0.8,0,1.2-0.2c0.6-0.3,1.1-0.7,1.6-1.1c1-0.8,2.6-1.6,3-2.9c0.1-0.4-0.2-0.7-0.5-0.7
	c-1.3-0.2-2.5,1.1-3.5,1.9c-0.5,0.4-1,0.9-1.5,1.4c-0.3,0.3-0.5,1-0.6,1.1C162.6,45.1,162.9,45.5,163.1,45.4L163.1,45.4z"/>
<path class="st19" d="M174.2,63c1.5-0.9,3-1.8,4.5-2.5c1.5-0.7,3-0.8,3.7-2.4c0.1-0.3,0.2-0.7-0.1-0.9c-1.6-1.2-3.1-0.5-4.7,0.3
	c-1.8,0.9-3.6,2-4.9,3.6C171.8,62,172.9,63.7,174.2,63L174.2,63z"/>
<path class="st19" d="M129.5,55.1c-0.5-1-1.6-1.8-2.3-2.8c-0.7-1-1-2.7-2.3-3c-0.4-0.1-0.8,0-1,0.3c-1.2,1.4,0.1,3.3,1,4.5
	c0.8,1.2,2.5,2.8,4.1,2.2C129.5,56.2,129.7,55.7,129.5,55.1L129.5,55.1z"/>
<path class="st19" d="M155.7,59.6c1-0.7,1.6-2.1,2.2-3.2c0.7-1.2,1.9-2.1,2.1-3.5c0.1-0.6-0.6-1.4-1.3-1.3c-1.6,0.2-2.4,1.7-3.3,2.9
	c-0.7,1.1-1.8,3-1.4,4.4C154.2,59.6,155.1,60,155.7,59.6L155.7,59.6z"/>
<path class="st19" d="M143.3,46.6c1-0.4,1-1.4,1-2.4c0.1-1.3-0.2-2.7-0.3-4c-0.2-1.9-3.1-2-3.1,0C140.9,41.1,141.5,47.2,143.3,46.6
	L143.3,46.6z"/>
<path class="st19" d="M155.4,45.7c0.7-0.8,0.9-1.8,1.4-2.7c0.5-0.9,1.1-1.7,1.3-2.8c0.1-0.8-0.9-1.3-1.6-0.9c-1,0.6-1.4,1.8-1.9,2.8
	c-0.4,1-1,2.2-0.6,3.3C154.1,45.9,154.9,46.2,155.4,45.7L155.4,45.7z"/>
<path class="st19" d="M179.3,51.8c1.1,0.4,2.3-0.1,3.4-0.4c1.1-0.3,2.5-0.1,3.3-1c0.4-0.4,0.5-1.2,0-1.6c-1.1-0.9-2.4-0.5-3.6-0.2
	c-1.2,0.3-2.9,0.8-3.5,2C178.6,51.2,178.8,51.6,179.3,51.8L179.3,51.8z"/>
<path class="st19" d="M127.5,44.8c-0.1-0.3,0-0.6,0-0.9c0-0.6-0.4-1.2-0.7-1.7c-0.6-1.1-1.2-2.7-2.2-3.6c-1-0.9-2.2,0-2.1,1.2
	c0.2,1.2,1.2,2.3,1.8,3.3c0.4,0.6,0.8,1,1.3,1.5c0.4,0.4,0.9,0.3,1.2,0.5C127.3,45.4,127.6,45.1,127.5,44.8L127.5,44.8z"/>
<path class="st19" d="M187.8,54.6c0.5,0.1,0.9-0.1,1.4-0.2c0.6-0.2,1.3-0.2,1.9-0.4c1-0.2,2.5-0.2,3.2-1.1c0.1-0.2,0.1-0.5-0.1-0.6
	c-0.9-0.8-2.6-0.5-3.7-0.3c-1,0.1-3,0.7-3.2,1.8C187.2,54.1,187.4,54.5,187.8,54.6L187.8,54.6z"/>
</svg>
