<?xml version="1.0" standalone="no"?>
<!DOCTYPE svg PUBLIC "-//W3C//DTD SVG 20010904//EN"
 "http://www.w3.org/TR/2001/REC-SVG-20010904/DTD/svg10.dtd">
<svg version="1.0" xmlns="http://www.w3.org/2000/svg"
 width="799.000000pt" height="799.000000pt" viewBox="0 0 799.000000 799.000000"
 preserveAspectRatio="xMidYMid meet">
<metadata>
Created by potrace 1.11, written by Peter Selinger 2001-2013
</metadata>
<g transform="translate(0.000000,799.000000) scale(0.100000,-0.100000)"
fill="#000000" stroke="none">
<path d="M2105 7959 c-101 -53 -176 -200 -169 -330 8 -143 105 -353 209 -452
29 -29 30 -29 5 -22 -97 27 -168 90 -272 243 -83 122 -98 133 -132 98 -58 -57
-69 -206 -24 -304 35 -76 139 -172 236 -219 l83 -41 -42 -16 c-69 -28 -160
-95 -249 -185 -93 -94 -108 -113 -177 -216 -100 -151 -172 -319 -208 -487 -20
-94 -22 -130 -20 -290 2 -101 6 -201 10 -223 12 -79 56 -244 81 -306 35 -88
135 -279 146 -279 4 0 8 -5 8 -11 0 -6 29 -48 64 -93 117 -147 261 -282 458
-429 l37 -27 -40 -70 c-21 -38 -39 -72 -39 -74 0 -3 -13 -34 -29 -68 -30 -68
-87 -227 -95 -268 -2 -14 -7 -32 -10 -40 -5 -14 -9 -31 -21 -97 -3 -16 -8 -39
-11 -51 -2 -13 -7 -43 -10 -65 -3 -23 -7 -53 -10 -67 -26 -155 -26 -729 1
-830 2 -8 6 -31 9 -50 10 -70 66 -272 102 -367 65 -174 157 -354 255 -500 92
-136 332 -447 442 -571 267 -301 503 -445 739 -451 44 -1 48 -3 56 -33 5 -18
10 -68 11 -110 2 -81 -22 -160 -57 -191 -29 -25 -104 -63 -192 -96 -119 -46
-193 -87 -247 -137 -50 -47 -53 -65 -5 -40 42 21 237 100 297 119 53 17 78 22
160 32 28 3 64 8 80 10 17 2 66 7 110 11 74 7 96 9 165 13 l25 1 -30 20 c-16
12 -46 28 -65 37 -118 56 -126 69 -154 258 -18 114 -17 125 12 131 15 3 41 10
57 15 184 54 284 60 391 24 39 -13 109 -46 155 -72 180 -103 279 -139 396
-143 15 0 36 -101 35 -173 -1 -69 -17 -124 -46 -155 -21 -24 -84 -61 -115 -67
-72 -15 -233 -71 -263 -90 -30 -20 -118 -131 -118 -149 0 -3 37 11 83 31 45
19 91 39 102 43 11 4 36 15 55 23 64 28 174 56 255 66 136 17 272 29 339 30
52 1 38 17 -58 65 -99 50 -118 72 -132 153 -2 16 -7 39 -9 53 -3 14 -7 43 -10
65 -3 22 -8 55 -11 73 -6 39 -8 38 121 57 88 13 289 87 425 155 44 22 82 40
85 40 21 -1 329 202 458 302 77 59 92 67 120 62 18 -3 138 -7 267 -8 237 -4
357 7 429 37 l30 13 -32 34 c-34 37 -92 109 -117 146 -181 267 -353 592 -544
1029 -53 121 -101 229 -106 240 -5 11 -48 115 -96 230 -160 390 -206 500 -245
583 -21 46 -39 85 -39 87 0 1 -17 32 -37 67 -57 96 -130 184 -207 249 -69 58
-208 138 -243 140 -10 0 16 16 57 36 204 96 368 227 495 395 35 47 106 180
153 288 6 14 25 48 41 77 41 72 79 180 97 281 21 120 21 326 -2 442 -2 14 -6
36 -9 49 -24 126 -96 331 -154 435 -17 30 -31 56 -31 58 0 2 46 3 103 4 92 0
191 9 206 19 3 1 24 6 46 9 68 10 183 73 210 114 26 40 28 49 26 105 -1 26 -9
46 -27 64 -23 23 -31 25 -82 20 -32 -3 -104 -24 -162 -46 -118 -46 -213 -71
-268 -71 -35 0 -72 14 -62 23 4 3 61 33 165 85 43 22 164 104 205 140 69 60
77 68 120 122 150 191 96 355 -100 305 -89 -23 -147 -73 -224 -190 -78 -120
-156 -199 -232 -236 -57 -28 -75 -32 -142 -32 -91 1 -117 11 -238 91 -373 247
-794 426 -1174 501 -30 6 -66 14 -80 16 -25 5 -140 23 -195 29 -193 25 -633
25 -775 1 -14 -2 -54 -7 -90 -11 -36 -3 -74 -8 -85 -11 -11 -3 -74 -7 -140 -9
-110 -3 -124 -2 -170 20 -133 63 -184 202 -189 516 -3 181 -8 213 -34 243 -21
23 -78 22 -127 -4z"/>
</g>
</svg>
